# onset,offset,note,velocity
0.005581	0.115876	58.000000	25.000000
0.006125	0.174470	56.000000	25.000000
0.009028	0.368937	49.000000	39.000000
0.039935	0.428869	68.000000	1.000000
0.045422	0.190547	64.000000	25.000000
0.213155	0.364084	58.000000	25.000000
0.215332	0.424311	64.000000	1.000000
0.217259	0.420434	56.000000	1.000000
0.571091	0.762656	63.000000	39.000000
0.576171	0.756125	59.000000	49.000000
0.577622	0.763381	56.000000	1.000000
0.581976	0.773540	49.000000	25.000000
0.909844	1.101409	64.000000	39.000000
0.911522	1.045037	58.000000	25.000000
0.917350	1.120524	56.000000	49.000000
0.930411	1.092951	49.000000	25.000000
1.269073	1.414198	63.000000	49.000000
1.271091	1.398801	59.000000	39.000000
1.278756	1.418075	56.000000	57.000000
1.287463	1.397758	49.000000	25.000000
1.631749	2.200638	61.000000	1.000000
1.634084	2.208778	58.000000	64.000000
1.639413	1.894833	52.000000	1.000000
1.981091	2.213291	52.000000	25.000000
2.179821	3.242134	42.000000	39.000000
2.374447	2.693722	52.000000	49.000000
2.552633	2.744198	66.000000	39.000000
2.559708	2.728053	61.000000	25.000000
2.561023	2.851273	58.000000	49.000000
2.698733	2.884493	52.000000	25.000000
2.900252	3.068597	47.000000	39.000000
3.089232	3.321431	54.000000	69.000000
3.089232	3.321431	63.000000	25.000000
3.090434	3.311023	66.000000	1.000000
3.096080	3.276034	47.000000	25.000000
3.463381	3.666556	63.000000	39.000000
3.465558	3.639708	58.000000	57.000000
3.468937	3.666307	54.000000	49.000000
3.479345	3.636080	46.000000	25.000000
3.808688	3.988642	58.000000	25.000000
3.811295	4.014470	63.000000	39.000000
3.816375	3.920864	46.000000	39.000000
3.825377	4.016941	54.000000	64.000000
4.154606	4.392610	63.000000	49.000000
4.157010	4.302134	58.000000	57.000000
4.160184	4.305309	54.000000	39.000000
4.166216	4.392610	45.000000	25.000000
4.524198	4.634493	60.000000	25.000000
4.535490	4.843155	52.000000	25.000000
4.623880	4.716760	55.000000	64.000000
4.891817	5.129821	52.000000	39.000000
5.072610	5.792429	40.000000	1.000000
5.210161	5.581681	52.000000	39.000000
5.436284	5.865853	59.000000	49.000000
5.437735	5.838279	64.000000	25.000000
5.543449	5.845309	59.000000	39.000000
5.626443	5.841227	50.000000	25.000000
5.812905	6.509504	46.000000	64.000000
6.159050	6.559595	61.000000	25.000000
6.164379	6.321114	64.000000	39.000000
6.170910	6.339254	56.000000	74.000000
6.322270	6.589300	64.000000	25.000000
6.356511	6.559685	56.000000	39.000000
6.720683	6.929663	61.000000	25.000000
6.720887	6.877622	64.000000	39.000000
6.733948	6.873268	46.000000	39.000000
6.735808	6.892542	56.000000	78.000000
7.072225	7.281205	51.000000	25.000000
7.073381	7.264946	61.000000	25.000000
7.079186	7.282361	55.000000	69.000000
7.408506	7.716171	64.000000	49.000000
7.411613	7.748302	61.000000	39.000000
7.427078	7.786987	55.000000	100.000000
7.606125	8.175014	51.000000	1.000000
7.787735	8.588824	55.000000	91.000000
8.206601	8.357531	66.000000	39.000000
8.214266	8.591590	61.000000	25.000000
8.361023	8.564198	64.000000	1.000000
8.709413	8.900978	62.000000	1.000000
8.720071	9.045150	54.000000	25.000000
8.725944	9.021998	44.000000	69.000000
8.727803	9.006443	49.000000	1.000000
9.044402	9.375286	44.000000	85.000000
9.221658	9.395808	63.000000	39.000000
9.222157	9.378892	59.000000	39.000000
9.230570	9.404719	54.000000	64.000000
9.564266	9.773245	63.000000	39.000000
9.568121	9.730660	59.000000	39.000000
9.582338	9.791318	54.000000	69.000000
9.789050	9.910955	44.000000	39.000000
9.966148	10.581477	54.000000	39.000000
10.141000	10.773744	59.000000	25.000000
10.503858	10.979867	68.000000	25.000000
10.504062	10.927826	66.000000	25.000000
10.897508	11.716012	44.000000	94.000000
11.220796	11.528461	54.000000	91.000000
11.536579	11.937123	49.000000	49.000000
11.548824	11.659118	56.000000	39.000000
11.744833	12.307917	56.000000	74.000000
11.939232	12.264311	49.000000	39.000000
12.116851	12.250366	68.000000	25.000000
12.118506	12.310071	64.000000	39.000000
12.120683	12.312248	59.000000	39.000000
12.453654	12.662633	64.000000	25.000000
12.477531	12.640071	59.000000	39.000000
12.480751	12.643291	48.000000	25.000000
12.835468	12.957372	68.000000	25.000000
12.836737	13.010887	64.000000	39.000000
12.850774	12.961068	49.000000	25.000000
12.854765	12.994084	59.000000	39.000000
13.211363	13.733812	42.000000	25.000000
13.216873	13.832202	66.000000	25.000000
13.217100	13.890479	61.000000	25.000000
13.218551	13.502996	58.000000	39.000000
13.576307	13.814311	52.000000	39.000000
13.739028	14.807146	42.000000	25.000000
13.915105	14.420139	52.000000	25.000000
14.099821	14.349436	66.000000	39.000000
14.101068	14.246193	61.000000	1.000000
14.103381	14.213676	58.000000	1.000000
14.262996	14.506805	58.000000	74.000000
14.484697	14.844606	47.000000	39.000000
14.807667	14.917962	42.000000	1.000000
14.845717	15.223041	47.000000	39.000000
15.013155	15.187304	54.000000	1.000000
15.024447	15.204402	63.000000	39.000000
15.033880	15.202225	66.000000	1.000000
15.036307	15.210456	58.000000	49.000000
15.365400	15.562769	68.000000	25.000000
15.366125	15.482225	63.000000	39.000000
15.366125	15.563495	58.000000	49.000000
15.371454	15.574629	54.000000	39.000000
15.378710	15.494810	46.000000	1.000000
15.713608	15.829708	47.000000	25.000000
15.719345	15.910910	63.000000	25.000000
15.722973	15.873903	58.000000	1.000000
15.723699	15.921068	66.000000	1.000000
16.033427	16.149527	47.000000	1.000000
16.086737	16.707871	64.000000	25.000000
16.086964	16.719708	59.000000	39.000000
16.089141	16.344561	56.000000	49.000000
16.443585	16.716420	52.000000	39.000000
16.618030	17.326239	40.000000	1.000000
16.982951	17.389300	59.000000	39.000000
16.982951	17.412520	64.000000	1.000000
16.990207	17.112112	56.000000	57.000000
17.187032	17.419232	50.000000	25.000000
17.350887	17.652746	46.000000	49.000000
17.718007	17.874742	64.000000	39.000000
17.721114	17.883654	61.000000	1.000000
17.731794	17.917554	46.000000	39.000000
17.735105	17.886034	56.000000	57.000000
17.906919	18.144923	64.000000	39.000000
17.909572	18.130161	61.000000	1.000000
17.915785	18.142180	56.000000	49.000000
17.922157	18.084697	46.000000	39.000000
18.266828	18.499028	64.000000	39.000000
18.268461	18.477440	61.000000	1.000000
18.276443	18.485422	56.000000	39.000000
18.283517	18.480887	46.000000	39.000000
18.625309	18.735604	64.000000	39.000000
18.629118	18.838098	61.000000	25.000000
18.630706	18.758415	46.000000	39.000000
18.636375	18.764084	56.000000	69.000000
19.023041	19.202996	64.000000	39.000000
19.028846	19.208801	61.000000	25.000000
19.034651	19.226216	55.000000	91.000000
19.034651	19.220411	51.000000	25.000000
19.386579	19.560728	64.000000	39.000000
19.390706	19.576465	61.000000	1.000000
19.395468	19.546397	55.000000	25.000000
19.397644	19.571794	51.000000	25.000000
19.699867	19.844991	65.000000	39.000000
19.703676	19.918461	61.000000	25.000000
19.714062	19.859186	55.000000	85.000000
19.720366	19.923540	51.000000	1.000000
20.064039	20.174334	64.000000	25.000000
20.065604	20.204923	61.000000	1.000000
20.068506	20.207826	51.000000	25.000000
20.070275	20.192180	55.000000	39.000000
20.240229	20.385354	44.000000	25.000000
20.292633	20.397123	62.000000	1.000000
20.298030	20.652134	59.000000	1.000000
20.305672	20.601726	54.000000	39.000000
20.656488	20.998982	44.000000	78.000000
20.830184	21.033359	63.000000	39.000000
20.833812	21.019572	59.000000	39.000000
20.838347	21.018302	54.000000	64.000000
21.150184	21.870003	63.000000	25.000000
21.157599	21.453654	59.000000	25.000000
21.162678	21.493563	54.000000	49.000000
21.177622	22.065785	44.000000	39.000000
21.458642	21.870796	59.000000	1.000000
21.516624	22.120343	54.000000	57.000000
21.894833	22.103812	63.000000	25.000000
21.895876	22.110660	59.000000	1.000000
22.079663	22.671771	44.000000	74.000000
22.265150	22.712134	54.000000	64.000000
22.471023	22.650978	63.000000	39.000000
22.475195	22.689980	59.000000	25.000000
