# onset,offset,note,velocity
0.014910	0.281939	61.000000	26.000000
0.287631	0.496610	60.000000	26.000000
0.517087	0.760896	60.000000	41.000000
0.530647	0.768651	63.000000	1.000000
0.793549	1.617858	63.000000	60.000000
0.796610	1.278424	58.000000	60.000000
1.341690	1.643549	56.000000	86.000000
1.622393	2.377041	63.000000	26.000000
1.640533	2.151372	58.000000	77.000000
1.902415	2.140420	55.000000	95.000000
2.170601	2.408606	56.000000	95.000000
2.408833	2.582982	54.000000	41.000000
2.413617	2.535522	45.000000	26.000000
2.704252	2.971282	54.000000	82.000000
2.715137	2.860261	58.000000	26.000000
2.991803	3.508447	53.000000	60.000000
3.532257	3.770261	51.000000	26.000000
3.796338	4.022733	53.000000	52.000000
4.048515	4.303935	54.000000	72.000000
4.312846	4.800465	53.000000	52.000000
5.349241	5.616270	48.000000	52.000000
5.616588	6.022937	49.000000	52.000000
5.916973	6.201418	60.000000	26.000000
6.206724	6.450533	61.000000	1.000000
6.462234	6.775703	48.000000	41.000000
6.777472	7.288311	49.000000	52.000000
7.016248	7.248447	60.000000	41.000000
7.250533	7.453708	61.000000	1.000000
7.489014	7.744434	71.000000	72.000000
7.749286	8.004706	72.000000	26.000000
8.036225	8.459989	72.000000	41.000000
8.855930	9.099740	71.000000	41.000000
9.103073	9.323663	72.000000	1.000000
9.350669	9.635114	70.000000	26.000000
9.651508	9.947563	69.000000	26.000000
9.948742	10.157722	70.000000	1.000000
10.188062	10.426066	72.000000	26.000000
10.735771	10.985386	68.000000	41.000000
10.985771	11.217971	70.000000	1.000000
11.242801	11.538855	68.000000	41.000000
11.525567	11.769377	67.000000	52.000000
11.828016	12.617495	65.000000	26.000000
12.625567	12.747472	65.000000	41.000000
12.858878	13.108493	68.000000	41.000000
13.120488	13.387517	66.000000	41.000000
13.397381	13.612166	65.000000	26.000000
13.613844	13.944728	63.000000	1.000000
13.968311	14.223731	63.000000	41.000000
14.243753	14.458538	65.000000	41.000000
14.461100	14.757155	63.000000	26.000000
14.746202	14.972597	61.000000	26.000000
15.013685	15.153005	60.000000	52.000000
15.155114	15.247994	61.000000	26.000000
15.251554	15.367654	61.000000	1.000000
15.264411	15.473390	63.000000	41.000000
15.408220	15.547540	61.000000	1.000000
15.568493	15.696202	59.000000	26.000000
15.699762	15.810057	58.000000	60.000000
15.812166	15.957291	61.000000	1.000000
15.840624	16.049604	56.000000	72.000000
16.000737	16.337427	58.000000	52.000000
16.143413	16.393028	56.000000	67.000000
16.408946	16.635341	55.000000	100.000000
16.652415	16.861395	54.000000	67.000000
16.874842	17.019966	53.000000	52.000000
17.131191	17.531735	53.000000	1.000000
17.955522	18.239966	53.000000	41.000000
18.256542	18.517767	53.000000	41.000000
18.518697	18.582551	53.000000	41.000000
18.610034	18.755159	53.000000	41.000000
18.778311	18.906021	53.000000	26.000000
18.916815	19.044524	56.000000	52.000000
19.056066	19.201191	54.000000	26.000000
19.208356	19.283821	54.000000	60.000000
19.214842	19.679241	45.000000	26.000000
19.287381	19.856270	53.000000	41.000000
20.105409	20.343413	51.000000	26.000000
20.354298	20.905771	51.000000	26.000000
20.931032	21.035522	53.000000	26.000000
21.063028	21.167517	54.000000	52.000000
21.187835	21.280715	51.000000	41.000000
21.197200	21.400375	53.000000	26.000000
21.285703	21.401803	51.000000	41.000000
21.771304	21.864184	53.000000	1.000000
22.026905	22.172030	53.000000	52.000000
22.175567	22.268447	54.000000	60.000000
22.271259	22.398969	53.000000	41.000000
22.379422	22.454887	51.000000	1.000000
22.457699	22.556384	51.000000	26.000000
22.790737	23.022937	53.000000	41.000000
23.030647	23.158356	54.000000	67.000000
23.187313	23.367268	53.000000	41.000000
23.338447	23.570647	51.000000	1.000000
23.507699	23.594774	53.000000	41.000000
23.609944	23.871168	53.000000	26.000000
23.880805	24.089785	53.000000	41.000000
24.097994	24.248923	54.000000	60.000000
24.249581	24.417926	53.000000	26.000000
24.409876	24.665295	51.000000	1.000000
24.672778	24.928198	53.000000	52.000000
24.936837	25.180647	53.000000	52.000000
25.193640	25.303935	53.000000	52.000000
25.304592	25.374252	54.000000	52.000000
25.392302	25.508402	56.000000	1.000000
25.517699	25.616384	58.000000	52.000000
25.638084	25.777404	58.000000	60.000000
25.778039	25.981214	61.000000	1.000000
26.025454	26.269263	61.000000	1.000000
26.280307	26.582166	60.000000	41.000000
26.518016	26.779241	56.000000	67.000000
26.789059	27.027064	58.000000	67.000000
27.057472	27.312892	60.000000	26.000000
27.315726	27.623390	63.000000	26.000000
27.584660	27.811055	61.000000	1.000000
27.862937	28.112551	63.000000	26.000000
28.141803	28.379808	65.000000	1.000000
28.402007	28.651622	65.000000	26.000000
28.664275	29.233164	65.000000	41.000000
28.664570	29.477268	70.000000	1.000000
29.241576	29.462166	65.000000	1.000000
29.473164	29.548629	65.000000	26.000000
29.560171	29.740125	63.000000	26.000000
29.752393	30.031032	65.000000	26.000000
30.002506	30.780375	68.000000	1.000000
30.813549	30.906429	65.000000	41.000000
30.907087	31.023186	63.000000	52.000000
31.028198	31.301032	65.000000	26.000000
31.302733	31.569762	68.000000	26.000000
31.594592	31.850012	70.000000	26.000000
31.878016	32.145046	68.000000	26.000000
32.154570	32.404184	68.000000	26.000000
32.428130	32.671939	68.000000	26.000000
32.674479	32.953118	68.000000	26.000000
32.701395	32.974229	63.000000	41.000000
32.973164	33.216973	68.000000	26.000000
32.978629	33.228243	63.000000	41.000000
33.245703	33.506928	65.000000	41.000000
33.253844	33.474434	68.000000	26.000000
33.501780	33.745590	68.000000	41.000000
33.507087	33.739286	65.000000	52.000000
33.765114	34.014728	63.000000	60.000000
33.778356	34.004751	68.000000	52.000000
34.015227	34.230012	63.000000	41.000000
34.028629	34.243413	68.000000	41.000000
