# onset,offset,note,velocity
0.013644	0.373554	70.000000	1.000000
0.014370	0.362669	74.000000	1.000000
0.531853	0.822102	69.000000	27.000000
0.544325	0.817159	72.000000	1.000000
1.055753	1.229903	67.000000	42.000000
1.068225	1.248180	70.000000	1.000000
1.344166	1.669245	69.000000	42.000000
1.359540	1.655595	72.000000	1.000000
1.798610	2.257205	70.000000	27.000000
1.813985	2.260969	74.000000	1.000000
2.299971	2.526366	69.000000	42.000000
2.310742	2.525527	72.000000	1.000000
2.803146	3.145640	67.000000	53.000000
2.817068	3.142148	70.000000	1.000000
3.331989	3.581604	69.000000	42.000000
3.342420	3.557205	72.000000	1.000000
3.839903	4.089517	70.000000	1.000000
3.853826	4.086025	74.000000	1.000000
4.114121	4.456615	70.000000	1.000000
4.123690	4.437159	74.000000	1.000000
4.618406	4.891241	72.000000	27.000000
4.633055	4.911694	75.000000	1.000000
5.129427	5.315186	70.000000	1.000000
5.144461	5.330220	74.000000	1.000000
5.432873	5.694098	69.000000	42.000000
5.446093	5.701513	72.000000	1.000000
5.913259	6.371853	70.000000	1.000000
5.927930	6.363304	74.000000	1.000000
6.397749	6.560288	69.000000	1.000000
6.419336	6.610901	72.000000	1.000000
6.925663	7.221717	67.000000	27.000000
6.947839	7.203259	70.000000	1.000000
7.673871	8.027976	68.000000	1.000000
8.021558	8.253758	65.000000	1.000000
8.255186	8.702171	65.000000	27.000000
8.270107	8.943486	69.000000	42.000000
9.002080	9.959903	70.000000	1.000000
9.016139	9.712737	67.000000	42.000000
10.003168	10.206343	69.000000	1.000000
10.235889	10.967318	65.000000	42.000000
10.252715	10.995753	69.000000	53.000000
11.012941	11.517976	67.000000	42.000000
11.028316	11.550765	70.000000	1.000000
11.559608	12.325867	65.000000	27.000000
11.570742	12.337000	69.000000	27.000000
12.329994	12.643463	65.000000	27.000000
12.342465	12.626910	69.000000	42.000000
12.627205	13.091604	67.000000	1.000000
12.644892	13.091876	63.000000	27.000000
13.102692	13.590311	63.000000	27.000000
13.119517	13.549087	67.000000	27.000000
13.599177	13.813962	65.000000	27.000000
13.612375	13.815549	69.000000	27.000000
13.815799	14.158293	63.000000	27.000000
13.816048	13.978588	67.000000	1.000000
14.112034	14.199109	65.000000	1.000000
14.340243	14.810447	62.000000	27.000000
14.351989	14.839608	65.000000	1.000000
14.833576	15.065776	62.000000	27.000000
14.848951	14.953440	65.000000	1.000000
15.084098	15.612352	65.000000	27.000000
15.086887	15.353917	60.000000	1.000000
15.357273	15.879722	60.000000	1.000000
15.635118	15.878928	65.000000	27.000000
15.911898	16.097658	68.000000	1.000000
16.108474	16.195549	72.000000	1.000000
16.404053	16.740742	70.000000	1.000000
16.421490	16.607250	73.000000	1.000000
16.909654	17.159268	69.000000	42.000000
16.934347	17.137522	72.000000	1.000000
17.432805	17.618565	67.000000	42.000000
17.452556	17.626706	70.000000	1.000000
17.714574	17.929359	69.000000	27.000000
17.727046	17.924415	72.000000	1.000000
18.191059	18.678678	70.000000	27.000000
18.205708	18.664302	74.000000	1.000000
18.699313	18.960538	69.000000	27.000000
18.709268	18.958883	72.000000	1.000000
19.218112	19.775390	67.000000	27.000000
19.241263	19.694053	70.000000	1.000000
19.719223	19.945617	72.000000	1.000000
19.780266	19.960220	69.000000	27.000000
20.005595	20.249404	67.000000	27.000000
20.022692	20.243282	70.000000	1.000000
20.269517	20.403032	65.000000	1.000000
20.282987	20.526796	69.000000	27.000000
20.534688	20.615957	65.000000	1.000000
20.552261	20.929585	70.000000	1.000000
20.616615	20.825595	67.000000	1.000000
21.029019	21.307658	65.000000	27.000000
21.045118	21.329563	69.000000	27.000000
21.510130	21.788769	64.000000	27.000000
21.532896	21.747681	67.000000	42.000000
21.810424	22.065844	65.000000	27.000000
21.820719	22.052919	69.000000	42.000000
22.304279	22.786093	67.000000	27.000000
22.319654	22.766638	70.000000	27.000000
22.839177	23.117817	65.000000	27.000000
22.856025	23.053395	69.000000	42.000000
23.327817	23.792216	63.000000	42.000000
23.344529	23.820538	67.000000	27.000000
23.819948	24.092783	65.000000	1.000000
24.108951	24.254075	62.000000	27.000000
24.113712	24.264642	67.000000	1.000000
24.570334	25.086978	62.000000	42.000000
24.587046	25.121105	67.000000	42.000000
25.111672	25.262601	62.000000	27.000000
25.130198	25.310152	67.000000	42.000000
25.311422	25.659722	65.000000	1.000000
25.336502	25.406161	61.000000	1.000000
25.671059	25.798769	60.000000	27.000000
25.686116	25.813826	65.000000	27.000000
25.802329	26.086774	62.000000	27.000000
25.815209	26.122873	67.000000	27.000000
26.145844	26.238724	60.000000	1.000000
26.159449	26.391649	65.000000	1.000000
26.244461	26.348951	60.000000	1.000000
26.351785	26.665254	62.000000	27.000000
26.437817	26.670016	65.000000	27.000000
26.676796	27.210855	62.000000	53.000000
26.691830	26.935640	65.000000	27.000000
26.963168	27.218588	65.000000	27.000000
27.212556	27.433146	62.000000	27.000000
27.221400	27.441989	65.000000	27.000000
27.464869	28.242737	65.000000	42.000000
27.482805	27.807885	60.000000	27.000000
27.950606	28.229245	60.000000	27.000000
27.952307	28.207726	58.000000	42.000000
28.217817	28.722851	58.000000	68.000000
28.231626	28.713440	60.000000	27.000000
28.245413	28.466003	65.000000	1.000000
28.493644	29.271513	65.000000	42.000000
28.745481	28.989291	58.000000	84.000000
28.758406	29.280855	60.000000	27.000000
28.993440	29.254665	57.000000	61.000000
29.261241	29.487635	57.000000	74.000000
29.280855	29.443395	60.000000	42.000000
29.292601	29.791830	65.000000	27.000000
29.489790	29.739404	55.000000	98.000000
29.762239	29.994438	55.000000	100.000000
29.780515	30.273939	60.000000	1.000000
29.793576	30.310220	65.000000	1.000000
30.000220	30.249835	57.000000	27.000000
30.275096	30.780130	58.000000	61.000000
30.297613	30.762012	60.000000	27.000000
30.311195	30.822034	65.000000	1.000000
30.795096	31.799359	57.000000	68.000000
30.808542	31.539971	60.000000	27.000000
30.822216	31.536229	65.000000	27.000000
31.295481	32.769948	53.000000	42.000000
31.559654	32.024053	65.000000	27.000000
31.567522	32.037726	60.000000	1.000000
31.821536	32.047930	57.000000	27.000000
32.045731	32.306955	65.000000	27.000000
32.052851	32.267635	57.000000	27.000000
32.054551	32.309971	60.000000	1.000000
32.308588	32.816400	57.000000	42.000000
32.324960	32.816400	60.000000	1.000000
32.335005	32.816400	65.000000	1.000000
