# onset,offset,note,velocity
0.022381	0.881519	72.000000	27.000000
0.901542	1.522676	74.000000	1.000000
1.532902	2.107596	76.000000	1.000000
2.165397	2.722676	71.000000	1.000000
2.744172	3.342086	72.000000	1.000000
3.386961	3.903605	74.000000	1.000000
3.972404	4.639977	69.000000	1.000000
4.656780	5.225669	71.000000	1.000000
5.247732	5.787596	72.000000	1.000000
5.846168	6.415057	71.000000	1.000000
6.464943	8.630204	64.000000	1.000000
7.048209	7.686757	71.000000	1.000000
7.687234	7.971678	72.000000	1.000000
7.994671	8.261701	71.000000	42.000000
8.267347	9.486395	71.000000	27.000000
8.599977	9.697120	62.000000	27.000000
9.176145	9.686984	64.000000	27.000000
9.506349	10.092653	71.000000	27.000000
9.790748	11.021406	60.000000	27.000000
9.805896	10.409615	64.000000	1.000000
10.135488	10.721791	71.000000	1.000000
10.420658	11.633900	64.000000	27.000000
10.744467	11.313356	71.000000	1.000000
11.023968	12.208186	60.000000	27.000000
11.341224	11.921723	71.000000	1.000000
11.647891	12.170340	64.000000	1.000000
11.950204	12.101134	71.000000	27.000000
12.251224	13.458662	59.000000	27.000000
12.562812	13.149116	71.000000	27.000000
12.870181	13.909274	64.000000	1.000000
13.174694	13.755193	71.000000	1.000000
13.460590	14.400998	59.000000	1.000000
13.784376	13.993356	71.000000	1.000000
14.086848	14.678957	64.000000	27.000000
14.106893	14.368118	69.000000	53.000000
14.370862	14.678526	69.000000	27.000000
14.695102	14.921497	59.000000	61.000000
14.711655	14.978685	64.000000	53.000000
14.725896	14.952290	69.000000	68.000000
15.333401	17.069093	57.000000	68.000000
15.353447	16.230000	62.000000	53.000000
15.367846	16.203764	67.000000	68.000000
16.242653	16.794127	67.000000	1.000000
16.254286	16.823175	62.000000	1.000000
16.835057	17.264626	67.000000	27.000000
16.848866	17.162336	62.000000	27.000000
17.427619	17.996508	65.000000	42.000000
17.436190	18.022494	59.000000	27.000000
17.444172	18.007256	59.000000	27.000000
18.037302	18.611995	64.000000	27.000000
18.048798	18.565442	59.000000	1.000000
18.051837	18.585896	59.000000	1.000000
18.619841	18.979751	62.000000	27.000000
18.623333	18.965828	55.000000	27.000000
18.981859	19.556553	55.000000	68.000000
18.993197	19.132517	59.000000	27.000000
19.001746	19.141066	64.000000	1.000000
19.597959	21.211746	52.000000	42.000000
19.619456	20.519229	55.000000	68.000000
19.634399	20.499342	60.000000	1.000000
19.646621	20.825034	64.000000	27.000000
20.540227	20.801451	55.000000	27.000000
20.825918	21.470272	55.000000	100.000000
20.839592	21.454921	62.000000	53.000000
20.849433	21.487982	64.000000	27.000000
21.479342	21.972766	55.000000	84.000000
21.495737	22.029796	60.000000	27.000000
21.510136	23.123923	64.000000	27.000000
22.056803	22.416712	57.000000	68.000000
22.071179	22.402063	60.000000	1.000000
22.420408	22.687438	55.000000	42.000000
22.689456	23.322200	52.000000	27.000000
22.985941	25.098957	60.000000	27.000000
22.994671	23.325556	55.000000	42.000000
23.335011	23.514966	50.000000	1.000000
23.520726	23.590385	51.000000	1.000000
23.627302	24.149751	55.000000	53.000000
23.889524	24.464218	48.000000	42.000000
23.906803	24.173832	50.000000	1.000000
24.198367	24.482812	50.000000	1.000000
24.487732	24.789592	48.000000	42.000000
24.498481	24.788730	50.000000	1.000000
24.808073	25.115737	50.000000	27.000000
24.815488	25.099932	47.000000	27.000000
25.121837	25.383061	48.000000	27.000000
25.411927	25.806667	47.000000	27.000000
25.417755	25.702200	40.000000	1.000000
25.726621	26.063311	43.000000	42.000000
26.017438	26.313492	45.000000	53.000000
26.329184	26.456893	45.000000	61.000000
26.466236	26.588141	47.000000	27.000000
26.590249	26.909524	45.000000	27.000000
26.627120	27.016054	50.000000	1.000000
26.918118	27.225782	48.000000	27.000000
27.237574	27.510408	47.000000	27.000000
27.554240	27.861905	48.000000	27.000000
27.884580	28.319955	47.000000	27.000000
28.181066	28.477120	43.000000	27.000000
28.484263	28.780317	45.000000	42.000000
28.794354	28.956893	45.000000	27.000000
28.958980	29.226009	47.000000	27.000000
29.118209	29.379433	50.000000	1.000000
29.380476	29.705556	50.000000	1.000000
29.415011	29.571746	45.000000	42.000000
29.589093	29.751633	47.000000	1.000000
29.732268	30.115397	50.000000	1.000000
29.900635	30.301179	47.000000	27.000000
30.162290	30.626689	50.000000	1.000000
30.344150	30.466054	45.000000	27.000000
30.474671	30.706871	47.000000	1.000000
30.653741	31.089116	50.000000	1.000000
30.816281	30.938186	45.000000	42.000000
30.954807	31.157982	47.000000	1.000000
31.112336	31.541905	50.000000	1.000000
31.284921	31.424240	45.000000	27.000000
31.437937	31.635306	47.000000	1.000000
31.568617	31.911111	50.000000	1.000000
31.711882	31.868617	45.000000	42.000000
31.879410	31.983900	47.000000	1.000000
32.001973	32.135488	45.000000	1.000000
32.036553	32.204898	50.000000	1.000000
32.206984	32.323084	50.000000	1.000000
32.328798	32.439093	52.000000	1.000000
32.442630	32.616780	50.000000	1.000000
32.492834	32.771474	55.000000	61.000000
32.797438	33.058662	57.000000	1.000000
33.079705	35.506190	55.000000	42.000000
34.294059	34.433379	45.000000	53.000000
34.441270	34.708299	47.000000	1.000000
34.584308	34.967438	50.000000	1.000000
34.779116	34.924240	45.000000	27.000000
34.935760	35.115714	47.000000	1.000000
35.075760	35.371814	50.000000	1.000000
35.234671	35.339161	45.000000	42.000000
35.347052	35.474762	47.000000	1.000000
35.508503	35.920658	50.000000	1.000000
35.514580	35.665510	45.000000	27.000000
35.674150	35.888934	48.000000	1.000000
35.912812	36.023107	45.000000	1.000000
35.943447	36.193061	50.000000	1.000000
36.115170	36.347370	48.000000	1.000000
36.348617	36.545986	45.000000	1.000000
36.379683	36.733787	55.000000	74.000000
36.757370	37.041814	55.000000	53.000000
37.038753	37.352222	50.000000	27.000000
37.058209	37.348458	55.000000	42.000000
37.345442	37.664717	60.000000	27.000000
37.354898	38.823560	50.000000	27.000000
37.371451	37.690726	55.000000	88.000000
37.691610	38.277914	55.000000	100.000000
37.695828	38.566576	59.000000	1.000000
38.279388	38.575442	55.000000	61.000000
38.593605	38.878050	64.000000	27.000000
38.616553	38.877778	59.000000	27.000000
38.839388	39.178800	52.000000	1.000000
38.912472	39.178800	55.000000	100.000000
38.923946	39.178800	60.000000	27.000000
