# onset,offset,note,velocity
0.003546	0.137061	56.000000	1.000000
0.055587	1.454590	40.000000	1.000000
0.940122	2.693229	47.000000	28.000000
0.946789	1.602753	52.000000	1.000000
1.251279	2.301982	56.000000	63.000000
1.518195	2.777878	59.000000	28.000000
1.560621	2.750644	64.000000	28.000000
2.311211	2.711755	56.000000	94.000000
2.317016	2.711755	52.000000	55.000000
2.701642	2.968671	47.000000	28.000000
2.712481	3.066585	56.000000	70.000000
2.712526	3.188535	52.000000	43.000000
3.182390	3.466834	42.000000	43.000000
3.184998	3.544907	64.000000	28.000000
3.191528	3.568853	52.000000	55.000000
3.196132	3.503796	56.000000	55.000000
3.552254	5.398240	40.000000	28.000000
3.563728	4.434476	47.000000	55.000000
3.568898	4.497696	52.000000	55.000000
3.578036	4.094680	56.000000	82.000000
3.589601	4.112050	59.000000	43.000000
4.144612	5.758399	56.000000	55.000000
4.434998	5.009692	47.000000	28.000000
4.498218	6.135224	52.000000	43.000000
5.053025	5.807673	64.000000	28.000000
5.053751	5.761959	59.000000	28.000000
5.399306	7.030508	40.000000	1.000000
5.915655	6.635474	56.000000	55.000000
6.223206	8.742571	52.000000	43.000000
6.282912	6.457061	61.000000	1.000000
6.722526	7.482980	56.000000	63.000000
7.096041	7.850689	40.000000	1.000000
7.099283	8.997515	64.000000	28.000000
7.107878	7.670961	59.000000	28.000000
7.595746	7.880190	56.000000	70.000000
7.933728	8.055633	59.000000	55.000000
7.934317	8.874726	40.000000	1.000000
7.938762	8.078082	56.000000	86.000000
8.514476	9.007900	59.000000	28.000000
8.549397	9.153116	56.000000	82.000000
8.880145	10.598422	40.000000	1.000000
9.352027	10.054431	56.000000	70.000000
9.717401	11.563388	52.000000	43.000000
9.724816	10.154385	61.000000	1.000000
10.248308	10.718512	59.000000	28.000000
10.288331	10.723705	56.000000	76.000000
10.626902	11.538286	40.000000	1.000000
11.168943	11.703002	59.000000	43.000000
11.174023	11.690667	56.000000	55.000000
11.258535	11.711324	66.000000	43.000000
11.538898	15.538535	40.000000	1.000000
12.123320	12.825723	52.000000	43.000000
12.393297	12.851891	59.000000	28.000000
12.407515	12.871914	59.000000	28.000000
12.927696	13.583660	52.000000	1.000000
13.009601	13.143116	59.000000	28.000000
13.246971	13.589465	66.000000	28.000000
13.250893	13.581778	59.000000	28.000000
13.773388	14.231982	64.000000	28.000000
13.775882	13.909397	59.000000	43.000000
14.110054	15.897991	45.000000	82.000000
14.730961	14.858671	57.000000	63.000000
15.014567	15.478966	59.000000	43.000000
15.555746	15.962095	61.000000	1.000000
15.571120	16.302549	57.000000	70.000000
15.943161	17.709420	45.000000	70.000000
16.523615	17.255043	57.000000	28.000000
16.802254	19.999918	52.000000	43.000000
16.814499	18.637265	64.000000	28.000000
17.366698	18.016857	57.000000	70.000000
17.721370	18.597424	45.000000	82.000000
18.243229	18.904998	62.000000	28.000000
18.246290	18.768739	57.000000	55.000000
18.605995	21.154295	45.000000	76.000000
18.907175	19.383184	61.000000	1.000000
18.927651	19.641664	57.000000	70.000000
19.199805	20.772957	64.000000	43.000000
19.448354	19.924363	61.000000	1.000000
19.689102	20.519215	57.000000	55.000000
20.014340	20.838649	52.000000	43.000000
20.306086	20.787900	61.000000	28.000000
20.597243	20.829442	57.000000	63.000000
20.843048	21.243592	50.000000	1.000000
20.889873	21.307832	59.000000	63.000000
21.211982	23.942571	47.000000	28.000000
21.218422	23.888717	40.000000	1.000000
21.332934	22.131619	52.000000	28.000000
21.770032	22.460825	56.000000	55.000000
22.102912	23.525134	64.000000	43.000000
22.130327	22.467016	59.000000	43.000000
22.135406	23.267379	52.000000	43.000000
22.578921	22.991075	59.000000	43.000000
22.582549	23.116608	56.000000	55.000000
22.995905	23.129420	59.000000	28.000000
23.483909	23.814794	57.000000	63.000000
23.484431	23.884975	59.000000	28.000000
23.485791	23.880531	52.000000	28.000000
23.819714	24.365383	56.000000	55.000000
23.906653	24.318807	52.000000	43.000000
23.908830	24.721528	40.000000	1.000000
23.909986	24.385995	59.000000	28.000000
24.388422	24.713501	54.000000	63.000000
24.754952	25.259986	56.000000	70.000000
24.757129	25.645293	52.000000	28.000000
24.770327	27.034272	40.000000	1.000000
25.331755	26.010939	56.000000	63.000000
25.635134	27.051551	47.000000	43.000000
25.650803	27.061415	52.000000	43.000000
26.188762	26.728626	56.000000	70.000000
26.486608	27.165791	64.000000	43.000000
26.490735	26.705519	59.000000	43.000000
26.705519	27.140893	59.000000	43.000000
26.790259	27.260463	56.000000	82.000000
27.054771	29.115542	40.000000	1.000000
27.067152	28.239760	47.000000	43.000000
27.373320	28.261483	56.000000	100.000000
27.606721	28.193025	59.000000	28.000000
27.961324	28.228354	64.000000	28.000000
28.240871	29.982594	47.000000	63.000000
28.769306	29.541370	57.000000	55.000000
29.139238	29.545587	66.000000	28.000000
29.151324	29.563478	59.000000	28.000000
29.154658	30.961619	51.000000	28.000000
29.602912	30.218240	66.000000	28.000000
29.632503	30.108512	59.000000	55.000000
29.635406	30.419079	57.000000	63.000000
30.004839	31.799646	47.000000	43.000000
30.115202	30.428671	59.000000	55.000000
30.585451	31.282050	57.000000	55.000000
30.917719	31.109283	66.000000	28.000000
30.975202	31.381551	59.000000	28.000000
31.440281	31.672481	68.000000	28.000000
31.808490	32.626993	52.000000	28.000000
31.810440	32.623138	57.000000	82.000000
31.820440	32.604113	69.000000	43.000000
31.826245	32.615723	61.000000	1.000000
32.014680	32.641619	57.000000	76.000000
32.625111	33.539261	57.000000	82.000000
32.631642	33.548830	52.000000	43.000000
32.642390	32.961664	57.000000	82.000000
33.178467	33.596426	61.000000	28.000000
33.184658	33.527152	57.000000	55.000000
33.202662	33.603206	69.000000	43.000000
33.529238	33.889147	57.000000	55.000000
33.548921	34.396540	57.000000	70.000000
33.551007	34.375315	52.000000	43.000000
34.050236	34.479805	68.000000	43.000000
34.051687	34.463841	61.000000	28.000000
34.059374	34.721143	57.000000	70.000000
34.377923	35.190621	52.000000	1.000000
34.406948	35.105565	57.000000	70.000000
34.837673	35.145338	57.000000	55.000000
34.909397	35.118376	61.000000	28.000000
34.952027	35.097152	66.000000	28.000000
35.277968	35.870077	40.000000	1.000000
35.280145	35.454295	59.000000	1.000000
35.283048	35.492027	64.000000	1.000000
35.840281	36.327900	59.000000	43.000000
35.843615	36.476358	56.000000	97.000000
35.847107	36.375361	64.000000	1.000000
36.178422	37.089805	40.000000	1.000000
36.189147	36.914771	47.000000	28.000000
36.726993	37.069488	56.000000	70.000000
37.114227	37.532186	42.000000	43.000000
37.534113	37.952073	40.000000	1.000000
37.647605	37.798535	56.000000	55.000000
37.972866	38.878444	40.000000	1.000000
37.980916	39.217379	64.000000	1.000000
37.982118	38.818036	47.000000	28.000000
37.982254	39.224522	59.000000	43.000000
38.545338	39.247741	56.000000	76.000000
38.818989	39.666517	47.000000	1.000000
38.900417	40.479374	40.000000	1.000000
39.405338	40.119351	56.000000	63.000000
39.729170	40.588308	47.000000	43.000000
39.738898	40.621256	52.000000	1.000000
39.742707	40.468331	64.000000	1.000000
39.758671	40.043116	59.000000	43.000000
40.326971	41.215134	56.000000	82.000000
40.588785	41.517583	47.000000	43.000000
40.662639	41.486948	40.000000	1.000000
41.220077	41.533546	56.000000	1.000000
41.490531	42.346400	40.000000	1.000000
41.518490	42.346400	47.000000	43.000000
41.527061	42.346400	52.000000	28.000000
41.597583	41.835587	56.000000	28.000000
41.931891	42.346400	64.000000	28.000000
41.940667	42.346400	59.000000	43.000000
41.942549	42.346400	56.000000	76.000000
