# onset,offset,note,velocity
0.007662	0.210836	49.000000	29.000000
0.302015	0.656120	65.000000	29.000000
0.307412	0.649907	61.000000	1.000000
0.308274	0.894578	53.000000	58.000000
0.619839	0.956528	44.000000	92.000000
0.777548	1.532197	56.000000	68.000000
0.942310	1.325439	53.000000	58.000000
1.078455	1.641539	61.000000	1.000000
1.213353	1.666142	49.000000	46.000000
1.513308	1.635213	53.000000	29.000000
1.687344	2.279453	56.000000	46.000000
1.805780	2.299204	44.000000	87.000000
2.132809	2.591403	65.000000	46.000000
2.138546	2.504260	61.000000	1.000000
2.145734	2.644963	53.000000	58.000000
2.453217	2.975666	49.000000	29.000000
2.707412	3.015077	65.000000	29.000000
2.709839	3.017503	61.000000	1.000000
2.719204	2.939793	53.000000	58.000000
3.034396	3.191131	51.000000	29.000000
3.184487	3.341222	61.000000	1.000000
3.195077	3.293761	53.000000	29.000000
3.335734	3.904623	53.000000	68.000000
3.442537	3.703761	61.000000	1.000000
3.628705	3.947979	49.000000	46.000000
3.905938	4.503852	53.000000	58.000000
4.045576	4.591244	61.000000	1.000000
4.232741	4.552015	44.000000	68.000000
4.375576	4.903829	65.000000	29.000000
4.548954	5.019158	53.000000	46.000000
4.655848	5.422106	56.000000	58.000000
4.805848	5.270247	49.000000	46.000000
5.110519	5.673603	53.000000	75.000000
5.111698	5.465802	65.000000	58.000000
5.113875	5.462174	61.000000	1.000000
5.414396	5.745281	44.000000	97.000000
5.565644	6.343512	56.000000	68.000000
5.715439	6.278523	53.000000	58.000000
5.871698	6.428977	61.000000	1.000000
6.012786	6.355281	49.000000	46.000000
6.168591	6.482061	65.000000	29.000000
6.329272	6.851721	53.000000	58.000000
6.461766	7.843353	56.000000	75.000000
6.594600	6.931290	44.000000	92.000000
6.909068	7.431517	53.000000	58.000000
7.012537	7.401471	61.000000	29.000000
7.225644	7.684238	49.000000	46.000000
7.483557	8.052446	53.000000	68.000000
7.502220	7.896959	65.000000	46.000000
7.512922	7.803172	61.000000	1.000000
7.780882	8.059521	44.000000	82.000000
7.960315	8.256369	56.000000	68.000000
8.091380	8.631244	53.000000	58.000000
8.240451	8.385576	49.000000	1.000000
8.262945	8.384850	61.000000	29.000000
8.415462	8.688297	49.000000	58.000000
8.703285	8.999340	65.000000	68.000000
8.705644	8.990088	53.000000	68.000000
8.714079	8.998523	61.000000	29.000000
9.033557	9.579226	53.000000	58.000000
9.095122	9.246052	61.000000	1.000000
9.299158	9.566188	49.000000	68.000000
9.303603	9.675122	61.000000	68.000000
9.310496	9.560111	59.000000	58.000000
9.623875	10.761653	42.000000	46.000000
9.763716	9.874011	54.000000	58.000000
9.931086	10.412900	66.000000	46.000000
9.932378	10.472242	54.000000	87.000000
9.936165	10.238024	61.000000	29.000000
10.207412	11.386551	49.000000	58.000000
10.350768	11.122832	58.000000	75.000000
10.499476	11.074170	54.000000	75.000000
10.649204	11.148433	61.000000	46.000000
10.795213	11.996845	42.000000	29.000000
10.957412	11.439226	66.000000	29.000000
11.118115	11.698614	54.000000	75.000000
11.218682	11.845621	58.000000	46.000000
11.429181	12.527866	49.000000	29.000000
11.703988	12.267072	54.000000	92.000000
11.712492	12.107231	61.000000	29.000000
11.713149	12.119498	66.000000	29.000000
11.850519	12.680632	58.000000	68.000000
11.997254	12.316528	42.000000	29.000000
12.330768	12.696483	66.000000	29.000000
12.339113	12.716437	61.000000	1.000000
12.348546	12.667820	54.000000	87.000000
12.633104	12.952378	49.000000	29.000000
12.671743	12.886528	54.000000	68.000000
12.778478	13.846596	58.000000	46.000000
13.062015	13.189725	62.000000	1.000000
13.210927	13.466346	54.000000	92.000000
13.513512	13.821176	68.000000	46.000000
13.518591	13.901721	61.000000	29.000000
13.533467	13.794691	54.000000	68.000000
13.838433	14.314442	54.000000	58.000000
13.950972	14.287662	58.000000	46.000000
14.119725	14.514464	66.000000	1.000000
14.125235	14.467730	61.000000	29.000000
14.289566	14.800405	56.000000	29.000000
14.392900	14.636709	52.000000	1.000000
14.423217	14.922446	49.000000	58.000000
14.697548	15.045848	65.000000	68.000000
14.706981	15.275870	53.000000	75.000000
14.708138	15.062242	61.000000	29.000000
15.012378	15.366483	44.000000	100.000000
15.164714	15.971607	56.000000	75.000000
15.316981	15.694306	53.000000	68.000000
15.468138	15.978977	61.000000	1.000000
15.629929	15.908569	49.000000	58.000000
15.792945	16.077390	65.000000	29.000000
15.968863	16.491312	53.000000	58.000000
16.069725	17.451312	56.000000	58.000000
16.224600	16.735439	44.000000	87.000000
16.545961	17.080020	53.000000	68.000000
16.668478	17.098047	61.000000	1.000000
16.854918	17.330927	49.000000	29.000000
17.139204	17.481698	61.000000	1.000000
17.142469	17.531403	65.000000	46.000000
17.143557	17.677616	53.000000	68.000000
17.426732	17.751811	44.000000	68.000000
17.529839	18.290292	56.000000	46.000000
17.719997	18.375961	53.000000	68.000000
17.871199	18.271743	61.000000	46.000000
18.042650	18.594124	49.000000	58.000000
18.381698	18.526823	53.000000	75.000000
18.645848	18.796777	48.000000	46.000000
18.799612	18.921517	49.000000	46.000000
18.948773	19.477027	51.000000	1.000000
18.949022	19.024487	48.000000	29.000000
19.030224	19.215984	46.000000	46.000000
19.218297	19.363421	48.000000	1.000000
19.219317	19.759181	44.000000	97.000000
19.524102	19.698251	68.000000	1.000000
19.534510	19.818954	60.000000	1.000000
19.541494	20.098773	51.000000	29.000000
19.759317	20.682310	44.000000	75.000000
19.810723	19.926823	46.000000	29.000000
19.928932	20.126301	48.000000	1.000000
19.971040	21.596437	56.000000	46.000000
20.128297	20.395326	51.000000	29.000000
20.137185	20.508705	46.000000	1.000000
20.237027	20.817526	60.000000	1.000000
20.417571	20.614941	51.000000	29.000000
20.459657	20.755712	68.000000	1.000000
20.529204	20.662718	48.000000	29.000000
20.664487	20.977956	46.000000	1.000000
20.728138	21.331857	51.000000	29.000000
20.822990	21.090020	60.000000	1.000000
21.055326	21.316551	48.000000	29.000000
21.319997	21.587027	46.000000	29.000000
21.353036	21.631675	51.000000	29.000000
21.374147	21.571517	41.000000	1.000000
21.475439	22.185734	61.000000	1.000000
21.577548	22.767571	42.000000	1.000000
21.589884	21.862718	49.000000	1.000000
21.619725	21.880950	58.000000	1.000000
21.899204	22.264918	66.000000	29.000000
21.914805	22.495303	54.000000	92.000000
22.197911	23.364714	49.000000	46.000000
22.333920	23.135009	58.000000	46.000000
22.498954	23.067843	54.000000	97.000000
22.661811	23.184260	61.000000	29.000000
22.816256	23.692809	42.000000	29.000000
22.962333	23.177117	66.000000	29.000000
23.131449	23.671312	54.000000	82.000000
23.262220	23.953013	58.000000	58.000000
23.418274	24.027798	49.000000	58.000000
23.587231	23.993580	61.000000	46.000000
23.716256	24.035530	54.000000	97.000000
23.846732	23.974442	66.000000	29.000000
23.945077	24.078591	42.000000	1.000000
24.077707	24.518886	49.000000	58.000000
24.084328	24.571947	41.000000	1.000000
24.109158	24.254283	53.000000	1.000000
24.340768	24.468478	61.000000	29.000000
24.342220	24.667299	65.000000	58.000000
24.344396	24.559181	53.000000	58.000000
24.598115	24.992854	44.000000	92.000000
24.765235	25.577934	56.000000	68.000000
24.939793	25.241653	53.000000	68.000000
25.060043	25.872741	61.000000	29.000000
25.193716	25.594260	49.000000	46.000000
25.373784	25.884623	65.000000	29.000000
25.531766	26.077435	53.000000	58.000000
25.668591	26.475485	56.000000	87.000000
25.840519	26.241063	44.000000	97.000000
26.134079	26.679748	53.000000	68.000000
26.264918	26.508727	61.000000	29.000000
26.453353	26.819068	49.000000	46.000000
26.564668	27.087117	56.000000	58.000000
26.728024	27.296913	53.000000	58.000000
26.869408	27.107412	61.000000	29.000000
27.013671	27.356165	44.000000	92.000000
27.172650	28.333648	56.000000	58.000000
27.337299	27.911993	53.000000	58.000000
27.468795	27.805485	61.000000	29.000000
27.641176	28.099771	49.000000	46.000000
27.907956	28.325916	61.000000	1.000000
27.913036	28.487730	53.000000	68.000000
27.918478	28.336437	65.000000	46.000000
28.233943	28.744782	44.000000	97.000000
28.520768	28.800000	65.000000	46.000000
28.543353	28.800000	61.000000	29.000000
28.560859	28.800000	53.000000	58.000000
