# onset,offset,note,velocity
0.017766	3.402074	46.000000	64.000000
0.022845	0.626564	58.000000	32.000000
0.457993	0.742437	61.000000	1.000000
0.726496	2.032619	70.000000	1.000000
0.738537	1.046201	65.000000	1.000000
0.738696	2.700782	58.000000	74.000000
0.753548	1.067018	60.000000	1.000000
1.140578	2.069376	65.000000	50.000000
1.147335	3.033956	61.000000	32.000000
1.432029	2.697517	53.000000	74.000000
2.494297	3.051576	70.000000	1.000000
2.496337	2.815612	65.000000	32.000000
2.806904	4.118832	51.000000	32.000000
2.820306	3.040895	67.000000	1.000000
3.205907	3.716746	61.000000	1.000000
3.440306	3.718945	67.000000	1.000000
3.441031	3.708061	70.000000	1.000000
3.443458	5.440374	58.000000	50.000000
3.865657	4.480986	67.000000	32.000000
3.870011	4.479535	70.000000	1.000000
3.870737	4.468650	61.000000	1.000000
4.167018	5.420895	51.000000	32.000000
4.556133	5.119217	61.000000	1.000000
4.810963	5.455317	67.000000	32.000000
5.206564	5.415544	61.000000	32.000000
5.487290	6.868877	44.000000	95.000000
5.877199	6.417063	60.000000	1.000000
5.878650	6.064410	56.000000	1.000000
6.149807	7.200510	68.000000	1.000000
6.153888	6.537018	63.000000	1.000000
6.154161	8.203322	56.000000	64.000000
6.599308	7.191417	63.000000	32.000000
6.607176	7.181870	60.000000	1.000000
6.874342	8.226904	44.000000	82.000000
7.298197	7.884501	60.000000	1.000000
7.563820	8.301054	63.000000	32.000000
7.574569	8.393072	68.000000	1.000000
7.953163	8.220192	59.000000	32.000000
8.259943	8.823027	49.000000	50.000000
8.360011	8.777970	56.000000	1.000000
8.593684	8.976814	61.000000	1.000000
8.857947	9.090147	68.000000	1.000000
8.860737	9.104546	65.000000	1.000000
8.886610	9.066564	56.000000	64.000000
9.282097	10.779784	49.000000	50.000000
9.294863	9.846337	61.000000	1.000000
9.316768	9.891462	65.000000	1.000000
9.316768	9.885657	68.000000	1.000000
9.925612	10.517721	61.000000	1.000000
10.220873	10.464682	65.000000	50.000000
10.224501	10.474115	65.000000	50.000000
10.613571	10.822551	63.000000	32.000000
10.913639	11.772777	43.000000	50.000000
11.609988	11.813163	61.000000	1.000000
11.612165	11.786315	53.000000	32.000000
11.615657	11.789807	58.000000	32.000000
12.034841	12.661780	43.000000	32.000000
12.037630	12.269829	61.000000	1.000000
12.039920	12.272120	58.000000	1.000000
12.042709	12.274909	53.000000	1.000000
12.272301	12.667040	61.000000	1.000000
12.273480	12.645000	58.000000	1.000000
12.278378	12.673117	53.000000	1.000000
12.709603	12.959217	43.000000	32.000000
12.714433	12.952437	61.000000	1.000000
12.715408	12.959217	58.000000	1.000000
12.724455	12.950850	53.000000	1.000000
12.989898	13.361417	58.000000	50.000000
12.990056	13.367380	61.000000	1.000000
13.002233	13.338922	53.000000	1.000000
13.007925	13.576814	43.000000	64.000000
13.434841	13.632210	58.000000	1.000000
13.446814	13.644183	54.000000	1.000000
13.680374	13.889353	60.000000	1.000000
13.683276	13.874841	58.000000	1.000000
13.693299	13.925498	48.000000	32.000000
13.694501	13.915090	54.000000	1.000000
14.100759	14.367789	60.000000	1.000000
14.102936	14.306111	58.000000	50.000000
14.108854	14.306224	48.000000	32.000000
14.158265	14.349829	54.000000	1.000000
14.782505	15.351394	52.000000	32.000000
14.782641	15.403775	60.000000	32.000000
14.787585	15.379693	58.000000	64.000000
14.787721	17.011031	48.000000	32.000000
15.444705	16.060034	52.000000	32.000000
15.709557	15.866292	60.000000	1.000000
15.710759	15.879104	58.000000	32.000000
16.079829	16.422324	53.000000	32.000000
16.114365	16.944478	60.000000	1.000000
16.115566	16.777335	56.000000	64.000000
16.401349	17.748106	41.000000	1.000000
17.091553	17.358582	60.000000	32.000000
17.106541	18.998968	53.000000	32.000000
17.484251	18.157630	60.000000	32.000000
17.531394	18.106088	56.000000	64.000000
17.759399	19.733095	41.000000	1.000000
18.203843	18.784342	56.000000	50.000000
18.454455	18.796950	60.000000	1.000000
18.905657	19.114637	56.000000	50.000000
19.143049	19.485544	58.000000	1.000000
19.527585	19.759784	58.000000	64.000000
19.795612	21.488809	48.000000	32.000000
19.796814	20.063843	58.000000	64.000000
19.802981	20.244161	60.000000	1.000000
20.210328	20.802437	56.000000	100.000000
20.221802	21.144795	53.000000	64.000000
20.476632	21.341576	41.000000	1.000000
20.875748	21.282097	56.000000	50.000000
21.136632	21.316587	65.000000	32.000000
21.141961	21.316111	60.000000	1.000000
21.535634	21.709784	57.000000	32.000000
21.816564	21.926859	58.000000	32.000000
21.902165	25.901802	46.000000	50.000000
22.278401	22.870510	61.000000	1.000000
22.511961	23.638129	70.000000	1.000000
22.519580	22.867879	65.000000	32.000000
22.529988	23.226587	58.000000	82.000000
22.942392	23.580941	65.000000	32.000000
22.949535	23.553254	61.000000	1.000000
23.202913	24.108492	53.000000	50.000000
23.232278	23.957902	58.000000	32.000000
23.639829	24.202913	61.000000	1.000000
23.917517	24.370306	70.000000	1.000000
23.925385	24.273684	65.000000	32.000000
24.323775	24.944909	61.000000	1.000000
24.628537	24.924591	70.000000	1.000000
24.632165	24.928220	67.000000	1.000000
24.642052	25.239966	51.000000	32.000000
24.987267	25.550351	61.000000	1.000000
24.994274	25.528333	70.000000	1.000000
25.005657	25.528106	67.000000	32.000000
25.282845	26.780532	51.000000	32.000000
25.670487	26.314841	67.000000	32.000000
25.676632	26.286156	61.000000	1.000000
25.685340	26.318083	70.000000	1.000000
26.367108	26.779263	61.000000	1.000000
26.626292	26.928151	70.000000	1.000000
26.630396	26.949671	67.000000	32.000000
27.271530	28.647312	44.000000	100.000000
27.952460	28.329784	56.000000	50.000000
27.958129	28.358673	67.000000	32.000000
28.389875	28.993594	56.000000	50.000000
28.669603	28.948242	65.000000	50.000000
28.676133	28.844478	60.000000	1.000000
28.689671	28.799966	44.000000	50.000000
29.122165	29.679444	56.000000	50.000000
29.372891	29.697970	63.000000	32.000000
29.377721	29.702800	60.000000	1.000000
29.743594	31.026496	56.000000	50.000000
30.061734	30.322959	65.000000	32.000000
30.075272	30.342301	49.000000	50.000000
30.075884	30.325498	59.000000	32.000000
30.413979	30.739059	65.000000	50.000000
30.417607	30.858786	59.000000	32.000000
30.436224	30.674229	49.000000	32.000000
30.721054	32.613480	49.000000	32.000000
31.149739	31.765068	65.000000	50.000000
31.163276	31.737970	56.000000	64.000000
31.164727	31.762641	61.000000	1.000000
31.804659	32.605748	56.000000	50.000000
32.093911	32.273866	61.000000	1.000000
32.096496	32.346111	65.000000	32.000000
32.460827	32.605952	63.000000	1.000000
32.462278	32.607403	59.000000	1.000000
32.779943	33.052777	43.000000	50.000000
32.781145	33.036564	61.000000	1.000000
33.401893	33.610873	61.000000	1.000000
33.402732	33.605907	58.000000	32.000000
33.414002	33.605566	53.000000	32.000000
33.414795	33.600555	43.000000	64.000000
34.120124	34.799308	43.000000	50.000000
34.123390	34.854818	61.000000	1.000000
34.127131	34.864365	58.000000	32.000000
34.804909	35.054523	43.000000	50.000000
35.211757	35.414932	53.000000	32.000000
35.524229	36.151167	48.000000	32.000000
35.524229	35.831893	60.000000	1.000000
35.525680	35.676610	58.000000	1.000000
35.547517	35.820351	52.000000	1.000000
35.914047	36.204297	58.000000	32.000000
35.916088	36.212142	60.000000	32.000000
35.933254	36.542777	52.000000	32.000000
36.196088	36.544387	48.000000	50.000000
36.219535	36.370464	60.000000	32.000000
36.568106	36.800306	60.000000	1.000000
36.574523	36.841553	58.000000	74.000000
36.593140	36.819535	48.000000	32.000000
36.802505	37.226269	60.000000	32.000000
36.869625	37.200510	48.000000	32.000000
36.875045	37.205929	58.000000	64.000000
36.879898	37.210782	52.000000	1.000000
37.250714	37.378424	60.000000	32.000000
37.252777	37.531417	58.000000	74.000000
37.259308	37.508922	48.000000	32.000000
37.381848	37.509557	61.000000	32.000000
37.556201	37.875476	60.000000	32.000000
37.557789	39.560510	48.000000	32.000000
37.558378	37.866043	58.000000	64.000000
37.889829	38.011734	60.000000	1.000000
37.927517	38.032006	55.000000	100.000000
37.935385	38.051485	52.000000	32.000000
38.053594	38.535408	53.000000	64.000000
38.176065	38.895884	41.000000	32.000000
38.236768	38.439943	56.000000	1.000000
38.634161	38.848945	53.000000	32.000000
38.640691	38.838061	56.000000	50.000000
38.891303	39.233798	56.000000	100.000000
38.899285	39.595884	41.000000	1.000000
38.914002	39.262301	53.000000	74.000000
39.316746	39.717290	56.000000	82.000000
39.323775	39.793979	53.000000	50.000000
39.598922	40.231666	41.000000	1.000000
39.999966	40.203140	58.000000	50.000000
40.007086	40.210260	52.000000	32.000000
40.235975	40.909353	41.000000	1.000000
40.698764	41.041258	56.000000	50.000000
40.708197	41.613775	53.000000	50.000000
40.990805	42.256292	41.000000	32.000000
40.995521	41.541190	48.000000	1.000000
41.601507	42.849580	48.000000	32.000000
41.618083	41.954773	53.000000	1.000000
41.624954	42.495702	60.000000	1.000000
41.631961	41.736451	56.000000	1.000000
42.075317	42.917040	53.000000	50.000000
42.306247	43.629200	41.000000	1.000000
42.717902	43.629200	60.000000	1.000000
42.991598	43.629200	53.000000	64.000000
42.999557	43.629200	65.000000	32.000000
43.353027	43.629200	56.000000	74.000000
