# onset,offset,note,velocity
0.006883	0.424843	49.000000	23.000000
0.278403	0.853097	56.000000	58.000000
0.283165	0.457314	68.000000	1.000000
0.286385	0.634684	64.000000	1.000000
0.592552	1.422666	44.000000	63.000000
0.720421	1.109355	61.000000	1.000000
0.877178	1.399627	56.000000	45.000000
1.015205	1.473800	64.000000	1.000000
1.162983	1.981487	49.000000	36.000000
1.312235	1.828879	68.000000	1.000000
1.432938	1.653527	56.000000	45.000000
1.514797	1.787632	64.000000	23.000000
1.548471	2.134775	61.000000	1.000000
1.730398	2.125137	44.000000	52.000000
1.993187	2.167337	68.000000	23.000000
1.996815	2.170965	64.000000	1.000000
2.013550	2.147065	56.000000	45.000000
2.186861	2.302961	66.000000	23.000000
2.306385	3.629922	42.000000	23.000000
2.588357	2.930852	61.000000	1.000000
2.591940	2.824140	52.000000	1.000000
2.844911	3.884004	52.000000	1.000000
2.972099	4.208561	58.000000	45.000000
3.255115	3.690489	61.000000	1.000000
3.654616	3.933255	42.000000	23.000000
3.957201	4.206815	44.000000	67.000000
4.230081	4.427450	46.000000	45.000000
4.496226	4.751645	47.000000	36.000000
4.816634	5.124298	63.000000	1.000000
4.817405	5.032190	66.000000	23.000000
4.828244	5.304253	54.000000	52.000000
5.087745	5.732099	42.000000	23.000000
5.193936	5.931169	59.000000	23.000000
5.341691	5.840920	54.000000	45.000000
5.485546	5.909310	63.000000	1.000000
5.610670	6.355500	47.000000	23.000000
5.743890	6.080580	66.000000	1.000000
5.872507	6.389151	54.000000	45.000000
6.009922	6.555591	59.000000	23.000000
6.179605	6.562734	42.000000	1.000000
6.437768	6.716407	54.000000	52.000000
6.573051	6.869106	63.000000	23.000000
6.742688	7.265137	40.000000	1.000000
7.032439	7.891577	64.000000	23.000000
7.038199	7.543233	52.000000	23.000000
7.040534	7.330784	59.000000	23.000000
7.267836	7.836725	40.000000	1.000000
7.320353	7.540942	47.000000	23.000000
7.429786	7.894185	56.000000	45.000000
7.584979	8.090013	52.000000	23.000000
7.698493	7.878448	59.000000	36.000000
7.875410	8.403663	40.000000	1.000000
8.145840	8.807609	52.000000	23.000000
8.161555	8.428584	64.000000	1.000000
8.166634	8.514933	59.000000	1.000000
8.427518	8.961577	40.000000	1.000000
8.718063	9.054752	64.000000	23.000000
8.720285	9.027949	59.000000	36.000000
8.728992	9.054072	58.000000	23.000000
8.984797	9.524661	46.000000	52.000000
9.059559	9.169854	64.000000	23.000000
9.174344	10.207632	64.000000	23.000000
9.263346	9.571010	64.000000	23.000000
9.265478	9.578947	56.000000	36.000000
9.551781	9.853641	46.000000	36.000000
9.681078	10.412507	56.000000	52.000000
9.858063	10.090262	46.000000	45.000000
9.977813	10.622167	61.000000	1.000000
10.116793	10.563777	46.000000	45.000000
10.248561	10.712961	64.000000	23.000000
10.415296	10.989990	56.000000	45.000000
10.566407	10.966951	46.000000	23.000000
10.900761	11.005251	64.000000	1.000000
10.903618	11.292552	61.000000	1.000000
10.971283	11.284752	40.000000	1.000000
11.222643	11.379378	51.000000	1.000000
11.266339	11.515954	55.000000	74.000000
11.538561	11.863641	63.000000	23.000000
11.542915	11.763505	55.000000	77.000000
11.765432	12.055682	55.000000	36.000000
11.768947	12.308811	51.000000	1.000000
11.929038	12.463097	61.000000	1.000000
12.077972	12.617836	55.000000	58.000000
12.199491	12.559400	63.000000	23.000000
12.350897	12.890761	51.000000	23.000000
12.508924	13.002348	61.000000	23.000000
12.663981	13.163210	55.000000	71.000000
12.779378	13.005772	63.000000	23.000000
12.919060	13.696929	51.000000	1.000000
13.043527	13.240897	61.000000	1.000000
13.163346	13.279446	55.000000	23.000000
13.366521	13.569695	56.000000	1.000000
13.473391	13.577881	44.000000	23.000000
13.741827	14.316521	68.000000	1.000000
13.751146	14.111056	56.000000	45.000000
13.754843	14.050897	63.000000	23.000000
14.026271	15.210489	51.000000	23.000000
14.158766	14.657995	59.000000	23.000000
14.304729	14.415024	56.000000	45.000000
14.431373	14.663573	63.000000	23.000000
14.557224	14.772008	44.000000	58.000000
14.713527	15.235976	59.000000	23.000000
14.870013	15.427292	56.000000	45.000000
15.012711	15.250716	63.000000	23.000000
15.168516	15.719990	44.000000	63.000000
15.293686	15.827745	59.000000	23.000000
15.455750	15.931759	56.000000	45.000000
15.590421	15.834230	63.000000	23.000000
15.742575	16.781668	44.000000	63.000000
15.972983	16.321283	68.000000	23.000000
15.978085	16.314775	63.000000	23.000000
15.987405	16.498244	56.000000	52.000000
16.271509	17.217722	51.000000	23.000000
16.393255	17.205954	59.000000	23.000000
16.544661	17.252870	56.000000	63.000000
16.676430	17.129219	63.000000	36.000000
16.803709	17.070738	44.000000	71.000000
17.109945	17.365364	44.000000	80.000000
17.386747	17.653777	46.000000	63.000000
17.673029	17.829763	47.000000	36.000000
17.833323	18.477677	44.000000	80.000000
17.953255	18.202870	49.000000	45.000000
18.244208	18.575092	68.000000	23.000000
18.245659	18.553323	64.000000	1.000000
18.249446	18.766090	56.000000	58.000000
18.500988	19.598131	44.000000	63.000000
18.639083	19.393732	61.000000	23.000000
18.793505	19.304344	56.000000	52.000000
18.931691	19.407700	64.000000	23.000000
19.064979	19.906702	49.000000	45.000000
19.204344	19.668743	68.000000	23.000000
19.352235	19.549605	56.000000	52.000000
19.480194	20.043278	61.000000	23.000000
19.646180	20.058335	44.000000	67.000000
19.918856	20.093006	64.000000	1.000000
19.929877	20.115636	68.000000	23.000000
19.937246	20.093981	56.000000	58.000000
20.143187	20.247677	66.000000	23.000000
20.250081	20.755115	42.000000	36.000000
20.480444	20.759083	66.000000	23.000000
20.487745	20.609650	61.000000	1.000000
20.490670	20.995704	54.000000	52.000000
20.755795	21.533663	42.000000	36.000000
20.888471	22.130738	58.000000	58.000000
21.026702	21.769741	54.000000	52.000000
21.186203	21.586747	61.000000	1.000000
21.301146	21.713301	49.000000	23.000000
21.581033	21.836453	42.000000	23.000000
21.857586	22.107201	44.000000	77.000000
22.136022	22.368221	46.000000	52.000000
22.421464	22.653663	47.000000	36.000000
22.726317	23.248766	54.000000	58.000000
23.008607	24.088335	42.000000	23.000000
23.133641	23.394865	58.000000	36.000000
23.283414	23.817473	54.000000	58.000000
23.439990	24.188834	63.000000	1.000000
23.548357	24.337836	47.000000	36.000000
23.711078	24.227722	66.000000	23.000000
23.837473	24.348312	54.000000	58.000000
23.973301	24.530580	59.000000	36.000000
24.115069	24.550444	42.000000	23.000000
24.411849	24.603414	54.000000	58.000000
24.550126	24.718471	63.000000	23.000000
24.686906	25.795659	40.000000	1.000000
24.969854	25.556158	64.000000	23.000000
24.977246	25.261691	59.000000	23.000000
24.989468	25.482893	52.000000	23.000000
25.239945	26.087473	47.000000	36.000000
25.344208	25.884072	56.000000	45.000000
25.525523	26.657496	52.000000	23.000000
25.693051	25.873006	59.000000	23.000000
25.837156	26.371215	40.000000	1.000000
25.969332	26.398902	56.000000	36.000000
26.090625	26.206725	47.000000	36.000000
26.371328	26.638357	42.000000	36.000000
26.663414	26.924639	44.000000	77.000000
26.950194	27.101124	45.000000	63.000000
27.106271	27.477790	46.000000	58.000000
27.211917	27.429423	63.000000	1.000000
27.482802	27.825296	46.000000	45.000000
27.642552	28.948675	56.000000	77.000000
27.676430	27.931849	64.000000	23.000000
28.077813	28.310013	46.000000	36.000000
28.325682	28.673981	64.000000	36.000000
28.331509	28.650784	61.000000	23.000000
28.349695	28.581895	46.000000	23.000000
28.618289	28.914344	46.000000	36.000000
28.761464	28.924004	64.000000	36.000000
28.764321	28.967496	61.000000	23.000000
29.067904	29.398788	55.000000	100.000000
29.190897	29.405682	51.000000	23.000000
29.446725	29.951759	55.000000	80.000000
29.455500	29.722530	63.000000	23.000000
29.700353	30.083482	46.000000	52.000000
29.862779	29.973074	61.000000	23.000000
29.999537	30.533595	55.000000	74.000000
30.132031	30.364230	63.000000	23.000000
30.314843	30.622507	51.000000	23.000000
30.414185	30.907609	61.000000	1.000000
30.542938	31.082802	55.000000	74.000000
30.693663	30.949083	63.000000	23.000000
30.845500	31.408584	46.000000	45.000000
31.107473	31.223573	55.000000	74.000000
31.435160	31.644140	44.000000	71.000000
31.443868	31.618017	56.000000	36.000000
31.687428	32.389831	68.000000	23.000000
31.690330	31.974775	63.000000	23.000000
31.695410	32.746112	56.000000	52.000000
31.965205	32.766294	51.000000	23.000000
32.112212	32.379242	63.000000	36.000000
32.114434	32.375659	59.000000	36.000000
32.416475	32.637065	59.000000	36.000000
32.542054	33.656611	44.000000	63.000000
32.790920	33.359809	56.000000	67.000000
32.801872	33.167586	68.000000	23.000000
32.805546	33.124820	63.000000	1.000000
33.130421	34.163709	51.000000	23.000000
33.260262	34.229695	59.000000	36.000000
33.388970	33.894004	56.000000	23.000000
33.546317	34.271940	63.000000	23.000000
33.660194	34.734117	44.000000	71.000000
33.939718	34.235772	68.000000	1.000000
33.949196	34.431010	56.000000	67.000000
34.215682	34.999355	51.000000	23.000000
34.340421	35.832303	59.000000	23.000000
34.476498	34.981532	56.000000	58.000000
34.624298	34.879718	63.000000	23.000000
34.775410	35.886400	44.000000	63.000000
35.046158	35.568607	56.000000	52.000000
35.051305	35.486679	68.000000	1.000000
35.054933	35.449673	63.000000	23.000000
35.366634	35.569809	51.000000	36.000000
35.618788	35.886400	68.000000	23.000000
35.631917	35.886400	63.000000	23.000000
35.634049	35.886400	56.000000	63.000000
