# onset,offset,note,velocity
0.044110	0.549144	59.000000	28.000000
0.057602	0.539416	52.000000	28.000000
0.706445	1.136015	71.000000	28.000000
0.710618	1.093747	64.000000	28.000000
0.717874	1.402863	67.000000	45.000000
0.732069	1.121003	59.000000	28.000000
1.098622	1.377262	64.000000	1.000000
1.123498	1.378917	59.000000	28.000000
1.372999	1.535538	52.000000	45.000000
1.384631	1.541366	59.000000	56.000000
1.397829	1.537148	64.000000	28.000000
1.405652	1.533361	67.000000	45.000000
1.820368	2.278962	45.000000	73.000000
1.841411	2.375470	52.000000	28.000000
1.842568	2.260527	55.000000	45.000000
2.520572	3.072046	69.000000	45.000000
2.533203	3.107897	64.000000	1.000000
2.547715	2.971479	55.000000	79.000000
2.549166	2.943906	61.000000	28.000000
2.556831	3.201185	52.000000	28.000000
2.573928	2.678418	45.000000	56.000000
2.679053	3.352432	45.000000	65.000000
2.947194	3.196808	61.000000	1.000000
2.973316	3.188101	55.000000	1.000000
3.201593	3.369937	51.000000	28.000000
3.210005	3.413180	61.000000	1.000000
3.211411	3.373951	55.000000	79.000000
3.216604	3.367534	64.000000	28.000000
3.664087	4.174926	57.000000	45.000000
3.671751	4.170980	62.000000	1.000000
4.346468	4.747012	62.000000	1.000000
4.353815	5.027194	66.000000	28.000000
4.370799	4.777148	57.000000	28.000000
4.752092	5.117806	62.000000	28.000000
4.788441	5.113520	57.000000	45.000000
5.475878	6.056377	43.000000	56.000000
5.496604	6.071298	50.000000	28.000000
5.508123	5.960912	55.000000	73.000000
5.511026	5.958010	59.000000	1.000000
6.218804	6.921207	59.000000	45.000000
6.235176	6.653135	55.000000	56.000000
6.243157	6.423112	50.000000	1.000000
6.428101	6.677715	50.000000	1.000000
6.656423	6.911842	55.000000	45.000000
6.682908	6.886083	50.000000	1.000000
6.901253	7.092817	50.000000	28.000000
6.912863	7.075402	55.000000	65.000000
6.923588	7.115153	59.000000	28.000000
7.321366	7.820595	49.000000	28.000000
7.352568	7.764722	56.000000	45.000000
8.036037	8.721026	65.000000	28.000000
8.042613	8.425742	61.000000	28.000000
8.061888	8.334722	55.000000	56.000000
8.074609	8.916332	49.000000	1.000000
8.426241	8.687466	61.000000	1.000000
8.458781	8.598101	55.000000	28.000000
8.700346	8.851275	56.000000	73.000000
8.712795	8.915969	61.000000	28.000000
8.724609	8.904563	65.000000	28.000000
9.213067	9.584586	49.000000	45.000000
9.875448	10.560436	61.000000	1.000000
9.877420	10.301185	58.000000	56.000000
9.916173	10.061298	49.000000	1.000000
10.063407	10.324631	49.000000	1.000000
10.324835	10.557035	58.000000	56.000000
10.341457	10.538826	49.000000	28.000000
10.548191	10.646876	49.000000	28.000000
10.557398	10.777987	58.000000	65.000000
10.562477	10.759847	61.000000	1.000000
10.982364	11.469983	47.000000	28.000000
11.673452	11.865017	66.000000	28.000000
11.681117	12.342885	59.000000	28.000000
11.688441	12.367624	62.000000	1.000000
11.706513	12.107058	54.000000	45.000000
12.133588	12.348373	54.000000	45.000000
12.356128	12.536083	59.000000	45.000000
12.359688	12.487398	54.000000	65.000000
12.379302	12.524427	62.000000	1.000000
12.601638	13.385312	62.000000	1.000000
12.812205	13.392704	47.000000	28.000000
12.837284	13.388758	54.000000	45.000000
13.532318	14.223112	62.000000	28.000000
13.552727	13.959076	59.000000	28.000000
13.565470	13.971820	54.000000	45.000000
13.975629	14.190414	54.000000	28.000000
13.979960	14.194745	59.000000	28.000000
14.199030	14.367375	54.000000	65.000000
14.212069	14.392024	59.000000	56.000000
14.225334	14.341434	62.000000	1.000000
14.677375	15.101139	52.000000	28.000000
14.684609	15.201253	59.000000	28.000000
15.105878	15.280028	52.000000	1.000000
15.343112	16.045516	67.000000	45.000000
15.370958	15.771502	64.000000	28.000000
15.375810	15.793770	59.000000	28.000000
15.390504	15.512409	52.000000	28.000000
15.514495	15.793135	52.000000	1.000000
15.773679	16.034903	64.000000	28.000000
15.798305	16.013089	59.000000	28.000000
15.814405	16.168509	52.000000	1.000000
16.026627	16.148532	59.000000	56.000000
16.038123	16.160028	64.000000	45.000000
16.049008	16.141888	67.000000	45.000000
16.484405	17.030073	45.000000	79.000000
16.509801	17.055470	52.000000	28.000000
17.192069	17.853838	69.000000	45.000000
17.219234	17.881003	61.000000	28.000000
17.223067	17.356581	55.000000	56.000000
17.232908	17.372228	52.000000	1.000000
17.347126	18.014699	45.000000	65.000000
17.377942	17.615946	52.000000	1.000000
17.641003	17.855788	55.000000	56.000000
17.641185	17.850164	52.000000	1.000000
17.866241	18.040391	55.000000	100.000000
17.871525	18.034064	51.000000	28.000000
17.883566	18.069325	61.000000	45.000000
17.906151	18.068690	69.000000	45.000000
18.321593	18.855652	50.000000	28.000000
18.351751	18.792931	57.000000	45.000000
18.793225	18.868690	57.000000	28.000000
19.028577	19.754200	66.000000	28.000000
19.045017	19.451366	62.000000	1.000000
19.047602	19.221751	57.000000	45.000000
19.067058	19.165742	50.000000	1.000000
19.193248	19.889847	50.000000	1.000000
19.225289	19.730323	57.000000	45.000000
19.452795	19.743044	62.000000	1.000000
19.732772	19.877897	57.000000	73.000000
19.746854	19.868758	62.000000	28.000000
19.758781	19.863271	66.000000	28.000000
20.173293	20.678327	43.000000	45.000000
20.192160	20.691389	50.000000	28.000000
20.681207	20.954042	43.000000	28.000000
20.696445	20.835765	50.000000	28.000000
20.709416	20.837126	55.000000	65.000000
20.721117	20.843021	59.000000	1.000000
20.907829	21.407058	62.000000	1.000000
20.914064	21.558418	59.000000	45.000000
20.936445	21.313770	55.000000	65.000000
20.938849	21.101389	50.000000	28.000000
20.956944	21.055629	43.000000	28.000000
21.072953	21.334178	43.000000	28.000000
21.102046	21.340051	50.000000	1.000000
21.337874	21.564268	55.000000	56.000000
21.339439	21.716763	43.000000	28.000000
21.340368	21.549348	50.000000	28.000000
21.554337	21.728486	49.000000	28.000000
21.560935	21.740890	59.000000	45.000000
21.566377	21.752137	55.000000	84.000000
22.012636	22.436400	49.000000	28.000000
22.711003	22.832908	64.000000	1.000000
22.716491	23.122840	61.000000	1.000000
22.740232	22.850527	49.000000	1.000000
22.862795	23.112409	49.000000	1.000000
23.095153	23.582772	65.000000	1.000000
23.128622	23.372432	61.000000	28.000000
23.128872	23.326241	49.000000	1.000000
23.350073	23.797058	49.000000	28.000000
23.382205	23.585380	61.000000	45.000000
23.584609	23.816808	65.000000	28.000000
23.586740	23.818940	61.000000	28.000000
24.531910	25.211094	58.000000	56.000000
24.542704	24.954858	54.000000	65.000000
24.547058	24.976627	49.000000	28.000000
24.558055	24.703180	42.000000	1.000000
24.704563	25.331502	42.000000	1.000000
24.959915	25.215334	54.000000	56.000000
24.978554	25.204949	49.000000	28.000000
25.209212	25.400776	49.000000	45.000000
25.216128	25.407693	58.000000	79.000000
25.218645	25.416015	54.000000	89.000000
25.657307	26.249416	47.000000	45.000000
25.671003	26.071547	54.000000	56.000000
26.343452	26.993611	66.000000	28.000000
26.358441	27.043429	62.000000	1.000000
26.375606	27.002545	59.000000	45.000000
26.379234	26.443089	47.000000	1.000000
26.384654	26.489144	54.000000	56.000000
26.516627	26.673361	54.000000	45.000000
26.530096	27.006105	47.000000	28.000000
26.830005	26.992545	54.000000	28.000000
27.010436	27.172976	47.000000	45.000000
27.012795	27.157919	54.000000	56.000000
27.020912	27.189257	59.000000	73.000000
27.044541	27.183860	62.000000	1.000000
27.480210	28.037488	54.000000	45.000000
27.494813	28.005652	47.000000	28.000000
28.158350	28.860754	66.000000	28.000000
28.162659	28.592228	59.000000	45.000000
28.179869	28.365629	54.000000	45.000000
28.185674	28.847443	62.000000	1.000000
28.212024	28.815742	47.000000	28.000000
28.371366	28.603566	54.000000	28.000000
28.596015	28.839824	59.000000	28.000000
28.647534	28.827488	54.000000	1.000000
28.837556	29.122001	54.000000	45.000000
28.838600	29.123044	47.000000	45.000000
28.849983	29.082182	59.000000	56.000000
28.868962	29.060527	62.000000	1.000000
28.878101	29.075470	66.000000	45.000000
29.061978	29.306400	62.000000	1.000000
29.082727	29.306400	59.000000	28.000000
29.098600	29.306400	66.000000	28.000000
29.125425	29.306400	54.000000	28.000000
29.126604	29.306400	47.000000	28.000000
