# onset,offset,note,velocity
0.010020	0.166755	63.000000	32.000000
0.010020	0.155145	59.000000	32.000000
0.010587	0.161517	68.000000	1.000000
0.247027	0.467616	59.000000	32.000000
0.260088	0.480678	63.000000	1.000000
0.275122	0.472492	68.000000	1.000000
0.547866	0.861335	63.000000	1.000000
0.646936	0.873331	68.000000	32.000000
0.676392	0.862151	59.000000	1.000000
1.066959	1.188863	59.000000	74.000000
1.068954	1.185054	63.000000	64.000000
1.704986	1.838501	68.000000	50.000000
1.717322	1.827616	63.000000	32.000000
1.720088	1.830383	59.000000	32.000000
1.831902	2.000247	63.000000	32.000000
1.833195	2.001539	59.000000	32.000000
1.843512	1.971222	68.000000	32.000000
1.994374	2.185938	68.000000	50.000000
2.001630	2.187390	63.000000	50.000000
2.005825	2.116120	59.000000	50.000000
2.117503	2.192968	59.000000	32.000000
2.392605	2.491290	59.000000	64.000000
2.396777	2.489657	63.000000	50.000000
2.405485	2.509975	68.000000	32.000000
2.786800	2.897095	68.000000	50.000000
2.798954	2.886029	63.000000	50.000000
2.798954	2.868614	59.000000	32.000000
3.163761	3.274056	59.000000	64.000000
3.165394	3.269884	63.000000	32.000000
3.176074	3.280564	68.000000	74.000000
3.556097	3.666392	68.000000	64.000000
3.569022	3.656097	63.000000	50.000000
3.570292	3.645757	59.000000	50.000000
3.845235	3.943920	59.000000	1.000000
3.949657	4.112197	59.000000	32.000000
3.958297	4.080201	68.000000	32.000000
3.959226	4.092741	63.000000	50.000000
4.106981	4.234691	68.000000	50.000000
4.115757	4.307322	59.000000	32.000000
4.118047	4.309612	63.000000	50.000000
4.502650	4.595530	59.000000	64.000000
4.503376	4.602061	63.000000	32.000000
4.513331	4.600405	67.000000	50.000000
4.773263	4.929997	59.000000	1.000000
4.782424	4.921743	68.000000	50.000000
4.784170	4.906074	63.000000	50.000000
4.922401	5.021086	68.000000	50.000000
4.934306	5.009771	63.000000	32.000000
4.937911	5.001766	59.000000	32.000000
5.279385	5.389680	59.000000	50.000000
5.282492	5.386981	63.000000	50.000000
5.294102	5.375371	68.000000	32.000000
5.659907	5.805031	68.000000	64.000000
5.671630	5.793535	63.000000	50.000000
5.675576	5.774260	59.000000	50.000000
5.924215	6.075145	68.000000	1.000000
6.047049	6.174759	59.000000	50.000000
6.062650	6.196165	63.000000	50.000000
6.076528	6.181018	68.000000	32.000000
6.178319	6.375689	59.000000	50.000000
6.186755	6.389929	68.000000	50.000000
6.200428	6.380383	63.000000	50.000000
6.578795	6.677480	59.000000	50.000000
6.581675	6.674555	63.000000	1.000000
6.593807	6.675077	68.000000	50.000000
6.848047	6.987367	63.000000	32.000000
6.849612	6.959907	68.000000	64.000000
6.977254	7.081743	68.000000	64.000000
6.984827	7.054487	59.000000	32.000000
6.988024	7.075099	63.000000	32.000000
7.352560	7.462854	59.000000	50.000000
7.356823	7.461312	63.000000	50.000000
7.365349	7.452424	68.000000	32.000000
7.749612	7.842492	68.000000	50.000000
7.757866	7.955235	63.000000	32.000000
7.847503	7.969408	68.000000	32.000000
8.148002	8.293127	68.000000	32.000000
8.158455	8.286165	73.000000	1.000000
8.288274	8.439204	73.000000	1.000000
8.297412	8.430927	68.000000	32.000000
8.299158	8.415258	64.000000	1.000000
8.418818	8.558138	64.000000	32.000000
8.432310	8.600655	68.000000	64.000000
8.440587	8.545077	73.000000	32.000000
8.685371	8.801471	64.000000	50.000000
8.685916	8.796210	68.000000	32.000000
8.693898	8.868047	73.000000	1.000000
8.952990	9.115530	64.000000	32.000000
8.958070	9.114805	68.000000	64.000000
8.966505	9.105825	73.000000	32.000000
9.108659	9.230564	73.000000	32.000000
9.116188	9.272922	68.000000	50.000000
9.116913	9.180768	64.000000	32.000000
9.485530	9.607435	64.000000	50.000000
9.486981	9.585666	68.000000	32.000000
9.748478	9.887798	73.000000	1.000000
9.888455	10.010360	73.000000	32.000000
9.896256	9.977526	68.000000	64.000000
9.899136	9.968795	64.000000	32.000000
10.279907	10.430836	61.000000	32.000000
10.282990	10.433920	56.000000	74.000000
10.292242	10.425757	65.000000	32.000000
10.429317	10.533807	65.000000	32.000000
10.435122	10.522197	61.000000	32.000000
10.439634	10.509294	56.000000	50.000000
10.808637	10.994396	56.000000	95.000000
10.809000	10.925099	61.000000	32.000000
10.814805	10.913489	65.000000	1.000000
11.068841	11.219771	61.000000	32.000000
11.071471	11.222401	56.000000	89.000000
11.221154	11.308229	61.000000	1.000000
11.224487	11.392832	56.000000	74.000000
11.591222	11.765371	68.000000	50.000000
11.601380	11.700065	73.000000	32.000000
11.975462	12.091562	73.000000	32.000000
11.983784	12.076664	68.000000	50.000000
12.246981	12.374691	73.000000	32.000000
12.256074	12.377979	68.000000	1.000000
12.378954	12.506664	73.000000	32.000000
12.380088	12.490383	68.000000	64.000000
12.529816	12.628501	73.000000	1.000000
12.926369	13.007639	63.000000	32.000000
12.939158	13.032038	68.000000	32.000000
13.321947	13.432242	68.000000	64.000000
13.327571	13.420451	63.000000	32.000000
13.705507	13.844827	59.000000	74.000000
13.708093	13.812582	63.000000	32.000000
13.715576	13.843285	68.000000	64.000000
13.846120	13.956415	68.000000	50.000000
13.846936	13.957231	59.000000	50.000000
13.854600	13.959090	63.000000	50.000000
13.961517	14.176301	59.000000	50.000000
13.962650	14.171630	63.000000	32.000000
13.976664	14.063739	68.000000	32.000000
14.480043	14.578727	59.000000	64.000000
14.487730	14.580610	63.000000	32.000000
14.496913	14.578183	68.000000	50.000000
14.878115	15.104510	68.000000	50.000000
14.892922	15.009022	63.000000	50.000000
14.904396	15.008886	59.000000	32.000000
15.010972	15.132877	59.000000	50.000000
15.013308	15.141018	63.000000	32.000000
15.130541	15.206006	68.000000	50.000000
15.143852	15.318002	63.000000	50.000000
15.156732	15.325077	59.000000	50.000000
15.209566	15.418546	68.000000	50.000000
15.515961	15.608841	59.000000	50.000000
15.524079	15.611154	63.000000	1.000000
15.537866	15.607526	67.000000	1.000000
15.789022	15.899317	59.000000	50.000000
15.791176	15.901471	63.000000	50.000000
15.799158	15.880428	68.000000	50.000000
16.179702	16.307412	68.000000	64.000000
16.189725	16.369680	63.000000	50.000000
16.199657	16.368002	59.000000	50.000000
16.439158	16.578478	68.000000	50.000000
16.452650	16.574555	63.000000	50.000000
16.463966	16.568455	59.000000	50.000000
16.571290	16.681585	59.000000	32.000000
16.575938	16.680428	63.000000	32.000000
16.579136	16.683625	68.000000	32.000000
16.849907	17.029861	58.000000	82.000000
16.853263	17.033217	63.000000	50.000000
16.869385	17.037730	67.000000	50.000000
17.121244	17.301199	63.000000	50.000000
17.123671	17.315235	58.000000	89.000000
17.139068	17.313217	67.000000	32.000000
17.532378	17.729748	58.000000	64.000000
17.912424	18.011108	63.000000	50.000000
17.915326	18.025621	58.000000	100.000000
18.562015	18.707140	67.000000	64.000000
18.569566	18.708886	63.000000	50.000000
18.576913	18.698818	58.000000	74.000000
18.700927	18.857662	58.000000	50.000000
18.709544	18.825644	63.000000	64.000000
18.712854	18.846369	67.000000	64.000000
18.829929	19.009884	63.000000	50.000000
18.847752	19.045122	67.000000	74.000000
18.859022	18.951902	58.000000	50.000000
18.961993	19.066483	57.000000	64.000000
19.247163	19.345848	61.000000	32.000000
19.247163	19.369068	56.000000	95.000000
19.255689	19.331154	65.000000	32.000000
19.627208	19.749113	65.000000	32.000000
19.639068	19.749362	61.000000	32.000000
19.644079	19.748569	56.000000	89.000000
20.017979	20.209544	56.000000	82.000000
20.027208	20.137503	61.000000	50.000000
20.029204	20.104668	65.000000	50.000000
20.403467	20.536981	65.000000	50.000000
20.415621	20.525916	61.000000	32.000000
20.420700	20.583240	56.000000	74.000000
20.662514	20.796029	65.000000	32.000000
20.670360	20.774850	61.000000	32.000000
20.677843	20.782333	56.000000	64.000000
20.790972	20.883852	56.000000	82.000000
20.794374	20.881449	60.000000	1.000000
20.798863	20.891743	65.000000	1.000000
20.941585	21.057684	55.000000	64.000000
21.059430	21.210360	56.000000	82.000000
21.061970	21.218705	60.000000	32.000000
21.076981	21.204691	63.000000	1.000000
21.322764	21.473693	60.000000	64.000000
21.334714	21.479839	63.000000	1.000000
21.733444	21.855349	68.000000	50.000000
21.765099	21.881199	63.000000	50.000000
21.767911	21.924646	60.000000	32.000000
22.146483	22.256777	63.000000	50.000000
22.155190	22.236460	68.000000	50.000000
22.536528	22.635213	68.000000	64.000000
22.546868	22.628138	63.000000	50.000000
22.785349	22.895644	63.000000	1.000000
22.907911	23.053036	63.000000	32.000000
22.910315	23.020610	68.000000	64.000000
23.047390	23.169294	68.000000	50.000000
23.054419	23.245984	63.000000	50.000000
23.436959	23.512424	63.000000	32.000000
23.441131	23.534011	68.000000	64.000000
23.700428	23.851358	63.000000	50.000000
23.706755	23.811244	68.000000	50.000000
23.848161	23.975870	68.000000	64.000000
23.852015	23.962310	63.000000	64.000000
24.224986	24.317866	63.000000	32.000000
24.230791	24.329476	68.000000	64.000000
24.482650	24.610360	68.000000	32.000000
24.612469	24.798229	68.000000	64.000000
24.621358	24.720043	63.000000	50.000000
24.879022	24.995122	68.000000	64.000000
24.995054	25.122764	63.000000	50.000000
24.995780	25.135099	68.000000	50.000000
25.143013	25.258400	63.000000	64.000000
25.154238	25.258400	56.000000	64.000000
