# onset,offset,note,velocity
0.023059	0.191404	64.000000	39.000000
0.036846	0.181971	67.000000	78.000000
0.042651	0.164556	72.000000	1.000000
0.308660	0.529250	64.000000	1.000000
0.311585	0.508955	67.000000	39.000000
0.322311	0.519681	72.000000	1.000000
0.787708	0.973468	72.000000	1.000000
0.791563	0.925078	67.000000	78.000000
0.796279	0.982039	64.000000	1.000000
1.225531	1.388071	64.000000	62.000000
1.229363	1.362878	67.000000	90.000000
1.367889	1.507209	67.000000	62.000000
1.391631	1.519341	64.000000	39.000000
1.525078	1.716642	64.000000	1.000000
1.529635	1.692175	67.000000	39.000000
1.699567	1.815667	72.000000	1.000000
1.712424	1.822719	67.000000	90.000000
1.717300	1.903059	64.000000	39.000000
2.143830	2.265735	64.000000	39.000000
2.148116	2.264216	67.000000	100.000000
2.156824	2.261313	72.000000	1.000000
2.759159	2.915894	64.000000	62.000000
2.770134	2.880429	67.000000	90.000000
2.770769	2.875259	72.000000	1.000000
3.070066	3.238411	64.000000	62.000000
3.083195	3.216710	67.000000	78.000000
3.087368	3.191858	72.000000	1.000000
3.219545	3.451744	67.000000	78.000000
3.235304	3.479114	72.000000	1.000000
3.244148	3.476347	64.000000	62.000000
3.703762	4.023037	64.000000	62.000000
3.717300	3.856620	67.000000	62.000000
3.723830	3.857345	72.000000	1.000000
3.862356	4.007481	67.000000	39.000000
3.881223	4.026347	72.000000	1.000000
4.023173	4.226347	64.000000	39.000000
4.024102	4.204057	67.000000	62.000000
4.039341	4.213490	72.000000	1.000000
4.216325	4.349839	72.000000	39.000000
4.227209	4.436189	67.000000	90.000000
4.228456	4.414216	64.000000	39.000000
4.646415	4.803150	64.000000	39.000000
4.661631	4.783536	67.000000	90.000000
4.671699	4.776189	72.000000	1.000000
5.279068	5.412583	64.000000	62.000000
5.283558	5.393853	67.000000	78.000000
5.289363	5.388048	72.000000	1.000000
5.734307	5.931676	72.000000	1.000000
5.740746	5.862651	67.000000	78.000000
5.744737	5.918887	64.000000	39.000000
6.170656	6.315780	67.000000	90.000000
6.171699	6.461948	64.000000	78.000000
6.182175	6.315690	72.000000	1.000000
6.318615	6.463740	67.000000	62.000000
6.343195	6.459295	72.000000	1.000000
6.466529	6.663898	64.000000	39.000000
6.469454	6.661019	67.000000	39.000000
6.484624	6.623944	72.000000	1.000000
6.651449	6.866234	72.000000	39.000000
6.662402	6.784307	67.000000	78.000000
6.665282	6.839431	64.000000	39.000000
6.976053	7.074737	64.000000	1.000000
7.100066	7.268411	64.000000	39.000000
7.111381	7.204261	72.000000	1.000000
7.586914	7.720429	72.000000	39.000000
7.595622	7.700112	67.000000	78.000000
7.597209	7.724919	64.000000	39.000000
8.036733	8.199273	64.000000	62.000000
8.043989	8.165894	67.000000	100.000000
8.047912	8.164012	72.000000	39.000000
8.832833	9.047617	72.000000	39.000000
8.838683	8.966393	67.000000	100.000000
8.842606	9.034171	64.000000	62.000000
9.282198	9.427322	64.000000	78.000000
9.289545	9.411449	67.000000	90.000000
9.294375	9.410474	72.000000	39.000000
9.595191	9.775146	64.000000	39.000000
9.598434	9.749363	67.000000	62.000000
9.602424	9.730134	72.000000	1.000000
9.761994	9.930338	72.000000	1.000000
9.775780	9.903490	64.000000	39.000000
9.776121	9.915440	67.000000	39.000000
9.917935	10.063059	65.000000	1.000000
9.921404	10.066529	60.000000	39.000000
9.931336	10.059046	69.000000	1.000000
10.209182	10.348502	60.000000	39.000000
10.209862	10.343377	65.000000	39.000000
10.217141	10.339046	69.000000	62.000000
10.702833	10.824737	69.000000	62.000000
10.709885	10.820180	65.000000	39.000000
10.712629	10.817118	60.000000	1.000000
11.140474	11.436529	60.000000	39.000000
11.146960	11.315304	65.000000	62.000000
11.149862	11.289182	69.000000	39.000000
11.289817	11.458161	69.000000	39.000000
11.315962	11.443672	65.000000	39.000000
11.437617	11.634987	60.000000	39.000000
11.449409	11.635168	65.000000	1.000000
11.458819	11.621359	69.000000	39.000000
11.626370	11.736665	69.000000	62.000000
11.637277	11.747572	65.000000	39.000000
11.639273	11.801812	60.000000	39.000000
11.931767	12.071087	69.000000	1.000000
12.062334	12.195849	65.000000	1.000000
12.065962	12.205282	60.000000	39.000000
12.084080	12.194375	69.000000	39.000000
12.551631	12.667731	69.000000	78.000000
12.557436	12.661926	65.000000	39.000000
12.560474	12.670769	60.000000	1.000000
12.999613	13.133127	60.000000	39.000000
13.002493	13.124397	65.000000	62.000000
13.013377	13.129477	69.000000	78.000000
13.310588	13.432493	60.000000	62.000000
13.313286	13.417776	65.000000	39.000000
13.326030	13.424715	69.000000	39.000000
13.627164	13.778093	65.000000	39.000000
13.630066	13.775191	69.000000	78.000000
14.100701	14.240021	69.000000	62.000000
14.111404	14.227504	65.000000	1.000000
14.113581	14.276121	60.000000	1.000000
14.416574	14.538479	69.000000	62.000000
14.423105	14.539205	65.000000	39.000000
14.430316	14.534805	60.000000	39.000000
14.535463	14.825712	60.000000	39.000000
14.540588	14.801812	65.000000	39.000000
14.540588	14.726347	69.000000	62.000000
14.727005	14.825690	69.000000	39.000000
14.869182	15.002697	64.000000	39.000000
14.872062	14.959137	67.000000	39.000000
15.164919	15.298434	64.000000	39.000000
15.178955	15.283445	72.000000	1.000000
15.635508	15.786438	72.000000	1.000000
15.641449	15.751744	67.000000	62.000000
15.647232	15.856211	64.000000	1.000000
16.076892	16.372946	64.000000	62.000000
16.087776	16.244511	67.000000	100.000000
16.092130	16.219839	72.000000	1.000000
16.252424	16.385939	72.000000	1.000000
16.375304	16.549454	64.000000	39.000000
16.387889	16.782629	67.000000	62.000000
16.388774	16.539703	72.000000	1.000000
16.549794	16.776189	72.000000	1.000000
16.555191	16.775780	64.000000	39.000000
17.003332	17.171676	64.000000	39.000000
17.006053	17.139567	67.000000	78.000000
17.016914	17.150429	72.000000	1.000000
17.491019	17.705803	72.000000	39.000000
17.496824	17.717413	64.000000	39.000000
17.501903	17.623808	67.000000	78.000000
17.948388	18.076098	64.000000	62.000000
17.952697	18.051381	67.000000	78.000000
17.959976	18.064465	72.000000	39.000000
18.254329	18.393649	64.000000	1.000000
18.261336	18.377436	67.000000	78.000000
18.264964	18.386869	72.000000	39.000000
18.573989	18.916483	64.000000	39.000000
18.577368	18.722493	67.000000	62.000000
18.586801	18.708706	72.000000	39.000000
18.736211	18.863921	72.000000	39.000000
18.744193	18.848683	67.000000	62.000000
19.026098	19.177028	72.000000	1.000000
19.036257	19.134941	67.000000	62.000000
19.345599	19.490724	72.000000	1.000000
19.350837	19.554012	67.000000	62.000000
19.796529	19.930044	62.000000	1.000000
19.801540	19.923445	67.000000	90.000000
19.812424	19.928524	71.000000	1.000000
20.113966	20.247481	62.000000	1.000000
20.118298	20.246007	71.000000	1.000000
20.118298	20.246007	67.000000	78.000000
20.605463	20.733173	71.000000	39.000000
20.610361	20.714851	67.000000	78.000000
20.613400	20.706279	62.000000	1.000000
21.044556	21.172266	62.000000	39.000000
21.046007	21.173717	67.000000	78.000000
21.053241	21.175146	71.000000	1.000000
21.508479	21.647799	71.000000	39.000000
21.515712	21.637617	62.000000	1.000000
21.518615	21.634715	67.000000	62.000000
21.812923	21.969658	71.000000	1.000000
21.820678	21.959998	62.000000	1.000000
21.822334	21.932629	67.000000	39.000000
21.962107	22.194307	62.000000	1.000000
21.970316	22.103830	71.000000	39.000000
21.976824	22.110338	67.000000	62.000000
22.290429	22.429749	64.000000	39.000000
22.292583	22.426098	68.000000	39.000000
22.586892	22.737821	60.000000	39.000000
22.599250	22.726960	65.000000	62.000000
22.603581	22.725486	69.000000	78.000000
23.053581	23.198706	69.000000	78.000000
23.063173	23.190883	65.000000	39.000000
23.069431	23.231971	60.000000	1.000000
23.492833	23.637957	60.000000	62.000000
23.493558	23.632878	65.000000	39.000000
23.503694	23.631404	69.000000	39.000000
23.812493	23.951812	69.000000	39.000000
23.977867	24.070746	69.000000	39.000000
24.116393	24.255712	69.000000	39.000000
24.283672	24.405576	65.000000	1.000000
24.283944	24.417459	69.000000	39.000000
24.418116	24.569046	69.000000	62.000000
24.422923	24.602878	65.000000	39.000000
24.574783	24.795372	69.000000	62.000000
24.606438	24.786393	65.000000	1.000000
24.918229	25.057549	64.000000	1.000000
25.059658	25.204783	64.000000	39.000000
25.060542	25.194057	67.000000	90.000000
25.069250	25.185350	72.000000	1.000000
25.533762	25.661472	72.000000	39.000000
25.543173	25.659273	67.000000	78.000000
25.546551	25.772946	64.000000	39.000000
25.983332	26.494171	64.000000	62.000000
25.992583	26.137708	67.000000	78.000000
25.998388	26.120293	72.000000	1.000000
26.141268	26.477957	67.000000	62.000000
26.162311	26.307436	72.000000	1.000000
26.310996	26.473536	72.000000	1.000000
26.493785	26.592470	72.000000	39.000000
26.497799	26.689363	67.000000	90.000000
26.498298	26.695667	64.000000	39.000000
26.916234	27.078774	64.000000	39.000000
26.918819	27.052334	67.000000	100.000000
26.928207	27.050112	72.000000	1.000000
27.387821	27.596801	72.000000	39.000000
27.395826	27.511926	67.000000	78.000000
27.399318	27.608298	64.000000	39.000000
27.830724	28.010678	64.000000	39.000000
27.843762	27.983082	67.000000	90.000000
27.845214	27.967118	72.000000	1.000000
27.985191	28.136121	67.000000	62.000000
28.003332	28.142651	72.000000	1.000000
28.014239	28.136143	64.000000	39.000000
28.140384	28.314533	67.000000	62.000000
28.141155	28.315304	64.000000	1.000000
28.146914	28.286234	72.000000	1.000000
28.307935	28.441449	72.000000	39.000000
28.315191	28.512561	67.000000	78.000000
28.315962	28.495917	64.000000	39.000000
28.618298	28.728592	64.000000	1.000000
28.753195	28.886710	64.000000	39.000000
28.761994	28.872288	67.000000	78.000000
28.770701	28.875191	72.000000	1.000000
29.068615	29.242765	64.000000	39.000000
29.234624	29.385554	72.000000	39.000000
29.241744	29.375259	67.000000	62.000000
29.244873	29.384193	64.000000	39.000000
29.380996	29.543536	67.000000	62.000000
29.386937	29.514647	72.000000	1.000000
29.387731	29.550270	64.000000	39.000000
29.547821	29.688400	67.000000	62.000000
29.556007	29.688400	64.000000	39.000000
