# onset,offset,note,velocity
0.007003	0.413352	60.000000	36.000000
0.414123	0.559248	60.000000	72.000000
0.416844	0.561969	64.000000	57.000000
0.433647	0.567162	67.000000	72.000000
0.830223	1.085643	60.000000	57.000000
1.094214	1.581833	60.000000	36.000000
1.236708	1.410858	64.000000	72.000000
1.238999	1.407343	67.000000	83.000000
1.629543	2.006867	59.000000	57.000000
2.009679	2.172219	59.000000	36.000000
2.014373	2.165302	62.000000	57.000000
2.025144	2.187683	67.000000	72.000000
2.415076	2.629860	59.000000	36.000000
2.825439	2.987978	62.000000	36.000000
2.843579	2.942264	67.000000	93.000000
2.942922	3.198341	59.000000	1.000000
3.216073	3.721107	57.000000	72.000000
3.582400	3.756550	60.000000	72.000000
3.599361	3.756096	64.000000	57.000000
3.995416	4.262445	57.000000	36.000000
4.290359	4.493534	57.000000	57.000000
4.426368	4.635348	60.000000	72.000000
4.440268	4.614418	64.000000	36.000000
4.764033	4.891742	67.000000	36.000000
4.832876	5.361130	59.000000	36.000000
5.222060	5.396210	64.000000	72.000000
5.223511	5.386051	67.000000	83.000000
6.010654	6.173194	67.000000	72.000000
6.011629	6.203194	64.000000	72.000000
6.402105	6.791039	65.000000	1.000000
6.404713	6.921357	60.000000	57.000000
6.804146	6.920246	65.000000	57.000000
6.810677	6.967411	69.000000	57.000000
7.203420	7.447230	60.000000	57.000000
7.224645	7.572944	65.000000	1.000000
7.456958	7.811062	60.000000	36.000000
7.604305	7.807479	65.000000	57.000000
7.619656	7.828636	69.000000	72.000000
8.021176	8.404305	64.000000	1.000000
8.027706	8.405030	60.000000	36.000000
8.405801	8.550926	60.000000	57.000000
8.408477	8.565212	64.000000	72.000000
8.419815	8.564940	67.000000	72.000000
8.819044	9.074463	60.000000	36.000000
9.078409	9.391878	60.000000	36.000000
9.195915	9.393284	64.000000	72.000000
9.203171	9.400541	67.000000	72.000000
9.599747	9.704237	65.000000	1.000000
9.611856	10.157525	60.000000	57.000000
9.996686	10.153420	65.000000	57.000000
10.007683	10.147003	69.000000	57.000000
10.419384	10.663194	60.000000	36.000000
10.664577	10.809702	60.000000	36.000000
10.811085	10.932990	60.000000	36.000000
10.813647	10.941357	65.000000	36.000000
10.829611	10.963126	69.000000	72.000000
11.054486	11.188001	59.000000	1.000000
11.224418	11.578522	59.000000	72.000000
11.581652	11.755801	59.000000	100.000000
11.582491	11.762445	62.000000	36.000000
11.599180	11.779135	67.000000	72.000000
12.008590	12.264010	59.000000	36.000000
12.266436	12.399951	59.000000	36.000000
12.403511	12.687956	59.000000	83.000000
12.412423	12.621402	62.000000	36.000000
12.427774	12.526459	67.000000	93.000000
12.527820	12.591674	66.000000	57.000000
12.822967	13.194486	60.000000	36.000000
13.197593	13.354327	60.000000	57.000000
13.202309	13.359044	64.000000	57.000000
13.211856	13.362785	67.000000	72.000000
13.620790	13.864600	60.000000	36.000000
13.870064	13.986164	60.000000	36.000000
13.991901	14.404055	60.000000	57.000000
13.998114	14.294169	64.000000	72.000000
14.017094	14.295733	67.000000	93.000000
14.419339	14.935983	59.000000	36.000000
14.785937	14.936867	67.000000	36.000000
14.788001	14.944736	62.000000	57.000000
15.206459	15.380609	62.000000	1.000000
15.207751	15.376096	59.000000	72.000000
15.456640	15.833965	59.000000	1.000000
15.606414	15.792173	67.000000	72.000000
15.612944	15.804509	62.000000	57.000000
16.016051	16.567525	57.000000	57.000000
16.396300	16.564645	60.000000	72.000000
16.400042	16.562581	64.000000	36.000000
16.821176	17.035960	57.000000	57.000000
17.058863	17.198182	57.000000	72.000000
17.201017	17.346141	57.000000	93.000000
17.206754	17.392513	60.000000	72.000000
17.227910	17.396255	64.000000	36.000000
17.604872	18.104101	59.000000	72.000000
17.985643	18.107547	64.000000	36.000000
18.005461	18.121561	67.000000	72.000000
18.402627	18.536141	64.000000	1.000000
18.415008	18.647207	59.000000	57.000000
18.651969	18.768069	64.000000	1.000000
18.656300	18.778205	59.000000	1.000000
18.782468	18.956618	59.000000	57.000000
18.788296	18.962445	64.000000	57.000000
18.804055	18.949180	67.000000	72.000000
19.192536	19.297026	65.000000	1.000000
19.208522	19.580042	60.000000	36.000000
19.583103	19.728228	60.000000	57.000000
19.586754	19.726073	65.000000	36.000000
19.601992	19.747117	69.000000	57.000000
19.977343	20.174713	65.000000	1.000000
19.987502	20.179067	60.000000	36.000000
20.396164	20.570314	60.000000	57.000000
20.402808	20.559543	65.000000	57.000000
20.425416	20.593761	69.000000	83.000000
20.800835	20.905325	64.000000	1.000000
20.813058	21.341312	60.000000	36.000000
21.179747	21.382922	67.000000	72.000000
21.181720	21.355869	64.000000	57.000000
21.189293	21.351833	72.000000	1.000000
21.575484	21.732219	64.000000	1.000000
21.584804	22.014373	60.000000	36.000000
21.855076	22.000200	72.000000	1.000000
21.870132	21.992037	67.000000	57.000000
21.876618	21.981107	64.000000	1.000000
22.221516	22.418885	67.000000	72.000000
22.228046	22.390586	64.000000	36.000000
22.255348	22.383058	60.000000	36.000000
22.393874	22.933738	60.000000	57.000000
22.418092	22.946346	65.000000	36.000000
22.803420	22.971765	69.000000	57.000000
23.237615	23.417570	65.000000	1.000000
23.460314	23.738953	65.000000	57.000000
23.617207	23.721697	68.000000	57.000000
23.871833	23.941493	59.000000	1.000000
24.029906	24.146005	62.000000	1.000000
24.040677	24.528296	59.000000	57.000000
24.396255	24.529770	62.000000	36.000000
24.404350	24.549475	67.000000	72.000000
24.798749	24.984509	62.000000	1.000000
24.807343	24.998908	59.000000	57.000000
25.058092	25.121946	62.000000	1.000000
25.198341	25.389906	59.000000	57.000000
25.207457	25.387411	67.000000	57.000000
25.214758	25.383103	62.000000	36.000000
25.488840	25.600000	67.000000	57.000000
25.503171	25.600000	62.000000	1.000000
25.512083	25.600000	59.000000	1.000000
