# onset,offset,note,velocity
0.006590	0.401330	45.000000	82.000000
0.008042	0.484051	57.000000	29.000000
0.008110	0.211284	61.000000	1.000000
0.011103	0.475502	52.000000	58.000000
0.479289	0.688268	52.000000	46.000000
0.483416	0.680785	45.000000	87.000000
0.487271	0.713665	57.000000	58.000000
0.501783	0.710763	61.000000	1.000000
0.680808	0.889788	45.000000	58.000000
0.891987	1.124187	45.000000	68.000000
1.143801	1.376001	45.000000	75.000000
1.151783	1.383983	52.000000	46.000000
1.179946	1.429561	57.000000	46.000000
1.397067	1.518971	45.000000	58.000000
1.620581	2.114005	45.000000	82.000000
1.637112	2.101511	52.000000	46.000000
1.658019	2.116613	57.000000	46.000000
2.318903	2.551103	45.000000	92.000000
2.321080	2.553280	52.000000	46.000000
2.341239	2.608268	57.000000	68.000000
2.349606	2.570196	61.000000	1.000000
2.561806	2.759176	45.000000	68.000000
2.759198	2.991398	45.000000	82.000000
2.992872	3.097361	45.000000	82.000000
3.002940	3.252554	52.000000	46.000000
3.024708	3.285933	57.000000	68.000000
3.033416	3.259810	61.000000	1.000000
3.237407	3.469606	45.000000	68.000000
3.472532	3.948541	45.000000	82.000000
3.473892	4.158881	52.000000	46.000000
3.495525	3.977339	57.000000	68.000000
3.502781	4.187770	61.000000	1.000000
4.159901	4.432736	52.000000	58.000000
4.161216	4.381806	45.000000	87.000000
4.182395	4.472645	57.000000	29.000000
4.189742	4.404527	61.000000	1.000000
4.382554	4.614754	45.000000	75.000000
4.619130	4.839720	45.000000	58.000000
4.860060	5.022600	45.000000	92.000000
4.880219	5.118223	52.000000	46.000000
4.886749	5.188609	57.000000	46.000000
4.896182	5.192237	61.000000	29.000000
4.907520	5.145525	64.000000	29.000000
5.106795	5.205479	45.000000	58.000000
5.350400	5.437475	45.000000	87.000000
5.361194	5.854618	52.000000	46.000000
5.381375	5.863189	57.000000	46.000000
6.050105	6.253280	45.000000	68.000000
6.051398	6.266182	52.000000	46.000000
6.066795	6.322214	57.000000	58.000000
6.077679	6.350513	61.000000	1.000000
6.264096	6.473076	45.000000	68.000000
6.473257	6.693847	45.000000	82.000000
6.695956	6.910740	45.000000	97.000000
6.701761	6.992010	52.000000	46.000000
6.717067	6.972486	57.000000	58.000000
6.912305	7.127089	45.000000	87.000000
7.125661	7.386885	50.000000	1.000000
7.127112	7.388337	45.000000	82.000000
7.397792	7.920241	45.000000	82.000000
7.399380	7.846364	50.000000	46.000000
7.411715	7.852894	57.000000	87.000000
7.850015	8.082214	50.000000	29.000000
7.855683	8.128518	57.000000	46.000000
7.881806	8.114005	62.000000	1.000000
8.086477	8.196772	50.000000	1.000000
8.098087	8.283847	45.000000	68.000000
8.305638	8.775842	45.000000	75.000000
8.309992	8.547996	50.000000	1.000000
8.558087	8.796092	50.000000	46.000000
8.562373	8.823597	57.000000	75.000000
8.577475	8.803869	62.000000	29.000000
8.787475	9.008064	45.000000	58.000000
9.011715	9.452894	45.000000	82.000000
9.018586	9.465570	50.000000	29.000000
9.032373	9.705751	57.000000	68.000000
9.040445	9.487429	62.000000	29.000000
9.452940	9.644504	45.000000	68.000000
9.707135	9.921919	57.000000	46.000000
9.708586	9.952395	50.000000	29.000000
9.729470	10.008110	62.000000	1.000000
9.934073	10.172078	45.000000	68.000000
10.146795	10.616999	50.000000	29.000000
10.154618	10.381012	57.000000	46.000000
10.381670	10.613869	57.000000	68.000000
10.394890	10.627089	62.000000	29.000000
10.614051	10.823030	57.000000	46.000000
10.618563	10.856568	50.000000	46.000000
10.632101	10.881715	62.000000	29.000000
10.833212	11.071216	45.000000	82.000000
11.076318	11.552327	45.000000	92.000000
11.077815	11.571239	52.000000	46.000000
11.096772	11.566976	57.000000	58.000000
11.106931	11.548110	61.000000	1.000000
11.556704	11.765683	45.000000	87.000000
11.573393	11.817203	52.000000	46.000000
11.582826	11.820831	57.000000	75.000000
11.594436	11.809221	61.000000	1.000000
11.769334	11.989924	45.000000	75.000000
11.995026	12.215615	45.000000	68.000000
12.237906	12.464300	45.000000	87.000000
12.242826	12.480831	52.000000	46.000000
12.271126	12.543960	57.000000	75.000000
12.473257	12.577747	45.000000	75.000000
12.689992	13.148586	45.000000	87.000000
12.700717	13.176727	52.000000	46.000000
12.718291	13.182690	57.000000	75.000000
13.156137	13.388337	45.000000	87.000000
13.407044	13.633439	52.000000	46.000000
13.407044	13.610219	45.000000	82.000000
13.429765	13.696795	57.000000	58.000000
13.622758	13.837543	45.000000	87.000000
13.841897	14.074096	45.000000	68.000000
14.088087	14.285457	45.000000	82.000000
14.094436	14.309221	57.000000	58.000000
14.102123	14.305298	52.000000	29.000000
14.301987	14.551602	45.000000	75.000000
14.309244	14.547248	52.000000	29.000000
14.310491	14.513665	57.000000	58.000000
14.522033	14.760037	40.000000	1.000000
14.764164	15.222758	40.000000	1.000000
14.766477	15.219266	47.000000	46.000000
14.784482	15.248881	52.000000	75.000000
14.791738	15.256137	56.000000	75.000000
14.798268	15.210423	59.000000	46.000000
14.806341	15.230105	64.000000	29.000000
15.214187	15.457996	59.000000	29.000000
15.223371	15.449765	47.000000	46.000000
15.227996	15.448586	40.000000	1.000000
15.230876	15.422441	64.000000	46.000000
15.254210	15.451579	52.000000	75.000000
15.259289	15.474073	56.000000	58.000000
15.450672	15.659652	40.000000	1.000000
15.661942	15.911556	40.000000	1.000000
15.912395	16.144595	40.000000	1.000000
15.937225	16.128790	47.000000	29.000000
15.945298	16.171693	52.000000	29.000000
15.955457	16.170241	56.000000	58.000000
15.967203	16.193597	59.000000	29.000000
16.134368	16.366568	45.000000	58.000000
16.146114	16.622123	40.000000	1.000000
16.387860	16.829039	45.000000	75.000000
16.402463	16.832033	50.000000	29.000000
16.413348	16.848722	57.000000	58.000000
16.424232	16.859606	62.000000	29.000000
16.834141	17.083756	50.000000	29.000000
16.842985	17.092600	45.000000	75.000000
17.086999	17.295978	50.000000	46.000000
17.102395	17.293960	57.000000	58.000000
17.113847	17.317021	62.000000	29.000000
17.296908	17.523302	50.000000	29.000000
17.537067	18.222055	50.000000	46.000000
17.550128	17.764912	57.000000	29.000000
17.772826	17.981806	57.000000	1.000000
18.007135	18.239334	57.000000	46.000000
18.013824	18.269244	62.000000	29.000000
18.226522	18.458722	50.000000	1.000000
18.246273	18.437838	45.000000	58.000000
18.462441	18.903620	45.000000	87.000000
18.480513	18.933302	52.000000	58.000000
18.493484	18.946273	57.000000	75.000000
18.503484	18.718268	61.000000	1.000000
18.926613	19.129788	45.000000	97.000000
18.938427	19.153212	52.000000	46.000000
18.949312	19.169901	57.000000	68.000000
18.955729	19.182123	61.000000	1.000000
19.139878	19.348858	45.000000	87.000000
19.348949	19.615978	45.000000	75.000000
19.619357	19.834141	45.000000	87.000000
19.630967	19.857361	52.000000	29.000000
19.644618	19.894232	57.000000	75.000000
19.649107	19.875502	61.000000	1.000000
19.837702	20.069901	45.000000	68.000000
20.080876	20.539470	45.000000	75.000000
20.096840	20.538019	52.000000	46.000000
20.109765	20.812169	57.000000	58.000000
20.110491	20.551670	61.000000	1.000000
20.551556	20.777951	45.000000	82.000000
20.789493	21.004278	45.000000	100.000000
20.801080	21.010060	52.000000	46.000000
20.813280	21.010649	57.000000	46.000000
20.819946	21.023121	61.000000	1.000000
21.004504	21.225094	45.000000	68.000000
21.230105	21.433280	45.000000	92.000000
21.242917	21.451897	52.000000	46.000000
21.254618	21.521647	57.000000	58.000000
21.266953	21.475933	61.000000	29.000000
21.436409	21.668609	45.000000	75.000000
21.676885	21.909085	45.000000	92.000000
21.690060	21.916454	52.000000	46.000000
21.700219	21.938223	57.000000	82.000000
21.709742	21.953552	61.000000	29.000000
21.914776	22.147200	45.000000	82.000000
21.932781	22.147200	52.000000	46.000000
21.942940	22.147200	57.000000	68.000000
21.958019	22.147200	61.000000	1.000000
