# onset,offset,note,velocity
0.017657	0.464641	46.000000	85.000000
0.271444	0.735843	58.000000	100.000000
0.506614	0.971013	46.000000	70.000000
0.734596	2.174233	62.000000	31.000000
0.740356	1.210560	58.000000	70.000000
0.999789	1.458383	46.000000	61.000000
1.233077	1.685866	58.000000	70.000000
1.500786	1.965185	46.000000	70.000000
1.706795	2.188610	58.000000	91.000000
1.994823	2.714641	46.000000	70.000000
2.188088	2.774392	62.000000	48.000000
2.193303	2.744777	58.000000	85.000000
2.925571	3.355140	41.000000	31.000000
2.942124	3.365888	48.000000	31.000000
3.149607	3.631421	57.000000	61.000000
3.359970	4.323598	41.000000	31.000000
3.366387	4.330015	48.000000	31.000000
3.627113	4.074097	60.000000	61.000000
3.634959	4.105163	53.000000	48.000000
3.635934	4.071308	57.000000	78.000000
4.075639	5.010242	60.000000	61.000000
4.077045	4.558859	57.000000	48.000000
4.106093	4.831716	53.000000	61.000000
4.344415	4.797204	41.000000	31.000000
4.349358	4.813757	48.000000	31.000000
4.586863	5.022238	57.000000	70.000000
4.807113	5.695276	41.000000	31.000000
4.816546	5.060356	48.000000	48.000000
5.019970	5.629494	60.000000	70.000000
5.026614	5.450378	57.000000	85.000000
5.043644	5.444188	53.000000	48.000000
5.449426	5.646795	53.000000	61.000000
5.451512	5.660492	57.000000	70.000000
5.648655	5.909879	55.000000	100.000000
5.735095	6.245934	43.000000	78.000000
5.742260	6.253099	50.000000	31.000000
5.989154	6.482578	58.000000	85.000000
5.996705	6.977748	55.000000	96.000000
6.249721	7.190129	43.000000	70.000000
6.256932	6.680696	50.000000	48.000000
6.476229	8.281580	67.000000	70.000000
6.482963	6.947362	58.000000	78.000000
6.499312	6.946297	62.000000	61.000000
6.683757	7.188791	50.000000	31.000000
6.946319	7.892532	62.000000	31.000000
6.948610	7.413009	58.000000	70.000000
6.977952	7.419131	55.000000	70.000000
7.190628	7.637612	43.000000	48.000000
7.193530	7.669539	50.000000	31.000000
7.433077	7.909086	58.000000	85.000000
7.438292	7.885276	55.000000	85.000000
7.668564	8.336138	43.000000	61.000000
7.670265	8.326229	50.000000	31.000000
7.902328	8.343507	62.000000	61.000000
7.908020	8.267929	55.000000	48.000000
7.910514	8.328473	58.000000	78.000000
8.364006	8.474301	55.000000	48.000000
8.643439	9.084619	48.000000	61.000000
8.885616	9.042351	60.000000	31.000000
9.087430	10.010424	50.000000	61.000000
9.128337	9.395367	57.000000	70.000000
9.139018	9.382827	62.000000	31.000000
9.390356	9.825730	65.000000	61.000000
9.397634	10.030378	57.000000	1.000000
9.398496	9.799040	62.000000	31.000000
9.802011	10.266410	62.000000	70.000000
9.827793	10.245752	65.000000	48.000000
10.036614	10.460378	50.000000	70.000000
10.046886	11.161444	57.000000	48.000000
10.266274	11.433077	65.000000	61.000000
10.271489	10.695254	62.000000	61.000000
10.504936	11.358269	50.000000	61.000000
10.717634	11.135594	62.000000	48.000000
11.155390	11.381784	62.000000	48.000000
11.163099	11.377884	57.000000	31.000000
11.400650	11.888269	51.000000	70.000000
11.673054	12.154868	63.000000	78.000000
11.917249	12.817022	51.000000	61.000000
11.920446	12.129426	58.000000	1.000000
12.134891	13.597748	67.000000	91.000000
12.157362	12.598541	63.000000	48.000000
12.626886	13.079675	63.000000	85.000000
12.638950	13.352963	58.000000	48.000000
12.867294	13.343303	51.000000	61.000000
13.120764	13.602578	63.000000	85.000000
13.364097	14.130356	51.000000	70.000000
13.380061	13.635480	58.000000	70.000000
13.601172	14.135231	67.000000	96.000000
13.605820	14.017975	63.000000	85.000000
13.636569	13.921013	58.000000	78.000000
14.132963	14.231648	51.000000	48.000000
14.138451	14.335820	46.000000	78.000000
14.341557	14.823371	46.000000	91.000000
14.349131	14.778700	53.000000	61.000000
14.598995	15.063394	62.000000	31.000000
14.847793	15.689517	46.000000	85.000000
14.854755	15.719698	53.000000	31.000000
15.062827	15.504006	65.000000	70.000000
15.068179	15.474528	62.000000	1.000000
15.475707	15.957521	62.000000	31.000000
15.506319	15.935888	65.000000	70.000000
15.509267	15.660197	58.000000	48.000000
15.733145	16.174324	46.000000	85.000000
15.746206	16.187385	53.000000	31.000000
15.957430	16.433439	65.000000	70.000000
15.961036	16.437045	62.000000	31.000000
15.961489	16.768383	58.000000	78.000000
16.196705	17.061648	46.000000	91.000000
16.204505	17.069449	53.000000	61.000000
16.437249	16.872623	65.000000	70.000000
16.442011	17.063145	62.000000	31.000000
16.886251	17.013961	65.000000	61.000000
17.166478	17.619267	51.000000	70.000000
17.173576	17.905004	58.000000	48.000000
17.415888	17.874483	67.000000	78.000000
17.422283	17.898292	63.000000	70.000000
17.663689	18.569267	51.000000	61.000000
17.876410	18.816818	67.000000	91.000000
17.899176	18.363576	63.000000	78.000000
17.913417	18.331376	58.000000	78.000000
18.336637	18.580446	58.000000	61.000000
18.364913	18.829312	63.000000	91.000000
18.591693	19.056093	51.000000	70.000000
18.601127	19.617000	58.000000	70.000000
18.820356	19.284755	67.000000	91.000000
18.829517	19.311331	63.000000	85.000000
19.083984	19.832827	51.000000	61.000000
19.305548	19.642238	67.000000	96.000000
19.312646	19.835095	63.000000	61.000000
19.643258	19.846433	67.000000	78.000000
20.053371	21.452374	41.000000	31.000000
20.057816	21.480038	48.000000	31.000000
20.303190	20.819834	53.000000	48.000000
20.546501	20.993485	57.000000	61.000000
20.769267	22.139244	65.000000	48.000000
20.774936	21.053576	60.000000	31.000000
21.055775	21.914913	60.000000	48.000000
21.282532	21.671467	57.000000	48.000000
21.477362	22.835730	41.000000	1.000000
21.482464	22.858247	48.000000	31.000000
21.715208	22.644006	57.000000	61.000000
21.941263	22.167657	60.000000	31.000000
22.165412	22.687861	65.000000	48.000000
22.172079	22.613258	60.000000	31.000000
22.409925	23.007839	53.000000	61.000000
22.641308	22.757408	60.000000	31.000000
22.645095	22.848269	57.000000	31.000000
22.902306	23.326070	46.000000	91.000000
23.076274	23.604528	58.000000	96.000000
23.145208	23.330968	53.000000	48.000000
23.331081	24.300514	46.000000	70.000000
23.333031	24.087680	53.000000	31.000000
23.603122	25.019539	62.000000	48.000000
23.608315	24.066909	58.000000	61.000000
24.084210	24.525390	58.000000	78.000000
24.092918	24.278678	53.000000	31.000000
24.325503	24.801512	46.000000	78.000000
24.552714	25.040333	58.000000	100.000000
24.811127	25.426455	46.000000	78.000000
25.039947	25.690106	62.000000	48.000000
25.045979	25.696138	58.000000	96.000000
25.428655	25.649244	46.000000	85.000000
25.746954	26.188133	41.000000	31.000000
25.781648	26.234437	48.000000	31.000000
26.029993	26.453757	57.000000	70.000000
26.193621	27.128224	41.000000	1.000000
26.243031	27.177634	48.000000	31.000000
26.450809	27.664052	65.000000	48.000000
26.458859	26.958088	57.000000	61.000000
26.469607	26.928201	60.000000	48.000000
26.952510	27.863893	60.000000	70.000000
26.958473	27.388043	57.000000	61.000000
27.170151	27.593916	41.000000	31.000000
27.186841	27.633825	48.000000	31.000000
27.415730	27.851104	57.000000	70.000000
27.625888	28.537272	41.000000	31.000000
27.635163	28.523326	48.000000	48.000000
27.845707	28.391376	65.000000	48.000000
27.853462	28.294641	57.000000	48.000000
27.864437	28.444936	60.000000	61.000000
28.315843	28.542238	57.000000	61.000000
28.528451	28.690990	48.000000	1.000000
28.566002	31.247907	43.000000	70.000000
28.847657	30.026070	58.000000	70.000000
29.091739	29.561943	55.000000	96.000000
29.332442	30.743054	67.000000	78.000000
29.336909	29.754868	62.000000	61.000000
29.559335	31.132487	50.000000	61.000000
29.563009	30.741421	55.000000	85.000000
29.787294	30.245888	62.000000	61.000000
30.050061	30.508655	58.000000	78.000000
30.279018	30.766637	62.000000	31.000000
30.537385	30.978564	58.000000	91.000000
30.764913	31.200288	67.000000	78.000000
30.770446	31.188405	62.000000	31.000000
30.966886	31.088791	55.000000	100.000000
30.980650	31.183825	58.000000	78.000000
31.474981	31.892941	50.000000	78.000000
31.742827	32.184006	62.000000	70.000000
31.898632	32.397861	50.000000	61.000000
32.214891	33.364278	62.000000	48.000000
32.399607	32.864006	50.000000	48.000000
32.677657	34.268224	69.000000	78.000000
32.689993	33.972895	65.000000	31.000000
32.894369	33.602578	50.000000	61.000000
32.914868	33.611467	57.000000	61.000000
33.399335	34.020469	62.000000	70.000000
33.605503	34.267272	50.000000	70.000000
33.611716	34.186410	57.000000	61.000000
34.014210	34.269630	65.000000	61.000000
34.022170	34.213734	62.000000	48.000000
34.306795	34.747975	51.000000	61.000000
34.557158	35.009947	63.000000	70.000000
34.784210	35.248610	51.000000	61.000000
35.004165	35.718179	67.000000	85.000000
35.011829	35.482034	63.000000	48.000000
35.277521	35.741920	51.000000	70.000000
35.509743	35.974142	63.000000	78.000000
35.774006	36.215185	51.000000	61.000000
36.001467	36.941875	63.000000	70.000000
36.254823	36.678587	51.000000	70.000000
36.259902	36.724301	58.000000	48.000000
36.486410	37.101739	67.000000	78.000000
36.718383	37.142147	51.000000	61.000000
36.747272	36.950446	58.000000	61.000000
36.984188	37.106093	63.000000	48.000000
37.212283	37.641852	46.000000	91.000000
37.226795	37.656365	53.000000	61.000000
37.452737	39.281308	62.000000	31.000000
37.670628	38.076977	46.000000	91.000000
37.676569	38.117748	53.000000	70.000000
37.891467	38.338451	70.000000	31.000000
37.909063	38.373462	65.000000	61.000000
38.119018	38.432487	46.000000	70.000000
38.121988	38.603802	53.000000	61.000000
38.352850	39.003009	70.000000	31.000000
38.378655	39.295843	65.000000	48.000000
38.602238	39.020197	46.000000	85.000000
38.606455	39.007000	53.000000	61.000000
38.846705	39.264664	58.000000	91.000000
39.007748	39.530197	53.000000	48.000000
39.047113	39.499902	46.000000	78.000000
39.272850	39.946229	70.000000	48.000000
39.281716	39.763530	62.000000	1.000000
39.299902	39.735276	65.000000	70.000000
39.532986	40.061240	46.000000	78.000000
39.542419	40.018428	53.000000	70.000000
39.760945	40.045390	65.000000	70.000000
39.766183	39.969358	62.000000	31.000000
39.969834	40.747702	63.000000	48.000000
40.018541	40.500356	51.000000	31.000000
40.264619	41.443031	58.000000	70.000000
40.517702	40.947272	51.000000	61.000000
40.736365	42.146977	67.000000	96.000000
40.753077	41.205866	63.000000	70.000000
40.989834	41.413598	51.000000	70.000000
41.226206	41.673190	63.000000	48.000000
41.439925	41.921739	51.000000	70.000000
41.444142	41.949176	58.000000	48.000000
41.701240	42.862238	63.000000	78.000000
41.945254	42.409653	51.000000	70.000000
41.950900	42.624278	58.000000	61.000000
42.193394	42.843553	67.000000	85.000000
42.446977	42.876546	51.000000	61.000000
42.647362	42.850537	58.000000	78.000000
42.905322	43.369721	53.000000	100.000000
43.164913	44.807725	60.000000	48.000000
43.392260	43.827634	53.000000	78.000000
43.633530	45.003507	69.000000	70.000000
43.877294	44.306863	53.000000	85.000000
44.113644	44.537408	65.000000	70.000000
44.338088	45.237861	53.000000	78.000000
44.563326	45.027725	65.000000	48.000000
44.813281	45.707600	60.000000	48.000000
45.026569	45.707600	69.000000	70.000000
45.033054	45.468428	65.000000	61.000000
45.264891	45.707600	53.000000	85.000000
45.485185	45.707600	65.000000	61.000000
