# onset,offset,note,velocity
0.009020	0.508249	51.000000	64.000000
0.022331	0.509950	55.000000	69.000000
0.732127	1.359066	63.000000	23.000000
1.122399	1.383624	55.000000	46.000000
1.165279	1.368454	51.000000	23.000000
1.377229	1.882263	51.000000	46.000000
1.398068	1.874077	55.000000	59.000000
1.419383	1.895392	62.000000	1.000000
1.878023	2.028952	55.000000	1.000000
1.883805	2.777773	51.000000	23.000000
2.121651	2.800834	60.000000	46.000000
2.128181	2.551946	55.000000	23.000000
2.592830	2.796005	55.000000	59.000000
2.798045	3.041855	55.000000	64.000000
2.798272	3.523896	51.000000	59.000000
2.804576	3.025166	60.000000	23.000000
3.037093	3.257683	62.000000	23.000000
3.043374	3.240744	55.000000	46.000000
3.258045	3.519270	55.000000	37.000000
3.285664	3.645574	60.000000	1.000000
3.521583	3.736367	55.000000	46.000000
3.527365	3.736345	51.000000	37.000000
3.736776	4.224395	55.000000	37.000000
3.737456	4.219270	51.000000	64.000000
4.224621	4.874780	51.000000	37.000000
4.228045	4.413805	55.000000	37.000000
4.469519	4.887478	55.000000	73.000000
4.880880	5.084054	63.000000	1.000000
4.889134	5.011039	55.000000	23.000000
4.891787	5.112376	51.000000	23.000000
5.116866	5.604485	55.000000	59.000000
5.124803	5.595007	51.000000	59.000000
5.129429	5.733147	62.000000	23.000000
5.596503	6.490472	51.000000	37.000000
5.633533	5.854122	55.000000	46.000000
5.827297	6.523896	60.000000	46.000000
5.857093	6.309882	55.000000	64.000000
6.310336	6.501900	55.000000	53.000000
6.501741	6.977751	51.000000	46.000000
6.504689	6.765914	55.000000	59.000000
6.525506	6.740290	60.000000	23.000000
6.748839	6.963624	62.000000	46.000000
6.788544	6.980109	55.000000	64.000000
6.966639	7.140789	60.000000	1.000000
6.982875	7.226685	51.000000	64.000000
6.985551	7.211946	55.000000	76.000000
7.145982	7.471061	55.000000	59.000000
7.222921	7.489950	50.000000	23.000000
7.489134	7.669088	44.000000	53.000000
7.686435	7.808340	40.000000	1.000000
7.919406	8.157410	44.000000	73.000000
7.963442	8.178227	51.000000	46.000000
8.160381	8.607365	44.000000	59.000000
8.177342	9.094531	55.000000	94.000000
8.178794	8.585143	51.000000	46.000000
8.611946	8.838340	51.000000	46.000000
8.620653	8.823828	44.000000	46.000000
8.840653	9.572082	44.000000	79.000000
8.842082	9.097501	51.000000	46.000000
9.094984	10.006367	55.000000	85.000000
9.099361	9.563760	51.000000	46.000000
9.568340	9.777320	51.000000	53.000000
9.573918	9.771288	44.000000	46.000000
9.774304	10.250313	44.000000	73.000000
9.777410	10.032830	51.000000	46.000000
10.032240	10.345710	55.000000	82.000000
10.037592	10.240766	51.000000	37.000000
10.448680	10.773760	55.000000	92.000000
10.458136	10.794825	51.000000	59.000000
10.479678	10.764122	44.000000	46.000000
10.904848	11.096413	50.000000	23.000000
11.149066	11.642490	55.000000	46.000000
11.149270	11.619474	51.000000	59.000000
11.624803	11.891832	51.000000	37.000000
11.642717	11.886526	55.000000	53.000000
11.854236	12.109655	63.000000	23.000000
11.891243	12.146662	55.000000	79.000000
11.893646	12.149066	51.000000	37.000000
12.350562	12.437637	55.000000	23.000000
12.561107	13.019701	55.000000	64.000000
12.562785	13.050404	51.000000	59.000000
12.563510	13.062739	63.000000	23.000000
13.045551	13.150041	55.000000	23.000000
13.052807	13.285007	51.000000	37.000000
13.263873	13.739882	63.000000	37.000000
13.286821	13.739610	51.000000	23.000000
13.310585	13.745959	55.000000	82.000000
13.748816	13.940381	51.000000	23.000000
13.749542	13.952717	63.000000	37.000000
13.757524	13.949088	55.000000	59.000000
13.944848	14.223488	51.000000	46.000000
13.945075	14.055370	40.000000	1.000000
13.968317	14.188907	62.000000	23.000000
13.972422	14.222036	55.000000	64.000000
14.199156	14.431356	63.000000	23.000000
14.224304	14.427478	51.000000	37.000000
14.225551	14.428726	55.000000	69.000000
14.431492	14.652082	51.000000	46.000000
14.432739	14.647524	55.000000	59.000000
14.457116	14.695120	62.000000	23.000000
14.652966	14.885166	45.000000	59.000000
14.657524	15.249633	50.000000	23.000000
14.927093	15.327637	46.000000	64.000000
15.332444	15.901333	46.000000	64.000000
15.566934	15.938454	57.000000	37.000000
15.606367	15.948862	53.000000	59.000000
16.054531	16.211265	40.000000	1.000000
16.264349	16.746163	44.000000	100.000000
16.296549	16.772558	51.000000	37.000000
16.749315	17.463329	44.000000	69.000000
16.778091	17.010290	51.000000	23.000000
17.008272	17.443646	55.000000	64.000000
17.010653	17.451832	51.000000	1.000000
17.453533	17.714757	55.000000	53.000000
17.464667	17.691061	44.000000	37.000000
17.474100	17.700494	51.000000	37.000000
17.699429	18.146413	44.000000	79.000000
17.715370	17.912739	55.000000	37.000000
17.715392	17.947592	51.000000	37.000000
17.940676	18.161265	55.000000	79.000000
17.948431	18.151605	51.000000	46.000000
18.149270	18.340834	44.000000	76.000000
18.155143	18.393147	51.000000	37.000000
18.162195	18.365370	53.000000	1.000000
18.391265	18.617660	50.000000	23.000000
18.418635	18.633420	45.000000	46.000000
18.644689	19.109088	55.000000	64.000000
18.660132	19.095506	51.000000	46.000000
19.100585	19.350200	51.000000	37.000000
19.124553	19.333533	55.000000	53.000000
19.313510	19.615370	63.000000	53.000000
19.351991	19.729315	51.000000	59.000000
19.353714	19.742649	55.000000	94.000000
19.821968	20.013533	51.000000	37.000000
19.830948	20.016707	55.000000	37.000000
20.016753	20.492762	51.000000	46.000000
20.018000	20.499814	55.000000	59.000000
20.497615	21.200018	51.000000	37.000000
20.499837	20.697206	55.000000	37.000000
20.727977	21.174961	63.000000	37.000000
20.748567	21.178136	55.000000	82.000000
21.176889	21.420698	63.000000	1.000000
21.178567	21.335302	55.000000	46.000000
21.215370	21.401129	51.000000	37.000000
21.401243	21.645052	55.000000	64.000000
21.404667	21.892286	51.000000	46.000000
21.423488	21.655687	63.000000	23.000000
21.649247	21.817592	55.000000	46.000000
21.675891	21.867456	62.000000	46.000000
21.869224	22.107229	60.000000	1.000000
21.894893	22.324400	51.000000	46.000000
21.901946	22.128340	55.000000	59.000000
22.116073	22.324400	60.000000	23.000000
22.133011	22.324400	55.000000	53.000000
