# onset,offset,note,velocity
0.013696	0.135601	55.000000	58.000000
0.039093	0.242268	43.000000	46.000000
0.052154	0.255329	50.000000	46.000000
0.245828	0.449002	43.000000	46.000000
0.255442	0.528277	55.000000	29.000000
0.255986	0.482381	50.000000	29.000000
0.456916	0.631066	43.000000	29.000000
0.657846	1.313810	43.000000	68.000000
0.668413	1.167642	55.000000	100.000000
0.669274	1.116259	50.000000	68.000000
1.120839	1.306599	50.000000	46.000000
1.307234	1.487188	50.000000	46.000000
1.313968	1.522948	43.000000	58.000000
1.344376	1.495306	55.000000	58.000000
1.492200	1.596689	45.000000	58.000000
1.527891	1.597551	50.000000	1.000000
1.606190	1.699070	52.000000	1.000000
1.615488	1.679342	46.000000	58.000000
1.695238	1.886803	48.000000	29.000000
1.703333	1.894898	55.000000	68.000000
1.902766	2.088526	48.000000	29.000000
2.109683	2.289637	48.000000	29.000000
2.314422	2.529206	48.000000	29.000000
2.545941	2.731701	55.000000	68.000000
2.546009	2.749184	48.000000	46.000000
2.746961	2.967551	55.000000	29.000000
2.750748	2.965533	48.000000	46.000000
2.974354	3.165918	48.000000	68.000000
2.978776	3.147120	55.000000	92.000000
2.991043	3.182608	60.000000	29.000000
3.149932	3.260227	53.000000	1.000000
3.168934	3.296644	45.000000	68.000000
3.276122	3.386417	50.000000	1.000000
3.297302	3.366961	45.000000	68.000000
3.396168	3.628367	41.000000	29.000000
3.414785	3.617959	48.000000	29.000000
3.629184	3.791723	41.000000	29.000000
3.633107	3.859501	48.000000	1.000000
4.020522	4.455896	41.000000	29.000000
4.035034	4.458798	48.000000	58.000000
4.043832	4.502426	53.000000	75.000000
4.459025	4.685420	41.000000	29.000000
4.463379	4.672358	48.000000	29.000000
4.688254	5.170068	40.000000	29.000000
4.693311	4.815215	48.000000	58.000000
4.819478	4.912358	45.000000	58.000000
4.913719	5.029819	45.000000	75.000000
5.075442	5.267007	46.000000	58.000000
5.288141	5.491315	46.000000	58.000000
5.501587	5.675737	46.000000	68.000000
5.692517	5.930522	46.000000	46.000000
5.932812	6.147596	46.000000	68.000000
6.152789	6.338549	45.000000	68.000000
6.358980	6.573764	43.000000	46.000000
6.577846	6.775215	45.000000	82.000000
6.805465	6.880930	41.000000	1.000000
6.883764	6.965034	40.000000	29.000000
6.979478	7.054943	40.000000	1.000000
7.057755	7.185465	40.000000	1.000000
7.433878	7.869252	40.000000	29.000000
7.448707	7.849252	47.000000	58.000000
7.864694	7.963379	47.000000	29.000000
7.872676	8.058435	40.000000	29.000000
8.055465	8.270249	47.000000	58.000000
8.063447	8.394331	40.000000	29.000000
8.297029	8.372494	45.000000	75.000000
8.375329	8.450794	46.000000	46.000000
8.455805	8.566100	45.000000	92.000000
8.687279	8.878844	45.000000	75.000000
8.904150	9.014444	45.000000	58.000000
9.114399	9.549773	52.000000	46.000000
9.115941	9.336531	45.000000	92.000000
9.554127	9.647007	45.000000	87.000000
9.555011	9.752381	52.000000	46.000000
9.753991	9.893311	52.000000	68.000000
9.755941	9.906871	55.000000	58.000000
9.757959	10.170113	45.000000	87.000000
9.898934	9.968594	50.000000	1.000000
9.984444	10.065714	55.000000	29.000000
10.075805	10.168685	55.000000	29.000000
10.082426	10.169501	50.000000	29.000000
10.186122	10.395102	50.000000	29.000000
10.820862	11.285261	50.000000	58.000000
10.826803	11.250567	57.000000	68.000000
10.833741	11.257506	62.000000	29.000000
10.839138	11.396417	65.000000	1.000000
11.418526	11.592676	65.000000	1.000000
11.455533	11.670317	50.000000	29.000000
11.457710	12.096259	45.000000	75.000000
11.670975	12.158594	50.000000	1.000000
11.672608	12.520136	57.000000	68.000000
11.680590	12.121769	62.000000	29.000000
11.687846	12.053560	65.000000	1.000000
12.058844	12.122698	65.000000	1.000000
12.124853	12.299002	62.000000	1.000000
12.314376	12.482721	45.000000	58.000000
12.317642	12.497596	50.000000	29.000000
12.325057	12.516621	62.000000	1.000000
12.514195	12.926349	50.000000	29.000000
12.520567	12.944331	57.000000	68.000000
12.527415	12.910544	62.000000	29.000000
12.532177	13.106871	65.000000	1.000000
12.911179	13.143379	62.000000	29.000000
12.931497	13.128866	50.000000	46.000000
13.111565	13.274104	65.000000	29.000000
13.130340	13.345125	50.000000	68.000000
13.136236	13.356825	45.000000	100.000000
13.139138	13.342313	57.000000	58.000000
13.154694	13.299819	62.000000	46.000000
13.291633	13.407732	64.000000	1.000000
13.305556	13.421655	59.000000	1.000000
13.362200	13.437664	50.000000	29.000000
13.369093	13.444558	45.000000	75.000000
13.441202	13.534082	50.000000	29.000000
13.447392	13.540272	46.000000	68.000000
13.467642	13.548912	42.000000	29.000000
13.558980	13.762154	43.000000	58.000000
13.767868	13.976848	43.000000	29.000000
13.981837	14.063107	43.000000	1.000000
14.200907	14.642086	43.000000	68.000000
14.208753	14.661542	55.000000	75.000000
14.209977	14.645351	50.000000	58.000000
14.643401	14.834966	43.000000	75.000000
14.646304	14.843673	50.000000	29.000000
14.840680	15.067075	43.000000	75.000000
14.845034	15.024989	50.000000	46.000000
14.849365	15.023515	53.000000	29.000000
15.029977	15.134467	45.000000	58.000000
15.153991	15.252676	47.000000	1.000000
15.253741	15.433696	55.000000	29.000000
15.256939	15.436893	48.000000	46.000000
15.453515	15.691519	48.000000	46.000000
15.876190	16.120000	48.000000	58.000000
15.904580	16.130975	55.000000	97.000000
15.912154	16.306893	60.000000	46.000000
16.123560	16.315125	48.000000	46.000000
16.132880	16.312834	55.000000	29.000000
16.316508	16.502268	48.000000	29.000000
16.523220	16.703175	48.000000	68.000000
16.528118	16.719683	55.000000	97.000000
16.548435	16.734195	60.000000	29.000000
16.705283	16.803968	45.000000	68.000000
16.745193	16.849683	40.000000	1.000000
16.827846	16.914921	45.000000	75.000000
16.851791	16.933061	40.000000	1.000000
16.934444	17.149229	41.000000	29.000000
16.940249	17.143424	48.000000	29.000000
17.147710	17.408934	48.000000	29.000000
17.150612	17.359592	41.000000	29.000000
17.544558	17.997347	41.000000	29.000000
17.566327	17.995896	48.000000	58.000000
17.574626	17.998390	53.000000	58.000000
17.996100	18.088980	48.000000	29.000000
17.999002	18.207982	41.000000	29.000000
18.001905	18.187664	53.000000	46.000000
18.202834	18.406009	48.000000	58.000000
18.208095	18.405465	53.000000	29.000000
18.208639	18.429229	41.000000	29.000000
18.410295	18.491565	45.000000	29.000000
18.429887	18.540181	40.000000	1.000000
18.528503	18.603968	45.000000	29.000000
18.541565	18.640249	40.000000	1.000000
18.661950	18.783855	40.000000	1.000000
18.809637	19.053447	53.000000	29.000000
18.812154	19.038549	58.000000	29.000000
18.825941	19.046531	46.000000	58.000000
19.048639	19.234399	46.000000	68.000000
19.054898	19.234853	53.000000	46.000000
19.055351	19.241111	58.000000	46.000000
19.260431	19.434580	46.000000	58.000000
19.261361	19.441315	58.000000	29.000000
19.454830	19.692834	46.000000	68.000000
19.458209	20.108367	53.000000	58.000000
19.462290	19.851224	58.000000	68.000000
19.693515	19.861859	45.000000	82.000000
19.869229	20.095624	43.000000	58.000000
20.100068	20.297438	40.000000	1.000000
20.124739	20.374354	45.000000	75.000000
20.308254	20.511429	40.000000	1.000000
20.514989	20.747188	40.000000	1.000000
20.515351	20.608231	47.000000	1.000000
20.949501	21.402290	40.000000	29.000000
20.962562	21.403741	47.000000	58.000000
20.969093	21.445102	56.000000	46.000000
20.971134	21.412313	50.000000	46.000000
21.403968	21.595533	47.000000	29.000000
21.403968	21.607143	40.000000	1.000000
21.414127	21.588277	50.000000	1.000000
21.604172	21.778322	47.000000	46.000000
21.608526	21.805896	40.000000	29.000000
21.610884	21.796644	56.000000	46.000000
21.781882	21.863152	45.000000	46.000000
21.842063	21.958163	51.000000	1.000000
21.910249	21.985714	45.000000	75.000000
21.987098	22.079977	45.000000	87.000000
22.207574	22.451383	52.000000	29.000000
22.207664	22.439864	45.000000	82.000000
22.625125	23.043084	45.000000	87.000000
22.637868	23.061633	52.000000	46.000000
22.647619	23.077188	57.000000	29.000000
23.064354	23.267528	45.000000	82.000000
23.067256	23.247211	51.000000	1.000000
23.262993	23.367483	52.000000	29.000000
23.271814	23.457574	45.000000	97.000000
23.478549	23.722358	45.000000	87.000000
23.686553	23.912948	57.000000	29.000000
23.929751	24.069070	62.000000	1.000000
23.936803	24.331542	57.000000	46.000000
24.152517	24.344082	50.000000	1.000000
24.332676	24.442971	57.000000	1.000000
24.341383	24.561973	65.000000	1.000000
24.350567	25.198095	62.000000	29.000000
24.763197	24.943152	57.000000	1.000000
24.998957	25.608481	57.000000	46.000000
25.212585	26.025283	65.000000	1.000000
25.585193	25.782562	62.000000	1.000000
25.631905	25.806054	57.000000	29.000000
25.786848	26.042268	62.000000	1.000000
25.832834	26.442358	57.000000	46.000000
26.035896	26.639615	65.000000	29.000000
26.044898	26.428027	62.000000	29.000000
26.430839	26.651429	62.000000	1.000000
26.443900	26.647075	57.000000	46.000000
26.641383	27.041600	45.000000	68.000000
26.641383	26.745873	65.000000	1.000000
26.647891	26.891701	50.000000	29.000000
26.652086	26.814626	57.000000	46.000000
26.670952	26.862517	62.000000	29.000000
26.820363	27.029342	55.000000	46.000000
26.847392	26.963492	64.000000	1.000000
26.878277	27.041600	59.000000	1.000000
26.897438	27.041600	50.000000	29.000000
