# onset,offset,note,velocity
0.012063	0.250067	63.000000	1.000000
0.016167	0.248366	52.000000	55.000000
0.017868	0.221042	68.000000	1.000000
0.029341	0.232516	59.000000	28.000000
0.400974	0.644784	63.000000	28.000000
0.406054	0.644058	59.000000	43.000000
0.408230	0.640430	52.000000	70.000000
0.414035	0.657845	68.000000	1.000000
0.785078	1.150793	52.000000	43.000000
0.999115	1.167459	68.000000	1.000000
1.009228	1.189183	59.000000	43.000000
1.009273	1.200838	63.000000	28.000000
1.399478	1.602652	66.000000	1.000000
1.400929	1.627323	63.000000	28.000000
1.405169	1.619954	57.000000	63.000000
1.411700	1.591654	47.000000	43.000000
1.804602	2.013582	47.000000	55.000000
1.806779	2.038979	63.000000	28.000000
1.806779	2.015759	57.000000	55.000000
1.811859	2.049863	66.000000	1.000000
2.202063	2.707097	47.000000	55.000000
2.368639	2.705328	63.000000	63.000000
2.371405	2.696484	57.000000	70.000000
2.377346	2.708230	66.000000	1.000000
3.137051	3.334421	49.000000	43.000000
3.140679	3.326439	59.000000	43.000000
3.144058	3.387868	56.000000	43.000000
3.154466	3.375056	64.000000	1.000000
3.535849	3.739024	49.000000	43.000000
3.538026	3.694761	64.000000	1.000000
3.538026	3.764421	59.000000	43.000000
3.544421	3.753400	56.000000	70.000000
3.910407	4.316756	49.000000	43.000000
4.128298	4.308253	59.000000	43.000000
4.129024	4.314784	64.000000	1.000000
4.129614	4.309568	56.000000	63.000000
4.531428	5.106122	44.000000	100.000000
4.935101	5.149886	59.000000	43.000000
4.936552	5.139727	63.000000	1.000000
4.940793	5.114942	54.000000	55.000000
5.284761	5.749160	44.000000	100.000000
5.441428	5.708457	59.000000	28.000000
5.446462	5.725101	54.000000	63.000000
5.449410	5.722244	63.000000	1.000000
5.840815	5.945305	63.000000	1.000000
5.840951	5.957051	44.000000	90.000000
5.848072	5.952561	59.000000	43.000000
5.849410	5.965509	54.000000	43.000000
6.267686	6.459251	45.000000	70.000000
6.276734	6.491518	64.000000	1.000000
6.277459	6.503854	61.000000	1.000000
6.281700	6.496484	56.000000	55.000000
6.654784	6.904398	61.000000	1.000000
6.659137	6.920362	64.000000	1.000000
6.660589	6.898593	45.000000	90.000000
6.662629	6.894829	56.000000	70.000000
7.039954	7.318593	45.000000	86.000000
7.238026	7.359931	64.000000	1.000000
7.242380	7.399115	61.000000	28.000000
7.244534	7.395464	56.000000	63.000000
7.645419	7.825373	52.000000	55.000000
8.018502	8.215872	68.000000	1.000000
8.021405	8.189750	62.000000	28.000000
8.025623	8.228797	59.000000	28.000000
8.395328	8.772652	52.000000	76.000000
8.589659	8.827663	68.000000	1.000000
8.590385	8.799364	63.000000	43.000000
8.595351	8.798525	59.000000	43.000000
8.823378	9.026552	52.000000	63.000000
8.962063	9.049137	63.000000	28.000000
8.965691	9.052766	68.000000	1.000000
8.969273	9.062153	58.000000	43.000000
9.328979	9.688888	45.000000	90.000000
9.343854	9.680543	61.000000	1.000000
9.348888	9.685577	56.000000	55.000000
9.348933	9.586938	64.000000	1.000000
9.751949	9.856439	45.000000	76.000000
9.753287	9.904217	64.000000	1.000000
9.754738	9.917278	61.000000	1.000000
9.762584	9.901904	56.000000	63.000000
10.159341	10.501836	45.000000	70.000000
10.370725	10.573899	61.000000	28.000000
10.374353	10.536893	64.000000	1.000000
10.374942	10.554897	56.000000	63.000000
10.846076	11.020226	47.000000	1.000000
11.194670	11.392040	63.000000	28.000000
11.194784	11.363128	47.000000	43.000000
11.196122	11.393491	66.000000	1.000000
11.198888	11.349818	57.000000	70.000000
11.560044	12.012834	47.000000	43.000000
11.738548	12.011382	63.000000	28.000000
11.742176	12.003400	57.000000	70.000000
11.745078	12.006303	66.000000	1.000000
12.104058	12.214353	47.000000	55.000000
12.120453	12.248162	63.000000	1.000000
12.122629	12.285169	66.000000	1.000000
12.123967	12.234262	57.000000	55.000000
12.494262	12.825146	52.000000	70.000000
12.860090	13.063264	68.000000	1.000000
12.868072	12.984171	52.000000	63.000000
12.871700	13.040044	63.000000	55.000000
12.876666	13.021790	59.000000	28.000000
13.269682	13.617981	52.000000	70.000000
13.497595	13.654330	68.000000	1.000000
13.499047	13.696416	63.000000	43.000000
13.503287	13.654217	59.000000	1.000000
13.840861	13.974376	47.000000	1.000000
13.853514	14.004444	63.000000	1.000000
13.856439	14.030589	57.000000	43.000000
14.222516	14.396666	47.000000	55.000000
14.230385	14.410339	66.000000	1.000000
14.230385	14.433559	63.000000	28.000000
14.232425	14.447210	57.000000	55.000000
14.656122	15.050861	47.000000	63.000000
14.850566	15.018911	66.000000	1.000000
14.857822	15.031972	63.000000	28.000000
14.859273	15.062448	57.000000	28.000000
15.056507	15.190022	47.000000	28.000000
15.606915	15.879750	64.000000	1.000000
15.608366	15.887006	59.000000	43.000000
15.611156	15.913015	56.000000	63.000000
15.611881	15.925351	49.000000	43.000000
15.922063	16.148457	64.000000	1.000000
15.979387	16.141927	59.000000	28.000000
15.983627	16.128752	56.000000	43.000000
15.986530	16.114239	49.000000	28.000000
16.380158	16.780702	49.000000	43.000000
16.605283	16.808457	59.000000	43.000000
16.606620	16.798185	56.000000	63.000000
16.607459	16.799024	64.000000	1.000000
16.988525	17.383264	44.000000	82.000000
17.432629	17.688049	63.000000	28.000000
17.436371	17.656961	44.000000	97.000000
17.442788	17.686598	59.000000	43.000000
17.444103	17.676303	54.000000	63.000000
17.831586	18.272766	44.000000	76.000000
17.986779	18.265419	59.000000	28.000000
17.992471	18.259500	54.000000	63.000000
17.994761	18.285010	63.000000	1.000000
18.335713	18.451813	44.000000	90.000000
18.347165	18.486484	59.000000	28.000000
18.349954	18.518298	54.000000	55.000000
18.737618	19.265872	45.000000	1.000000
19.104852	19.319636	61.000000	1.000000
19.109205	19.277550	64.000000	1.000000
19.110498	19.284648	56.000000	76.000000
19.508616	19.822085	45.000000	97.000000
19.695804	19.887369	61.000000	28.000000
19.698707	19.849636	64.000000	1.000000
19.699432	19.856167	56.000000	70.000000
20.054058	20.297868	53.000000	1.000000
20.437029	20.616983	68.000000	1.000000
20.442221	20.610566	53.000000	43.000000
20.447187	20.667777	63.000000	63.000000
20.449954	20.629908	59.000000	28.000000
20.884307	21.366122	52.000000	70.000000
21.060271	21.350521	68.000000	1.000000
21.060997	21.351246	63.000000	55.000000
21.062448	21.416552	59.000000	43.000000
21.442652	21.552947	52.000000	55.000000
21.455464	21.571564	63.000000	43.000000
21.459092	21.551972	68.000000	1.000000
21.460543	21.553423	59.000000	1.000000
21.835078	22.055668	45.000000	86.000000
21.844988	22.024942	61.000000	1.000000
21.847165	22.050339	56.000000	63.000000
21.847165	22.096779	64.000000	1.000000
22.231745	22.463945	45.000000	97.000000
22.238140	22.441314	61.000000	1.000000
22.240294	22.443468	56.000000	70.000000
22.241042	22.455827	64.000000	1.000000
22.604081	22.958185	45.000000	55.000000
22.804965	22.921065	61.000000	28.000000
22.808457	22.953582	56.000000	76.000000
22.815849	22.937754	64.000000	1.000000
23.405963	24.619205	47.000000	70.000000
23.750657	24.932000	54.000000	100.000000
23.763242	24.622380	63.000000	28.000000
23.763967	23.961337	66.000000	43.000000
23.772017	24.451201	57.000000	63.000000
24.619546	24.857550	47.000000	43.000000
