# onset,offset,note,velocity
0.529649	0.686384	56.000000	29.000000
0.554320	0.966474	61.000000	1.000000
0.558493	0.703617	65.000000	1.000000
0.957427	1.114161	65.000000	29.000000
0.970443	1.121372	61.000000	1.000000
1.353096	1.608515	56.000000	75.000000
1.359558	1.603368	61.000000	1.000000
1.611576	1.721871	56.000000	46.000000
1.627019	1.748923	65.000000	1.000000
1.891576	2.013481	50.000000	1.000000
2.161395	2.672234	54.000000	68.000000
2.174229	2.586384	60.000000	29.000000
2.181214	2.587563	63.000000	1.000000
2.572506	2.746656	68.000000	29.000000
2.588470	2.716180	60.000000	29.000000
2.589468	2.734592	63.000000	29.000000
2.956928	3.107858	54.000000	58.000000
2.969263	3.102778	60.000000	1.000000
3.216701	3.518561	54.000000	58.000000
3.227517	3.488742	60.000000	29.000000
3.232869	3.511508	63.000000	1.000000
3.754706	3.963685	54.000000	87.000000
3.780307	4.000896	60.000000	46.000000
3.792937	4.001917	63.000000	1.000000
4.272892	4.870805	56.000000	87.000000
4.284774	4.900102	61.000000	29.000000
4.298515	5.355023	65.000000	1.000000
5.092914	5.342529	61.000000	1.000000
5.109059	5.399309	56.000000	75.000000
5.352143	5.636588	61.000000	29.000000
5.363232	5.467722	65.000000	1.000000
5.371939	5.453209	70.000000	1.000000
5.479241	5.653390	70.000000	1.000000
5.489422	5.640352	65.000000	29.000000
5.884434	5.977313	61.000000	1.000000
5.896769	5.966429	65.000000	1.000000
6.177676	6.438901	60.000000	1.000000
6.455545	6.896724	60.000000	29.000000
6.465137	6.645091	64.000000	1.000000
6.472438	6.634978	68.000000	1.000000
6.480375	6.846089	72.000000	1.000000
6.724116	6.886656	63.000000	29.000000
6.728651	6.867971	68.000000	1.000000
6.870080	7.055839	68.000000	29.000000
6.889468	7.052007	63.000000	46.000000
6.898130	7.060669	60.000000	1.000000
7.246429	7.501849	60.000000	29.000000
7.254932	7.417472	63.000000	29.000000
7.266089	7.504093	68.000000	1.000000
7.502461	7.769490	60.000000	29.000000
7.512234	7.709604	63.000000	29.000000
7.519490	7.798130	68.000000	29.000000
7.522778	7.656293	75.000000	1.000000
7.777177	8.055817	60.000000	1.000000
7.796452	7.900941	63.000000	1.000000
7.799354	7.927064	68.000000	1.000000
8.057767	8.197087	58.000000	1.000000
8.063073	8.214003	63.000000	58.000000
8.076066	8.244411	67.000000	29.000000
8.078810	8.270375	72.000000	29.000000
8.314298	8.412982	50.000000	1.000000
8.583209	8.774774	50.000000	1.000000
8.602756	8.776905	56.000000	46.000000
8.865635	9.126860	51.000000	29.000000
8.870715	9.010034	57.000000	58.000000
9.015046	9.438810	58.000000	46.000000
9.681032	9.884207	52.000000	58.000000
9.693527	9.902506	58.000000	58.000000
9.943368	10.100102	50.000000	1.000000
10.083096	10.309490	58.000000	1.000000
10.117449	10.285794	52.000000	29.000000
10.335839	10.463549	45.000000	46.000000
10.357585	10.613005	58.000000	29.000000
10.501871	10.600556	52.000000	1.000000
10.765023	10.956588	49.000000	29.000000
11.002007	11.321282	49.000000	29.000000
11.008266	11.263685	56.000000	29.000000
11.272551	11.783390	56.000000	82.000000
11.280805	11.681350	61.000000	29.000000
11.284388	11.394683	68.000000	29.000000
11.287109	11.658629	65.000000	1.000000
11.640805	11.809150	70.000000	1.000000
11.663844	11.867019	65.000000	46.000000
11.681531	11.820851	61.000000	1.000000
12.045205	12.370284	49.000000	29.000000
12.315749	12.559558	56.000000	100.000000
12.336996	12.470511	61.000000	29.000000
12.342937	12.546112	70.000000	1.000000
12.353640	12.475545	64.000000	1.000000
12.831599	12.936089	50.000000	1.000000
13.095817	13.322211	51.000000	46.000000
13.106973	13.211463	57.000000	58.000000
13.215023	13.511078	58.000000	46.000000
13.349785	13.547155	52.000000	29.000000
13.568084	13.736429	58.000000	29.000000
13.590760	13.666225	52.000000	1.000000
13.994434	14.162778	52.000000	68.000000
14.002415	14.228810	58.000000	46.000000
14.375499	14.636724	52.000000	68.000000
14.384728	14.645953	58.000000	29.000000
14.647880	14.874275	58.000000	1.000000
14.652914	14.867699	52.000000	58.000000
15.035885	15.186815	54.000000	87.000000
15.043640	15.235205	60.000000	1.000000
15.562053	15.683957	60.000000	1.000000
15.838674	16.082483	54.000000	82.000000
15.847155	16.085159	60.000000	1.000000
16.104910	16.406769	54.000000	82.000000
16.111735	16.477449	60.000000	1.000000
16.488742	16.610647	60.000000	29.000000
16.887449	17.119649	54.000000	92.000000
16.891010	17.088379	60.000000	1.000000
17.429808	17.731667	49.000000	29.000000
17.442415	17.709445	56.000000	58.000000
17.711010	17.966429	56.000000	82.000000
17.719263	18.114003	61.000000	29.000000
17.726225	18.109354	65.000000	29.000000
17.736180	18.281849	70.000000	1.000000
18.117245	18.268175	65.000000	1.000000
18.117812	18.274547	61.000000	1.000000
18.504910	18.737109	56.000000	92.000000
18.512166	18.645681	61.000000	1.000000
19.299717	19.514502	53.000000	68.000000
19.314524	19.627994	60.000000	29.000000
19.519740	19.612620	54.000000	68.000000
19.628356	19.872166	60.000000	46.000000
20.105703	20.268243	54.000000	1.000000
20.378969	20.895613	54.000000	87.000000
20.391236	20.884660	60.000000	29.000000
20.876633	20.981123	45.000000	58.000000
21.457359	21.666338	58.000000	58.000000
21.464910	21.679694	61.000000	1.000000
21.714728	22.562257	58.000000	68.000000
21.726792	21.970601	61.000000	1.000000
21.998379	22.381508	61.000000	29.000000
22.005635	22.464229	65.000000	29.000000
22.014298	22.385817	70.000000	1.000000
22.406996	22.528901	70.000000	1.000000
22.765567	22.846837	56.000000	46.000000
22.775794	23.019604	61.000000	29.000000
22.791463	23.017858	65.000000	29.000000
22.801894	23.034093	70.000000	1.000000
23.580034	23.939944	60.000000	29.000000
23.589014	23.832824	63.000000	29.000000
23.595477	23.705771	68.000000	1.000000
23.602189	23.724093	72.000000	1.000000
23.706406	23.845726	68.000000	1.000000
23.726202	23.877132	72.000000	1.000000
24.137109	24.346089	60.000000	29.000000
24.146542	24.268447	63.000000	1.000000
24.156021	24.370805	68.000000	29.000000
24.164025	24.332370	75.000000	1.000000
24.423164	24.562483	72.000000	1.000000
24.566021	24.745976	72.000000	29.000000
24.576497	24.768062	68.000000	29.000000
24.838629	25.181123	68.000000	1.000000
24.839468	24.949762	63.000000	1.000000
24.931259	25.302778	60.000000	1.000000
24.951849	25.271123	63.000000	29.000000
25.191917	25.308016	68.000000	1.000000
25.194819	25.305114	72.000000	1.000000
25.734320	25.896860	51.000000	1.000000
25.740851	25.845341	57.000000	46.000000
25.851078	26.332892	58.000000	29.000000
26.309808	26.478152	52.000000	29.000000
26.559150	26.692665	58.000000	1.000000
26.566361	26.798561	52.000000	58.000000
26.824116	27.044706	52.000000	46.000000
26.833322	27.123572	58.000000	29.000000
27.078515	27.333935	52.000000	1.000000
27.340465	27.526225	52.000000	58.000000
27.352007	27.607427	58.000000	46.000000
27.588515	27.791690	50.000000	1.000000
27.857200	28.002325	49.000000	29.000000
28.132597	28.898855	49.000000	29.000000
28.139400	28.394819	56.000000	46.000000
28.397381	28.983685	56.000000	68.000000
28.408538	28.803277	61.000000	29.000000
28.418629	28.778538	65.000000	1.000000
28.781123	28.984298	65.000000	1.000000
28.828515	28.996860	61.000000	1.000000
29.223164	29.432143	49.000000	29.000000
29.232370	29.464570	56.000000	75.000000
29.748152	29.916497	50.000000	1.000000
30.017517	30.156837	51.000000	46.000000
30.019468	30.118152	57.000000	46.000000
30.123164	30.587563	58.000000	46.000000
30.821304	31.047699	52.000000	68.000000
30.833096	31.117540	58.000000	58.000000
31.333209	31.600239	52.000000	68.000000
31.350556	31.640805	58.000000	58.000000
31.879694	32.117699	53.000000	68.000000
31.896815	32.146429	59.000000	29.000000
32.164502	32.698561	54.000000	92.000000
32.171758	32.688402	60.000000	29.000000
32.703572	32.860307	54.000000	87.000000
32.712438	32.886588	60.000000	29.000000
32.957585	33.027245	51.000000	1.000000
33.102642	33.218742	54.000000	58.000000
33.407200	33.587155	54.000000	75.000000
33.519853	33.670783	60.000000	1.000000
33.770375	33.956134	54.000000	92.000000
33.782982	34.015182	60.000000	46.000000
