# onset,offset,note,velocity
0.010432	0.248436	42.000000	36.000000
0.013629	0.251634	53.000000	57.000000
0.039751	0.248731	58.000000	93.000000
0.045715	0.283720	61.000000	36.000000
0.427779	0.956033	61.000000	1.000000
0.429820	0.934854	42.000000	36.000000
0.431407	0.930636	58.000000	93.000000
0.432132	0.948776	53.000000	57.000000
1.006237	1.151361	58.000000	100.000000
1.006237	1.139751	42.000000	36.000000
1.008414	1.217393	53.000000	1.000000
1.008414	1.240613	61.000000	1.000000
1.393244	1.793788	42.000000	36.000000
1.395715	1.767234	61.000000	1.000000
1.397733	1.815693	53.000000	36.000000
1.400069	1.765783	58.000000	72.000000
1.820046	2.017416	58.000000	57.000000
1.823674	2.079094	42.000000	1.000000
1.829638	2.050228	53.000000	36.000000
1.839071	2.100296	61.000000	1.000000
2.241180	2.630114	61.000000	1.000000
2.245375	2.674944	42.000000	36.000000
2.246395	2.652745	53.000000	36.000000
2.247121	2.659275	58.000000	72.000000
2.675670	2.902064	42.000000	1.000000
2.683221	2.944445	61.000000	1.000000
2.685987	2.918187	58.000000	57.000000
2.686713	2.924717	53.000000	36.000000
3.053221	3.209956	40.000000	1.000000
3.278686	3.505080	42.000000	36.000000
3.282609	3.485783	61.000000	1.000000
3.284785	3.499570	53.000000	36.000000
3.286962	3.495942	58.000000	72.000000
3.675579	4.163198	61.000000	1.000000
3.677892	4.153901	58.000000	93.000000
3.679774	4.138368	42.000000	57.000000
3.682971	4.211225	53.000000	57.000000
4.270318	4.514128	42.000000	36.000000
4.274241	4.512246	61.000000	1.000000
4.279321	4.441860	58.000000	83.000000
4.285851	4.494831	53.000000	36.000000
4.683312	5.083856	42.000000	36.000000
4.686509	5.092858	61.000000	1.000000
4.687234	5.076169	58.000000	72.000000
4.693176	5.076305	53.000000	57.000000
5.106169	5.349978	42.000000	36.000000
5.114468	5.346668	61.000000	1.000000
5.115194	5.329978	53.000000	36.000000
5.117371	5.343765	58.000000	72.000000
5.516441	5.916985	42.000000	1.000000
5.517892	5.930046	58.000000	83.000000
5.518618	5.948187	61.000000	1.000000
5.519185	5.931339	53.000000	36.000000
5.962835	6.160205	42.000000	36.000000
5.970386	6.173561	61.000000	1.000000
5.972586	6.181566	58.000000	72.000000
5.976214	6.179389	53.000000	36.000000
6.323810	6.416690	45.000000	72.000000
6.534763	6.755352	47.000000	83.000000
6.543788	6.752767	63.000000	1.000000
6.545103	6.748278	58.000000	83.000000
6.547484	6.739049	55.000000	57.000000
6.933244	7.444083	63.000000	1.000000
6.935851	7.452495	47.000000	72.000000
6.940364	7.462813	54.000000	72.000000
6.940500	7.462949	58.000000	83.000000
7.564151	7.790545	47.000000	57.000000
7.576214	7.820024	58.000000	57.000000
7.577665	7.792450	63.000000	1.000000
7.581135	7.824944	54.000000	57.000000
7.971498	8.313992	58.000000	83.000000
7.972790	8.379139	54.000000	57.000000
7.973085	8.373629	63.000000	1.000000
7.975126	8.346645	47.000000	72.000000
8.346781	8.573176	47.000000	57.000000
8.401498	8.581452	54.000000	36.000000
8.402949	8.606123	63.000000	1.000000
8.405262	8.631656	58.000000	57.000000
8.779774	9.162903	47.000000	72.000000
8.782087	9.211656	54.000000	57.000000
8.786463	9.128958	58.000000	72.000000
8.788073	9.177008	63.000000	1.000000
9.166373	9.503062	47.000000	57.000000
9.178776	9.405171	63.000000	1.000000
9.217166	9.501611	54.000000	36.000000
9.217461	9.443856	58.000000	72.000000
9.568890	9.772064	40.000000	36.000000
9.802473	10.023062	42.000000	36.000000
9.804944	10.019729	58.000000	72.000000
9.806259	10.021044	53.000000	57.000000
9.807847	10.016826	61.000000	1.000000
10.202563	10.736622	42.000000	36.000000
10.209094	10.667688	61.000000	1.000000
10.211996	10.676395	58.000000	72.000000
10.212132	10.659117	53.000000	57.000000
10.829117	11.055511	42.000000	36.000000
10.841157	11.050137	53.000000	36.000000
10.841747	11.044922	61.000000	1.000000
10.841747	11.085556	58.000000	72.000000
11.235579	11.589683	61.000000	1.000000
11.236305	11.607824	53.000000	36.000000
11.237892	11.609411	58.000000	83.000000
11.240659	11.617983	42.000000	36.000000
11.644219	11.800953	42.000000	1.000000
11.648867	11.840432	61.000000	1.000000
11.651611	11.808346	53.000000	57.000000
11.652495	11.820840	58.000000	72.000000
12.047620	12.465579	42.000000	36.000000
12.048640	12.420160	61.000000	1.000000
12.051543	12.423062	58.000000	72.000000
12.051543	12.428867	53.000000	57.000000
12.465987	12.692382	42.000000	36.000000
12.467620	12.612745	61.000000	1.000000
12.469797	12.696191	58.000000	83.000000
12.470522	12.638867	53.000000	57.000000
13.060160	13.303969	49.000000	72.000000
13.070613	13.314423	56.000000	83.000000
13.071339	13.297733	60.000000	57.000000
13.071339	13.326758	65.000000	1.000000
13.482903	13.929888	49.000000	57.000000
13.489570	13.959774	56.000000	72.000000
13.491906	13.933085	60.000000	36.000000
13.494083	13.946872	65.000000	1.000000
14.091135	14.230454	49.000000	57.000000
14.093470	14.256010	65.000000	1.000000
14.095488	14.234808	56.000000	83.000000
14.096373	14.229888	60.000000	36.000000
14.491067	14.856781	63.000000	1.000000
14.491498	14.863017	47.000000	83.000000
14.494105	14.877234	54.000000	57.000000
14.495420	14.861135	58.000000	93.000000
14.858640	15.114060	63.000000	1.000000
14.867484	15.059049	47.000000	57.000000
14.903334	15.089094	58.000000	83.000000
14.905398	15.096962	54.000000	36.000000
15.300069	15.671588	47.000000	57.000000
15.303130	15.663039	63.000000	1.000000
15.304581	15.519366	58.000000	72.000000
15.308482	15.691611	54.000000	36.000000
15.718436	15.973856	47.000000	57.000000
15.722813	15.856327	58.000000	72.000000
15.724423	15.962427	63.000000	1.000000
15.724627	15.962631	54.000000	36.000000
16.091361	16.282926	40.000000	1.000000
16.330182	16.539162	42.000000	36.000000
16.331067	16.574876	58.000000	83.000000
16.331634	16.569638	53.000000	36.000000
16.331792	16.563992	61.000000	1.000000
16.741883	16.887008	61.000000	1.000000
16.744060	17.179434	42.000000	36.000000
16.747983	17.177552	58.000000	93.000000
16.751452	17.204241	53.000000	57.000000
17.347371	17.498300	61.000000	1.000000
17.352291	17.567076	42.000000	36.000000
17.353017	17.567801	53.000000	36.000000
17.354627	17.563606	58.000000	83.000000
17.773017	18.132926	61.000000	1.000000
17.775761	18.170500	42.000000	36.000000
17.778096	18.155420	58.000000	93.000000
18.154015	18.333969	61.000000	1.000000
18.182949	18.351293	58.000000	93.000000
18.191815	18.383380	42.000000	1.000000
18.593901	18.977030	42.000000	36.000000
18.595511	18.961225	61.000000	1.000000
18.600590	18.966305	58.000000	72.000000
18.981498	19.149842	42.000000	1.000000
19.010704	19.120999	61.000000	1.000000
19.011566	19.145080	58.000000	83.000000
19.379253	19.535987	40.000000	1.000000
