# onset,offset,note,velocity
0.004424	0.126329	57.000000	85.000000
0.004583	0.149708	47.000000	31.000000
0.005150	0.394084	67.000000	31.000000
0.005876	0.121976	62.000000	61.000000
0.124062	0.402701	63.000000	61.000000
0.126987	0.486896	58.000000	70.000000
0.153994	0.479073	48.000000	31.000000
0.394629	0.621023	67.000000	31.000000
0.407780	0.512270	63.000000	31.000000
1.271794	1.474969	58.000000	70.000000
1.281907	1.496692	63.000000	48.000000
1.289821	1.481386	67.000000	31.000000
1.694266	1.868415	67.000000	31.000000
1.705263	1.838778	63.000000	48.000000
2.031567	2.275377	57.000000	48.000000
2.043132	2.281137	63.000000	48.000000
2.051273	2.277667	68.000000	31.000000
2.276783	2.508982	57.000000	48.000000
2.279073	2.435808	68.000000	1.000000
2.281862	2.432792	63.000000	31.000000
2.434152	2.532837	63.000000	31.000000
2.440796	2.522066	68.000000	31.000000
2.773495	2.936034	63.000000	31.000000
2.775672	3.100751	57.000000	48.000000
2.776465	3.089935	53.000000	31.000000
2.794493	2.945422	68.000000	1.000000
2.939595	3.125354	63.000000	1.000000
2.948257	3.046941	68.000000	1.000000
3.295604	3.463948	53.000000	1.000000
3.296102	3.452837	57.000000	61.000000
3.303313	3.465853	63.000000	31.000000
3.311794	3.468529	68.000000	31.000000
3.528914	3.871409	53.000000	31.000000
3.544107	3.689232	63.000000	31.000000
3.553472	3.681182	68.000000	31.000000
3.685195	3.812905	64.000000	48.000000
3.693517	3.873472	63.000000	31.000000
3.695604	3.852338	66.000000	31.000000
3.818642	3.934742	64.000000	31.000000
4.047418	4.511817	46.000000	31.000000
4.057508	4.463858	57.000000	48.000000
4.059527	4.227871	50.000000	1.000000
4.063812	4.290207	62.000000	31.000000
4.073926	4.428030	65.000000	1.000000
4.417758	4.620932	69.000000	48.000000
4.431477	4.646261	65.000000	48.000000
4.461182	4.623722	62.000000	31.000000
4.468211	4.566896	57.000000	61.000000
4.804334	5.454493	46.000000	61.000000
4.807917	5.301341	57.000000	70.000000
4.815105	5.308529	62.000000	31.000000
4.824493	5.317917	65.000000	31.000000
5.302338	5.476488	57.000000	78.000000
5.316057	5.478597	62.000000	31.000000
5.326171	5.471295	65.000000	31.000000
5.566783	5.682883	65.000000	1.000000
5.692248	5.802542	65.000000	48.000000
5.716828	5.780683	62.000000	31.000000
6.049118	6.223268	50.000000	1.000000
6.081658	6.209368	66.000000	48.000000
6.214379	6.481409	67.000000	31.000000
6.226102	6.522157	51.000000	1.000000
6.481681	6.551341	67.000000	31.000000
6.813903	7.144787	58.000000	61.000000
6.814629	7.110683	51.000000	31.000000
6.831998	6.988733	62.000000	31.000000
6.840479	6.991409	67.000000	31.000000
6.994243	7.174198	67.000000	48.000000
6.994447	7.162792	62.000000	31.000000
7.336034	7.475354	51.000000	1.000000
7.344515	7.501250	57.000000	61.000000
7.349527	7.523676	62.000000	48.000000
7.360592	7.528937	67.000000	48.000000
7.570116	7.825536	51.000000	1.000000
7.576828	7.820638	58.000000	31.000000
7.586760	7.726080	62.000000	31.000000
7.588143	7.721658	67.000000	48.000000
7.724470	7.828960	67.000000	48.000000
7.726737	7.813812	62.000000	31.000000
7.836239	7.969753	55.000000	48.000000
7.843404	8.040774	59.000000	1.000000
8.088597	8.512361	55.000000	78.000000
8.095082	8.240207	60.000000	31.000000
8.102996	8.242316	62.000000	48.000000
8.298846	8.484606	63.000000	1.000000
8.510978	8.661907	60.000000	1.000000
8.511749	8.656873	63.000000	31.000000
8.513472	8.676012	55.000000	31.000000
8.739549	8.844039	63.000000	31.000000
8.855354	9.064334	60.000000	31.000000
8.856307	9.053676	55.000000	85.000000
8.874447	9.071817	63.000000	1.000000
9.080592	9.214107	40.000000	1.000000
9.105808	9.227712	60.000000	1.000000
9.233449	9.355354	60.000000	1.000000
9.244787	9.320252	63.000000	1.000000
9.346987	9.445672	55.000000	70.000000
9.355989	9.530139	60.000000	1.000000
9.364447	9.521182	63.000000	1.000000
9.449209	9.524674	55.000000	61.000000
9.575127	9.871182	45.000000	70.000000
9.584107	9.752452	55.000000	100.000000
9.593654	9.732973	60.000000	31.000000
9.608166	9.689436	63.000000	31.000000
9.719821	9.835921	63.000000	31.000000
9.736511	9.904855	60.000000	31.000000
9.753835	9.910570	55.000000	48.000000
10.111976	10.332565	60.000000	48.000000
10.117712	10.344107	65.000000	31.000000
10.331091	10.650366	50.000000	1.000000
10.338211	10.500751	60.000000	1.000000
10.347690	10.498620	65.000000	1.000000
10.503631	10.666171	65.000000	48.000000
10.505037	10.667576	60.000000	31.000000
10.843064	11.086873	54.000000	70.000000
10.847350	11.166624	60.000000	31.000000
10.862361	11.164220	65.000000	1.000000
11.074311	11.178801	50.000000	1.000000
11.087304	11.174379	54.000000	48.000000
11.336034	11.533404	50.000000	31.000000
11.339821	11.513971	54.000000	70.000000
11.349527	11.546896	60.000000	31.000000
11.358189	11.543948	65.000000	31.000000
11.607191	11.792951	50.000000	31.000000
11.610774	11.761703	54.000000	85.000000
11.619957	11.805717	60.000000	48.000000
11.630796	11.804946	65.000000	31.000000
11.865127	12.027667	50.000000	31.000000
11.870366	12.032905	54.000000	78.000000
11.879685	12.019005	63.000000	48.000000
11.879753	12.059708	60.000000	48.000000
11.904130	12.089889	64.000000	31.000000
12.124674	12.211749	50.000000	1.000000
12.367463	12.942157	53.000000	31.000000
12.371273	12.795037	58.000000	48.000000
12.384266	12.517780	69.000000	31.000000
12.521341	12.625830	69.000000	31.000000
12.625127	12.799277	62.000000	31.000000
12.626465	12.771590	69.000000	31.000000
12.799186	12.955921	58.000000	31.000000
12.799821	12.950751	69.000000	31.000000
12.804991	12.944311	62.000000	31.000000
13.127236	13.638075	53.000000	31.000000
13.131771	13.276896	58.000000	61.000000
13.135898	13.275218	62.000000	48.000000
13.139708	13.505422	69.000000	31.000000
13.280229	13.518234	62.000000	1.000000
13.281907	13.537327	58.000000	48.000000
13.532542	13.654447	69.000000	48.000000
13.538506	13.660411	58.000000	48.000000
13.540683	13.668393	62.000000	48.000000
13.859799	14.179073	58.000000	48.000000
13.862860	14.013790	62.000000	48.000000
13.874969	14.002678	69.000000	1.000000
14.009118	14.107803	69.000000	31.000000
14.042021	14.204561	62.000000	1.000000
14.109186	14.219481	69.000000	31.000000
14.358733	14.498053	58.000000	31.000000
14.365037	14.515966	62.000000	31.000000
14.373926	14.530660	67.000000	31.000000
14.615944	14.726239	61.000000	31.000000
14.619073	14.799028	57.000000	61.000000
14.743585	14.969980	62.000000	1.000000
14.802565	14.965105	58.000000	48.000000
15.138551	15.306896	61.000000	31.000000
15.150343	15.249028	66.000000	31.000000
15.252565	15.368665	66.000000	31.000000
15.311885	15.387350	62.000000	31.000000
15.390887	15.559232	62.000000	31.000000
15.393268	15.538393	67.000000	31.000000
15.554175	15.647055	58.000000	48.000000
15.555717	15.689232	67.000000	70.000000
15.561341	15.683245	61.000000	48.000000
15.881930	16.137350	62.000000	48.000000
15.896443	16.070592	67.000000	31.000000
16.148869	16.270774	66.000000	1.000000
16.368370	16.507690	63.000000	31.000000
16.369096	16.508415	67.000000	48.000000
16.382338	16.498438	72.000000	31.000000
16.628937	16.721817	63.000000	31.000000
16.631363	16.770683	67.000000	48.000000
16.633540	16.767055	72.000000	31.000000
16.726080	16.824765	62.000000	31.000000
16.880161	17.019481	67.000000	31.000000
16.881046	16.997146	72.000000	31.000000
17.140660	17.320615	63.000000	48.000000
17.141885	17.350864	67.000000	61.000000
17.147849	17.467123	74.000000	70.000000
17.576579	17.698483	63.000000	1.000000
17.576579	17.710093	72.000000	48.000000
17.580932	17.708642	67.000000	48.000000
17.785785	17.896080	72.000000	1.000000
17.887917	18.038846	63.000000	48.000000
17.896034	17.988914	67.000000	48.000000
17.896737	18.128937	72.000000	31.000000
17.992474	18.067939	67.000000	48.000000
18.041658	18.215808	63.000000	48.000000
18.070048	18.220978	67.000000	48.000000
18.133926	18.232610	71.000000	1.000000
18.376102	18.544447	57.000000	61.000000
18.379844	18.542384	63.000000	48.000000
18.393404	18.550139	67.000000	48.000000
18.406964	18.552089	72.000000	31.000000
18.637100	18.793835	53.000000	31.000000
18.646987	18.797917	63.000000	48.000000
18.647214	18.786533	57.000000	31.000000
18.653449	18.798574	67.000000	31.000000
18.663064	18.796579	72.000000	1.000000
18.874266	19.071635	57.000000	61.000000
18.877894	19.052044	53.000000	31.000000
18.886556	19.060706	63.000000	31.000000
18.906805	19.057735	67.000000	48.000000
18.915468	19.078007	72.000000	1.000000
19.143087	19.532021	57.000000	48.000000
19.149549	19.573313	63.000000	31.000000
19.156080	19.463744	69.000000	1.000000
19.163291	19.517395	74.000000	48.000000
19.544470	19.718620	72.000000	31.000000
19.572928	19.712248	67.000000	61.000000
19.577282	19.699186	63.000000	48.000000
19.924583	20.261273	70.000000	1.000000
20.422746	20.602701	62.000000	31.000000
20.439141	20.601681	70.000000	1.000000
20.684288	20.841023	62.000000	31.000000
20.700932	20.851862	70.000000	1.000000
20.922905	21.189935	62.000000	31.000000
20.933744	21.078869	70.000000	1.000000
21.180887	21.540796	58.000000	31.000000
21.191227	21.585966	62.000000	1.000000
21.197486	21.557395	72.000000	31.000000
21.603994	21.766533	70.000000	31.000000
21.607622	21.741137	62.000000	31.000000
21.945762	22.549481	51.000000	48.000000
21.950275	22.571409	58.000000	85.000000
21.966919	22.373268	62.000000	48.000000
21.970320	22.376669	67.000000	61.000000
22.354515	22.482225	70.000000	1.000000
22.374674	22.461749	62.000000	31.000000
22.380638	22.456102	67.000000	61.000000
22.461114	22.606239	67.000000	48.000000
22.466034	22.605354	62.000000	1.000000
22.690524	22.853064	58.000000	61.000000
22.694878	22.857418	62.000000	1.000000
22.707712	22.858642	67.000000	31.000000
22.712746	22.852066	70.000000	1.000000
22.920502	23.083041	51.000000	1.000000
22.929141	23.184561	62.000000	31.000000
22.929708	23.127078	58.000000	48.000000
22.950864	23.095989	67.000000	48.000000
22.952089	23.068189	70.000000	1.000000
23.179368	23.492837	51.000000	1.000000
23.187304	23.529799	62.000000	31.000000
23.187849	23.327168	57.000000	1.000000
23.204424	23.512089	72.000000	31.000000
23.601567	23.775717	70.000000	31.000000
23.608279	23.753404	62.000000	31.000000
23.972134	24.152089	60.000000	1.000000
23.973654	24.147803	55.000000	70.000000
23.989731	24.111635	63.000000	1.000000
24.361341	24.518075	60.000000	31.000000
24.364311	24.521046	63.000000	48.000000
24.610910	24.721205	60.000000	31.000000
24.692293	24.982542	45.000000	70.000000
24.713381	25.038461	55.000000	96.000000
24.723313	24.862633	60.000000	48.000000
24.729799	24.880728	63.000000	31.000000
24.867622	25.064991	60.000000	48.000000
24.883563	25.034493	63.000000	31.000000
25.207985	25.370524	55.000000	100.000000
25.215966	25.744220	45.000000	61.000000
25.221545	25.343449	60.000000	31.000000
25.347712	25.603132	60.000000	31.000000
25.371159	25.643994	55.000000	70.000000
25.605059	25.802429	60.000000	31.000000
25.644697	25.766601	55.000000	70.000000
25.958098	26.050978	60.000000	31.000000
26.053790	26.140864	60.000000	31.000000
26.141522	26.304062	60.000000	48.000000
26.149935	26.271839	55.000000	96.000000
26.464923	26.656488	50.000000	31.000000
26.480275	26.654424	60.000000	1.000000
26.498347	26.660887	65.000000	31.000000
26.707327	26.887282	50.000000	1.000000
26.720116	26.888461	60.000000	1.000000
26.729481	26.892021	65.000000	31.000000
26.963313	27.120048	50.000000	1.000000
26.981409	27.120728	60.000000	1.000000
26.986737	27.137667	65.000000	31.000000
27.222520	27.466329	50.000000	31.000000
27.229164	27.478778	60.000000	48.000000
27.236193	27.480003	65.000000	48.000000
27.467282	27.780751	50.000000	31.000000
27.481794	27.650139	60.000000	31.000000
27.485422	27.630547	65.000000	1.000000
27.631182	27.799527	65.000000	61.000000
27.655150	27.800275	60.000000	48.000000
27.864969	27.969459	64.000000	31.000000
27.874288	28.019413	63.000000	48.000000
27.901862	28.081817	60.000000	31.000000
27.988982	28.180547	64.000000	31.000000
28.218960	28.625309	58.000000	31.000000
28.229073	28.356783	69.000000	31.000000
28.359617	28.615037	69.000000	31.000000
28.410207	28.630796	62.000000	1.000000
28.647917	28.723381	69.000000	48.000000
28.648415	28.712270	58.000000	31.000000
28.652996	28.798121	62.000000	31.000000
28.972951	29.419935	62.000000	48.000000
28.977123	29.395082	58.000000	70.000000
28.988121	29.237735	69.000000	31.000000
29.240547	29.333427	69.000000	31.000000
29.336987	29.412452	69.000000	31.000000
29.397236	29.582996	58.000000	48.000000
29.414538	29.600298	69.000000	31.000000
29.422157	29.567282	62.000000	31.000000
29.746511	29.891635	53.000000	48.000000
29.754198	29.910932	62.000000	31.000000
29.757327	29.879232	58.000000	78.000000
29.760683	29.963858	69.000000	48.000000
29.992815	30.207599	61.000000	31.000000
29.998688	30.201862	56.000000	31.000000
30.006783	30.198347	65.000000	31.000000
30.016896	30.225876	72.000000	31.000000
30.265490	30.816964	53.000000	1.000000
30.267055	30.679209	58.000000	31.000000
30.272134	30.504334	62.000000	1.000000
30.285876	30.506465	69.000000	31.000000
30.511749	30.697508	69.000000	31.000000
30.525604	30.595263	62.000000	31.000000
30.698892	30.849821	69.000000	48.000000
30.701590	30.864130	58.000000	31.000000
30.703291	30.860025	62.000000	48.000000
31.015830	31.416375	53.000000	48.000000
31.024719	31.268529	58.000000	48.000000
31.037554	31.200093	62.000000	31.000000
31.042565	31.170275	69.000000	31.000000
31.175286	31.273971	69.000000	31.000000
31.205808	31.287078	62.000000	31.000000
31.271091	31.410411	58.000000	48.000000
31.277508	31.405218	69.000000	31.000000
31.288438	31.410343	62.000000	31.000000
31.529980	31.680910	58.000000	61.000000
31.534810	31.697350	62.000000	61.000000
31.545876	31.696805	67.000000	48.000000
31.782883	31.962837	52.000000	78.000000
31.789413	31.980978	57.000000	78.000000
31.795377	31.888257	60.000000	48.000000
31.805490	31.991250	66.000000	31.000000
31.890366	32.238665	62.000000	31.000000
31.967123	32.263200	53.000000	70.000000
31.981635	32.263200	58.000000	61.000000
32.011477	32.263200	67.000000	1.000000
