# onset,offset,note,velocity
0.003728	2.250259	40.000000	1.000000
0.004068	0.456857	64.000000	32.000000
0.004068	0.468467	59.000000	32.000000
0.004159	0.886517	47.000000	32.000000
0.004884	0.486698	56.000000	50.000000
0.004884	0.486698	52.000000	32.000000
0.485134	0.746358	64.000000	32.000000
0.488036	0.598331	56.000000	50.000000
0.490939	0.601234	52.000000	50.000000
0.493841	0.615746	59.000000	32.000000
0.603342	0.899397	56.000000	32.000000
0.604068	0.894317	52.000000	64.000000
0.619306	0.747016	59.000000	32.000000
0.750961	0.901891	64.000000	32.000000
0.752027	0.897152	59.000000	1.000000
0.887855	1.781823	47.000000	32.000000
0.895224	1.371234	52.000000	64.000000
0.902617	1.361211	56.000000	64.000000
0.912322	1.365111	59.000000	32.000000
0.921415	1.350984	64.000000	32.000000
1.362413	1.623637	64.000000	32.000000
1.366245	2.254408	56.000000	64.000000
1.369873	2.565701	59.000000	50.000000
1.371755	1.789714	52.000000	50.000000
1.625338	2.554136	64.000000	1.000000
1.794159	2.072798	47.000000	1.000000
1.794884	2.230259	52.000000	50.000000
2.093841	2.273796	47.000000	1.000000
2.255565	2.569034	56.000000	50.000000
2.256426	2.697605	52.000000	50.000000
2.275905	2.664839	47.000000	1.000000
2.566472	2.717401	64.000000	1.000000
2.573478	2.701188	56.000000	32.000000
2.576857	2.698762	59.000000	1.000000
2.688853	3.159057	47.000000	1.000000
2.699011	3.163410	52.000000	1.000000
2.706925	2.799805	56.000000	74.000000
2.714658	2.830757	59.000000	50.000000
2.723864	2.834159	64.000000	32.000000
2.800463	2.986222	56.000000	50.000000
2.833592	2.938082	59.000000	1.000000
2.836268	2.993002	64.000000	32.000000
2.941642	3.144816	59.000000	32.000000
2.991234	3.159578	56.000000	50.000000
2.995837	3.158376	64.000000	1.000000
3.160485	3.392685	64.000000	50.000000
3.165315	3.269805	56.000000	64.000000
3.167764	3.260644	52.000000	32.000000
3.167968	3.272458	59.000000	32.000000
3.259918	3.416653	47.000000	1.000000
3.265655	3.428195	52.000000	32.000000
3.272639	3.406154	56.000000	50.000000
3.275293	3.391392	59.000000	1.000000
3.318694	3.533478	40.000000	1.000000
3.394385	3.963274	64.000000	32.000000
3.396404	3.976902	59.000000	50.000000
3.411166	4.003274	56.000000	64.000000
3.432481	4.012980	52.000000	32.000000
3.439805	3.532685	47.000000	1.000000
3.543569	4.031188	40.000000	1.000000
3.552934	4.023138	47.000000	32.000000
3.995202	4.447991	64.000000	32.000000
4.004068	4.456857	59.000000	32.000000
4.014317	4.455497	56.000000	64.000000
4.018376	4.447946	52.000000	32.000000
4.024703	4.436857	47.000000	32.000000
4.034136	5.357673	40.000000	1.000000
4.441211	4.911415	47.000000	1.000000
4.448127	4.935746	52.000000	50.000000
4.455497	4.919896	56.000000	74.000000
4.465791	4.924385	59.000000	50.000000
4.469125	4.892889	64.000000	32.000000
4.917991	5.219850	64.000000	32.000000
4.922299	5.044204	56.000000	64.000000
4.924476	5.052186	59.000000	1.000000
4.937537	5.332277	47.000000	1.000000
4.940009	5.241868	52.000000	64.000000
5.049941	5.154431	56.000000	50.000000
5.057197	5.173297	59.000000	32.000000
5.155088	5.468558	56.000000	32.000000
5.175406	5.454045	59.000000	32.000000
5.244476	5.476676	52.000000	50.000000
5.353320	5.504249	47.000000	1.000000
5.359125	5.620349	40.000000	1.000000
5.482957	5.755791	59.000000	32.000000
5.483206	5.767651	56.000000	32.000000
5.503229	5.607719	52.000000	32.000000
5.508535	5.624635	47.000000	1.000000
5.620349	5.794499	40.000000	1.000000
5.628921	5.774045	47.000000	1.000000
5.630145	5.769465	52.000000	32.000000
5.769488	6.036517	64.000000	50.000000
5.781642	6.193796	59.000000	50.000000
5.791506	6.186245	56.000000	74.000000
5.796245	6.173569	52.000000	32.000000
5.798649	6.170168	47.000000	1.000000
6.171098	6.658717	47.000000	1.000000
6.177583	6.357537	52.000000	32.000000
6.188898	6.339828	56.000000	89.000000
6.195769	6.306063	59.000000	50.000000
6.197220	6.319125	64.000000	32.000000
6.310349	6.455474	59.000000	32.000000
6.343002	6.464907	64.000000	32.000000
6.345565	6.450054	56.000000	50.000000
6.359760	6.650009	52.000000	32.000000
6.454340	6.634295	56.000000	50.000000
6.458308	6.615043	59.000000	1.000000
6.469193	6.614317	64.000000	1.000000
6.631664	6.788399	64.000000	50.000000
6.635678	6.763388	56.000000	64.000000
6.638921	6.766630	59.000000	32.000000
6.653637	6.746517	52.000000	32.000000
6.659102	6.734567	47.000000	32.000000
6.738195	6.912345	40.000000	1.000000
6.751188	6.913728	47.000000	32.000000
6.752254	6.908989	52.000000	32.000000
6.765497	6.887401	56.000000	64.000000
6.768014	6.895723	59.000000	32.000000
6.791506	6.878580	64.000000	50.000000
6.890236	7.482345	56.000000	50.000000
6.897832	7.466721	59.000000	50.000000
6.912549	7.504658	52.000000	74.000000
6.917288	7.039193	47.000000	32.000000
6.928240	7.032730	40.000000	1.000000
7.037016	8.842367	40.000000	1.000000
7.042753	7.901891	47.000000	32.000000
7.480553	7.747583	64.000000	32.000000
7.485859	7.619374	56.000000	64.000000
7.493909	7.639034	59.000000	50.000000
7.509147	7.607832	52.000000	32.000000
7.612844	7.908898	52.000000	32.000000
7.620757	7.760077	56.000000	32.000000
7.640417	7.744907	59.000000	1.000000
7.749941	7.929896	64.000000	32.000000
7.750644	7.930599	59.000000	32.000000
7.779578	7.930508	56.000000	50.000000
7.914748	8.187583	47.000000	32.000000
7.922730	8.404544	52.000000	32.000000
7.934068	8.392662	56.000000	74.000000
7.940689	8.393478	59.000000	50.000000
7.945791	8.363751	64.000000	50.000000
8.389692	8.685746	64.000000	32.000000
8.393660	8.532980	56.000000	32.000000
8.398014	8.537333	59.000000	1.000000
8.408898	8.524998	52.000000	1.000000
8.411075	8.509760	47.000000	1.000000
8.518376	8.802821	47.000000	1.000000
8.527107	8.724476	52.000000	1.000000
8.537243	8.705587	56.000000	32.000000
8.540168	8.702707	59.000000	32.000000
8.687061	9.563615	64.000000	32.000000
8.706948	9.258422	56.000000	1.000000
8.712073	9.286766	59.000000	1.000000
8.729873	8.996902	52.000000	32.000000
8.843365	9.029125	40.000000	1.000000
9.006902	9.152027	47.000000	1.000000
9.007311	9.297560	52.000000	32.000000
9.030032	9.146132	40.000000	1.000000
9.150417	9.318762	40.000000	1.000000
9.156313	9.231778	47.000000	1.000000
9.235338	9.310803	47.000000	1.000000
9.281642	9.589306	56.000000	50.000000
9.298898	9.728467	52.000000	50.000000
9.315088	10.220667	47.000000	1.000000
9.319420	10.631347	40.000000	1.000000
9.586449	9.748989	64.000000	1.000000
9.591188	9.736313	56.000000	32.000000
9.600327	9.733841	59.000000	50.000000
9.729533	10.199737	52.000000	50.000000
9.739873	9.867583	56.000000	64.000000
9.748286	9.846971	59.000000	50.000000
9.754000	9.858490	64.000000	1.000000
9.850531	10.024680	59.000000	32.000000
9.872594	10.017719	56.000000	32.000000
9.903410	10.170440	64.000000	1.000000
10.023456	10.191800	56.000000	32.000000
10.029692	10.203841	59.000000	32.000000
10.198921	10.454340	64.000000	32.000000
10.205519	10.327424	56.000000	82.000000
10.205950	10.322050	59.000000	50.000000
10.216426	10.320916	52.000000	50.000000
10.221506	10.320190	47.000000	1.000000
10.323751	10.503705	47.000000	1.000000
10.324159	10.457673	59.000000	32.000000
10.325202	10.510961	52.000000	50.000000
10.331710	10.482639	56.000000	64.000000
10.458286	11.032980	64.000000	32.000000
10.458331	11.038830	59.000000	50.000000
10.486200	11.078308	56.000000	50.000000
10.515973	10.649488	52.000000	50.000000
10.524680	10.640780	47.000000	1.000000
10.642254	12.110916	40.000000	1.000000
10.650145	11.073909	52.000000	74.000000
10.653048	11.088422	47.000000	1.000000
11.049669	11.310893	64.000000	32.000000
11.065791	11.332821	59.000000	50.000000
11.079193	11.201098	52.000000	32.000000
11.080100	11.335519	56.000000	64.000000
11.088626	12.267039	47.000000	32.000000
11.205383	11.362118	52.000000	32.000000
11.315293	11.512662	64.000000	32.000000
11.338467	11.495202	56.000000	50.000000
11.362776	11.490485	52.000000	1.000000
11.492594	11.968603	52.000000	32.000000
11.498762	11.951551	56.000000	74.000000
11.505859	11.627764	59.000000	50.000000
11.514771	11.619261	64.000000	32.000000
11.624998	11.921052	64.000000	32.000000
11.632027	11.922277	59.000000	32.000000
11.949193	12.198807	64.000000	32.000000
11.957084	12.073184	56.000000	64.000000
11.959351	12.197356	59.000000	32.000000
11.971687	12.076177	52.000000	50.000000
12.076744	12.227673	56.000000	50.000000
12.077560	12.240100	52.000000	50.000000
12.111732	12.401982	40.000000	1.000000
12.201234	12.770122	59.000000	50.000000
12.203410	12.737469	64.000000	32.000000
12.231959	12.545429	56.000000	32.000000
12.262526	12.645655	64.000000	32.000000
12.267855	12.383955	47.000000	32.000000
12.388240	12.643660	47.000000	1.000000
12.402662	14.109329	40.000000	1.000000
12.545655	12.789465	56.000000	1.000000
12.645043	12.819193	47.000000	1.000000
12.651120	12.796245	52.000000	1.000000
12.784975	13.057810	64.000000	32.000000
12.799624	13.078263	59.000000	32.000000
12.809873	13.076902	56.000000	32.000000
12.813592	12.906472	52.000000	32.000000
12.820576	12.930871	47.000000	1.000000
12.928898	13.085633	64.000000	1.000000
12.932254	13.431483	47.000000	1.000000
13.078512	13.212027	56.000000	32.000000
13.078512	13.235247	59.000000	1.000000
13.078603	13.241143	64.000000	1.000000
13.102980	13.219079	52.000000	32.000000
13.222639	13.402594	52.000000	50.000000
13.228649	13.356358	56.000000	82.000000
13.235905	13.369420	59.000000	32.000000
13.241800	13.357900	64.000000	32.000000
13.360644	13.691528	56.000000	50.000000
13.383229	13.667673	64.000000	1.000000
13.394748	13.696608	59.000000	32.000000
13.403229	13.705088	52.000000	32.000000
13.689964	13.858308	64.000000	50.000000
13.692231	13.994091	56.000000	64.000000
13.697220	13.813320	59.000000	32.000000
13.709079	13.825179	52.000000	50.000000
13.711007	13.815497	47.000000	1.000000
13.816880	13.991029	59.000000	1.000000
13.821234	13.890893	47.000000	1.000000
13.830190	13.894045	52.000000	50.000000
13.862594	13.961279	64.000000	32.000000
13.898807	14.049737	45.000000	32.000000
13.962662	14.061347	64.000000	1.000000
13.996766	14.141891	59.000000	32.000000
14.111392	15.016971	40.000000	1.000000
14.118762	14.995315	45.000000	89.000000
14.128331	14.610145	52.000000	64.000000
14.137469	14.590259	57.000000	64.000000
14.144000	14.254295	59.000000	32.000000
14.151256	14.592435	64.000000	32.000000
14.593365	14.872005	57.000000	64.000000
14.593751	14.849170	64.000000	32.000000
14.599896	14.826290	59.000000	32.000000
14.614408	15.014952	52.000000	50.000000
14.829420	15.015179	59.000000	1.000000
14.872957	15.023887	57.000000	50.000000
14.875338	15.026268	64.000000	32.000000
15.011415	16.236268	45.000000	74.000000
15.018376	16.771483	52.000000	64.000000
15.029601	15.482390	57.000000	64.000000
15.037832	15.484816	59.000000	32.000000
15.047968	15.454317	64.000000	32.000000
15.481506	15.603410	64.000000	50.000000
15.483683	15.593977	57.000000	50.000000
15.486585	15.596880	59.000000	1.000000
15.598989	15.732503	57.000000	50.000000
15.601166	15.752095	59.000000	1.000000
15.608422	15.736132	64.000000	32.000000
15.733887	15.902231	57.000000	32.000000
15.756381	16.017605	64.000000	32.000000
15.757107	15.919646	59.000000	1.000000
15.918127	16.353501	57.000000	1.000000
15.920304	16.059624	59.000000	1.000000
16.041891	16.332141	64.000000	1.000000
16.070440	16.349079	59.000000	1.000000
16.354476	16.621506	64.000000	32.000000
16.363138	16.456018	59.000000	32.000000
16.461029	16.780304	59.000000	1.000000
16.624227	16.786766	64.000000	1.000000
16.655429	16.783138	57.000000	32.000000
16.777129	17.090599	52.000000	32.000000
16.788150	16.962299	57.000000	64.000000
16.791982	16.919692	59.000000	32.000000
16.797583	16.942707	64.000000	32.000000
16.925429	17.058943	59.000000	32.000000
16.959306	17.069601	64.000000	32.000000
17.061778	17.259147	59.000000	32.000000
17.063751	17.249510	57.000000	50.000000
17.071710	17.234249	64.000000	32.000000
17.255224	17.371324	64.000000	50.000000
17.257107	17.547356	52.000000	32.000000
17.259805	17.364295	59.000000	32.000000
17.260327	17.538966	58.000000	50.000000
17.367855	17.501370	59.000000	32.000000
17.377061	17.498966	64.000000	32.000000
17.502005	17.687764	59.000000	32.000000
17.542435	17.658535	64.000000	1.000000
17.542526	17.676041	57.000000	64.000000
17.549782	17.654272	52.000000	32.000000
17.653252	18.140871	45.000000	64.000000
17.665791	18.130190	52.000000	64.000000
17.675882	17.977741	64.000000	50.000000
17.678875	18.125859	57.000000	82.000000
17.690599	18.108558	59.000000	50.000000
17.977878	18.099782	64.000000	32.000000
18.124385	18.391415	64.000000	32.000000
18.130213	18.559782	58.000000	64.000000
18.135111	18.262821	59.000000	32.000000
18.135111	18.245406	52.000000	64.000000
18.143819	18.236698	45.000000	32.000000
18.243161	18.556630	45.000000	32.000000
18.248240	18.550100	52.000000	50.000000
18.264204	18.566063	59.000000	50.000000
18.392209	18.560553	64.000000	32.000000
18.553297	20.259964	52.000000	64.000000
18.563909	19.022503	57.000000	89.000000
18.569193	18.998762	64.000000	64.000000
18.569805	18.964544	59.000000	64.000000
18.967401	19.449215	59.000000	32.000000
19.023274	19.859193	58.000000	50.000000
19.024907	19.297741	64.000000	32.000000
19.299964	19.572798	64.000000	50.000000
19.450644	19.572549	59.000000	1.000000
19.589170	19.850395	59.000000	1.000000
19.865814	20.115429	64.000000	32.000000
19.867878	20.146517	58.000000	32.000000
19.872957	19.971642	59.000000	32.000000
19.973728	20.147878	59.000000	1.000000
20.120168	20.276902	64.000000	1.000000
20.147243	20.269147	70.000000	1.000000
20.152163	20.279873	59.000000	1.000000
20.265088	20.741098	52.000000	32.000000
20.271256	20.364136	57.000000	82.000000
20.280531	20.414045	59.000000	50.000000
20.284816	20.400916	64.000000	1.000000
20.366971	20.738490	57.000000	74.000000
20.403025	20.565565	64.000000	32.000000
20.415429	20.554748	59.000000	32.000000
20.558308	20.732458	59.000000	32.000000
20.566948	20.712073	64.000000	32.000000
20.736676	20.881800	64.000000	50.000000
20.740372	20.873887	59.000000	32.000000
20.742254	20.869964	58.000000	50.000000
20.744431	20.866336	52.000000	50.000000
20.745156	20.861256	45.000000	32.000000
20.864816	21.073796	45.000000	64.000000
20.868444	21.025179	52.000000	32.000000
20.873524	21.012844	57.000000	64.000000
20.874544	21.054499	59.000000	32.000000
20.886086	21.048626	64.000000	32.000000
21.051460	21.608739	64.000000	32.000000
21.058059	21.626948	59.000000	64.000000
21.061370	21.252934	55.000000	100.000000
21.067923	21.143388	51.000000	32.000000
21.075156	21.185451	47.000000	32.000000
21.082277	21.175156	40.000000	1.000000
21.180893	21.668512	40.000000	32.000000
21.189011	21.659215	47.000000	50.000000
21.192662	21.657061	52.000000	50.000000
21.637469	21.887084	64.000000	32.000000
21.647107	21.774816	59.000000	50.000000
21.650780	21.772685	56.000000	64.000000
21.658717	21.769011	52.000000	32.000000
21.659442	21.758127	47.000000	50.000000
21.672503	22.055633	40.000000	32.000000
21.763138	22.059193	47.000000	50.000000
21.771846	21.928580	52.000000	50.000000
21.776971	21.916290	56.000000	50.000000
21.780553	21.890848	59.000000	50.000000
21.890032	22.081596	64.000000	50.000000
21.891506	22.059850	59.000000	50.000000
21.922027	22.072957	56.000000	50.000000
21.934317	22.062027	52.000000	32.000000
22.060122	23.151460	40.000000	32.000000
22.064000	22.865088	47.000000	64.000000
22.067039	22.577878	52.000000	74.000000
22.075791	22.766585	56.000000	74.000000
22.077197	22.547401	59.000000	82.000000
22.082980	22.535769	64.000000	64.000000
22.555474	22.834113	64.000000	50.000000
22.562844	22.841483	59.000000	50.000000
22.580009	22.852844	52.000000	50.000000
22.771324	22.852594	56.000000	1.000000
22.856721	23.129556	52.000000	50.000000
22.866857	23.244181	47.000000	50.000000
23.097810	23.388059	64.000000	1.000000
23.113637	23.398082	59.000000	32.000000
23.129397	23.251302	56.000000	50.000000
23.131279	23.241574	52.000000	32.000000
23.156381	23.446630	40.000000	1.000000
23.242957	23.434522	52.000000	32.000000
23.244907	23.448082	47.000000	50.000000
23.416880	23.660689	64.000000	32.000000
23.418966	23.569896	56.000000	50.000000
23.426313	23.664317	59.000000	1.000000
23.440259	23.805973	52.000000	64.000000
23.450032	23.821551	47.000000	50.000000
23.450984	24.629397	40.000000	1.000000
23.572730	23.665610	56.000000	32.000000
23.662390	23.848150	64.000000	1.000000
23.665293	23.845247	59.000000	1.000000
23.668444	23.836789	56.000000	64.000000
23.825406	24.614884	47.000000	50.000000
23.830871	24.295270	52.000000	50.000000
23.837424	24.307628	56.000000	82.000000
23.845905	23.938785	59.000000	32.000000
23.853887	23.975791	64.000000	1.000000
23.942345	24.012005	59.000000	32.000000
23.978626	24.292095	64.000000	32.000000
24.310848	24.601098	57.000000	50.000000
24.311574	24.439283	64.000000	50.000000
24.315927	24.617787	52.000000	32.000000
24.434862	24.609011	59.000000	32.000000
24.445020	24.584340	64.000000	50.000000
24.604249	25.173138	56.000000	64.000000
24.605315	25.040689	64.000000	32.000000
24.612571	25.146630	59.000000	32.000000
24.622390	25.179669	52.000000	50.000000
24.625814	24.741914	47.000000	32.000000
24.632050	24.730735	40.000000	1.000000
24.747651	25.183025	47.000000	32.000000
24.753887	26.460553	40.000000	1.000000
25.043252	25.136132	64.000000	32.000000
25.162912	25.441551	64.000000	32.000000
25.172413	25.601982	59.000000	32.000000
25.175066	25.302776	56.000000	32.000000
25.182322	25.281007	52.000000	32.000000
25.186676	25.273751	47.000000	32.000000
25.291098	25.587152	47.000000	1.000000
25.298331	25.588580	52.000000	50.000000
25.304884	25.589329	56.000000	32.000000
25.443048	25.605587	64.000000	1.000000
25.588512	27.776993	47.000000	32.000000
25.593116	26.643819	52.000000	64.000000
25.598921	26.051710	56.000000	82.000000
25.607333	26.060122	59.000000	32.000000
25.611324	26.040893	64.000000	1.000000
26.051619	26.190939	64.000000	32.000000
26.060327	26.582776	59.000000	32.000000
26.193048	26.303342	64.000000	1.000000
26.325769	26.465088	64.000000	1.000000
26.462889	28.157946	40.000000	1.000000
26.586154	26.876404	59.000000	1.000000
26.647356	26.740236	52.000000	32.000000
26.744522	26.918671	52.000000	1.000000
26.898036	27.037356	56.000000	50.000000
26.898399	27.043524	64.000000	32.000000
26.904930	27.038444	59.000000	1.000000
26.919329	27.325678	52.000000	32.000000
27.040168	27.196902	56.000000	50.000000
27.041279	27.168989	59.000000	32.000000
27.049261	27.165361	64.000000	1.000000
27.169646	27.332186	64.000000	1.000000
27.170372	27.332912	59.000000	1.000000
27.202639	27.330349	56.000000	32.000000
27.325791	27.505746	52.000000	50.000000
27.334635	27.502980	56.000000	50.000000
27.338626	27.495361	59.000000	32.000000
27.343002	27.482322	64.000000	32.000000
27.495315	27.634635	64.000000	32.000000
27.498195	27.608490	59.000000	32.000000
27.508580	27.618875	52.000000	64.000000
27.621710	27.795859	52.000000	64.000000
27.635293	27.763002	64.000000	1.000000
27.785429	27.907333	64.000000	32.000000
27.790485	28.005270	59.000000	32.000000
27.796517	27.883592	52.000000	64.000000
27.912345	28.011029	64.000000	32.000000
28.189034	28.665043	54.000000	32.000000
28.193501	28.657900	59.000000	1.000000
28.205247	28.501302	64.000000	1.000000
28.506132	28.657061	64.000000	1.000000
28.658172	29.081937	59.000000	32.000000
28.659170	28.926200	64.000000	32.000000
28.675315	28.779805	54.000000	50.000000
28.677719	28.799624	47.000000	1.000000
28.783365	29.073615	54.000000	50.000000
28.794363	29.061392	59.000000	32.000000
28.930621	29.093161	64.000000	1.000000
29.077492	29.565111	54.000000	64.000000
29.083728	29.542322	59.000000	32.000000
29.087605	29.534590	59.000000	32.000000
29.095270	29.536449	64.000000	1.000000
29.544590	30.142503	59.000000	32.000000
29.544748	29.684068	64.000000	32.000000
29.566177	30.146676	54.000000	50.000000
29.566608	30.164522	47.000000	1.000000
29.682549	30.141143	59.000000	32.000000
29.689079	29.828399	64.000000	32.000000
29.830508	29.993048	64.000000	1.000000
29.994431	30.122141	64.000000	1.000000
30.143116	30.270825	64.000000	32.000000
30.143864	30.259964	59.000000	1.000000
30.151370	30.470644	54.000000	50.000000
30.152571	30.268671	59.000000	1.000000
30.262073	30.471052	59.000000	1.000000
30.272934	30.458694	59.000000	1.000000
30.275837	30.461596	64.000000	1.000000
30.462980	30.730009	64.000000	1.000000
30.469510	30.887469	59.000000	32.000000
30.474204	30.886358	59.000000	32.000000
30.475655	30.852980	54.000000	50.000000
30.733546	30.896086	64.000000	1.000000
30.861732	31.778921	40.000000	1.000000
30.872050	31.551234	47.000000	32.000000
30.876925	31.080100	54.000000	74.000000
30.887084	31.020599	59.000000	50.000000
30.892934	31.072889	59.000000	50.000000
30.898921	31.038240	64.000000	32.000000
31.021256	31.172186	59.000000	50.000000
31.042526	31.187651	64.000000	1.000000
31.075701	31.180190	59.000000	32.000000
31.084385	31.357220	54.000000	50.000000
31.177197	31.368762	59.000000	1.000000
31.182299	31.362254	59.000000	1.000000
31.189034	31.339964	64.000000	1.000000
31.368921	31.566290	64.000000	32.000000
31.370735	31.486834	59.000000	32.000000
31.375247	31.497152	59.000000	32.000000
31.384227	31.546766	54.000000	64.000000
31.490395	31.641324	59.000000	32.000000
31.502889	31.642209	59.000000	32.000000
31.644317	31.806857	59.000000	1.000000
31.661619	31.800939	64.000000	32.000000
31.667379	31.783478	56.000000	1.000000
31.778921	32.359420	40.000000	1.000000
31.788603	31.869873	46.000000	32.000000
31.796381	32.272390	52.000000	50.000000
31.805905	32.258694	57.000000	64.000000
31.812594	32.265383	59.000000	50.000000
31.821188	32.244952	64.000000	32.000000
31.891551	32.205020	45.000000	32.000000
32.259760	32.532594	64.000000	32.000000
32.260735	32.388444	57.000000	64.000000
32.265814	32.387719	59.000000	32.000000
32.276698	32.381188	52.000000	32.000000
32.371959	32.656404	45.000000	32.000000
32.381823	32.683683	52.000000	32.000000
32.390553	32.500848	57.000000	50.000000
32.392730	32.532050	59.000000	1.000000
32.504408	32.695973	57.000000	64.000000
32.532707	32.701052	59.000000	32.000000
32.535020	32.697560	64.000000	1.000000
32.683728	34.390395	45.000000	64.000000
32.689329	33.147923	52.000000	50.000000
32.696630	33.149420	57.000000	82.000000
32.701710	33.142889	59.000000	50.000000
32.706200	33.112549	64.000000	32.000000
33.141098	33.501007	64.000000	32.000000
33.147447	33.553796	59.000000	32.000000
33.150349	33.841143	52.000000	32.000000
33.151075	33.569034	57.000000	50.000000
33.505905	33.587175	64.000000	1.000000
33.572662	33.828082	57.000000	32.000000
33.575565	33.854204	59.000000	32.000000
33.843320	34.029079	52.000000	32.000000
33.848626	34.011166	57.000000	32.000000
33.855156	34.006086	59.000000	1.000000
33.862844	34.013773	64.000000	1.000000
34.018059	34.134159	64.000000	32.000000
34.018354	34.296993	57.000000	32.000000
34.022707	34.133002	59.000000	32.000000
34.031188	34.420122	52.000000	32.000000
34.135837	34.280961	59.000000	32.000000
34.136268	34.275587	64.000000	32.000000
34.279147	34.435882	64.000000	1.000000
34.299238	34.426948	57.000000	64.000000
34.305565	34.433274	59.000000	32.000000
34.415043	35.187107	45.000000	64.000000
34.421007	34.902821	52.000000	32.000000
34.430508	34.598853	57.000000	74.000000
34.436109	34.563819	59.000000	32.000000
34.440893	34.556993	64.000000	1.000000
34.560531	34.868195	64.000000	32.000000
34.565202	34.884476	59.000000	1.000000
34.602413	34.892662	57.000000	64.000000
34.891823	35.031143	64.000000	50.000000
34.894726	35.092095	57.000000	64.000000
34.896902	35.024612	59.000000	32.000000
34.907787	35.018082	52.000000	50.000000
35.002163	35.205338	40.000000	1.000000
35.021642	35.108717	52.000000	50.000000
35.027424	35.120304	59.000000	32.000000
35.033252	35.143546	64.000000	32.000000
35.122413	35.331392	59.000000	32.000000
35.145655	35.319805	64.000000	1.000000
35.209034	35.319329	47.000000	32.000000
35.217583	35.316268	40.000000	1.000000
35.318376	38.441460	40.000000	1.000000
35.322889	37.952549	47.000000	50.000000
35.327243	35.785837	52.000000	50.000000
35.337129	35.778308	59.000000	32.000000
35.340780	35.770349	64.000000	32.000000
35.781188	36.204952	64.000000	32.000000
35.782163	35.915678	56.000000	50.000000
35.788694	36.200848	59.000000	32.000000
35.791596	35.901891	52.000000	32.000000
35.905451	36.195701	52.000000	32.000000
36.198195	36.674204	52.000000	50.000000
36.205156	36.681166	56.000000	74.000000
36.209601	36.685610	59.000000	32.000000
36.216562	36.379102	64.000000	32.000000
36.380485	36.450145	64.000000	1.000000
36.679034	36.946063	64.000000	32.000000
36.681937	37.111506	56.000000	50.000000
36.686290	37.237764	59.000000	1.000000
36.695565	37.101914	52.000000	50.000000
36.947016	37.214045	64.000000	32.000000
37.103524	37.260259	52.000000	32.000000
37.217923	37.525587	64.000000	1.000000
37.244227	37.348717	56.000000	32.000000
37.250576	37.378286	59.000000	1.000000
37.265995	37.353070	52.000000	1.000000
37.368966	37.525701	52.000000	1.000000
37.378399	37.540939	56.000000	32.000000
37.380395	37.537129	59.000000	1.000000
37.542322	37.687447	56.000000	50.000000
37.542526	37.797946	64.000000	32.000000
37.548671	37.664771	59.000000	1.000000
37.548853	37.676562	52.000000	1.000000
37.677923	37.962367	52.000000	32.000000
37.687197	37.803297	59.000000	1.000000
37.803252	37.983206	64.000000	1.000000
37.806132	37.957061	59.000000	1.000000
37.957673	38.439488	47.000000	32.000000
37.964340	38.150100	52.000000	32.000000
37.974998	38.079488	56.000000	74.000000
37.980213	38.102118	59.000000	32.000000
37.985315	38.089805	64.000000	1.000000
38.080145	38.248490	56.000000	50.000000
38.094794	38.257333	64.000000	32.000000
38.107129	38.258059	59.000000	32.000000
38.153637	38.438082	52.000000	32.000000
38.253501	38.410236	56.000000	50.000000
38.258717	38.403841	59.000000	32.000000
38.261619	38.395134	64.000000	32.000000
38.418150	38.859329	56.000000	82.000000
38.418286	38.638875	64.000000	50.000000
38.424091	38.604045	59.000000	50.000000
38.440440	38.539125	52.000000	32.000000
38.443002	38.547492	47.000000	32.000000
38.448240	38.842980	40.000000	1.000000
38.543410	38.851075	52.000000	50.000000
38.551778	38.853637	47.000000	32.000000
38.609782	38.847787	59.000000	32.000000
38.643161	38.869556	64.000000	32.000000
38.846993	40.617515	40.000000	1.000000
38.855406	39.331415	47.000000	50.000000
38.859283	39.329488	52.000000	74.000000
38.863819	39.304998	56.000000	50.000000
38.871324	39.312503	59.000000	64.000000
38.877560	39.283909	64.000000	32.000000
39.304091	39.745270	64.000000	32.000000
39.307220	39.440735	56.000000	50.000000
39.315111	39.744680	59.000000	32.000000
39.331166	39.424045	52.000000	50.000000
39.336971	39.412435	47.000000	32.000000
39.417447	40.636494	47.000000	50.000000
39.425429	39.727288	52.000000	50.000000
39.729782	40.205791	52.000000	64.000000
39.737515	40.172889	56.000000	74.000000
39.746993	40.170757	59.000000	50.000000
39.747878	40.171642	64.000000	50.000000
40.172163	40.328898	59.000000	32.000000
40.196585	40.335905	64.000000	32.000000
40.196834	40.324544	56.000000	50.000000
40.207719	40.318014	52.000000	32.000000
40.320848	40.640122	52.000000	1.000000
40.327379	40.739533	56.000000	32.000000
40.332458	41.040667	59.000000	32.000000
40.340916	40.445406	64.000000	32.000000
40.470735	40.998989	64.000000	1.000000
40.622776	40.802730	40.000000	1.000000
40.640190	40.750485	52.000000	1.000000
40.767832	40.895542	52.000000	50.000000
40.767946	41.040780	56.000000	50.000000
40.788943	40.893433	47.000000	1.000000
40.803388	41.076222	40.000000	1.000000
40.897696	41.054431	47.000000	32.000000
40.899102	41.055837	52.000000	50.000000
41.023161	41.307605	64.000000	32.000000
41.040735	41.174249	59.000000	32.000000
41.058150	41.203274	56.000000	50.000000
41.058717	41.476676	47.000000	1.000000
41.060100	41.193615	52.000000	1.000000
41.079918	41.468853	40.000000	1.000000
41.178535	41.323660	59.000000	32.000000
41.197175	41.336494	52.000000	1.000000
41.203932	41.325837	56.000000	1.000000
41.330825	41.487560	64.000000	32.000000
41.331574	41.494113	56.000000	32.000000
41.335927	41.498467	59.000000	32.000000
41.337152	41.482277	52.000000	1.000000
41.471755	41.674930	40.000000	1.000000
41.479737	41.659692	47.000000	32.000000
41.485111	41.659261	52.000000	32.000000
41.495497	41.646426	56.000000	64.000000
41.500576	41.634091	59.000000	50.000000
41.501279	41.617379	64.000000	32.000000
41.640531	41.785655	64.000000	32.000000
41.647084	41.774794	56.000000	64.000000
41.651438	41.773342	59.000000	32.000000
41.661370	41.765859	52.000000	32.000000
41.664703	41.757583	47.000000	32.000000
41.675655	41.954295	40.000000	1.000000
41.762594	41.948354	47.000000	32.000000
41.768694	41.942844	52.000000	1.000000
41.775451	41.926381	56.000000	32.000000
41.778354	41.929283	59.000000	32.000000
41.790667	41.918376	64.000000	1.000000
41.927016	42.199850	64.000000	32.000000
41.929941	42.069261	56.000000	74.000000
41.935020	42.190440	59.000000	32.000000
41.947129	42.346400	52.000000	50.000000
41.952639	42.346400	47.000000	50.000000
41.955723	42.346400	40.000000	1.000000
42.070644	42.192549	56.000000	32.000000
42.196154	42.346400	59.000000	32.000000
42.202685	42.346400	64.000000	32.000000
42.209170	42.346400	56.000000	32.000000
