# onset,offset,note,velocity
0.250547	0.471137	63.000000	32.000000
0.253449	0.468234	67.000000	50.000000
0.258529	0.601023	74.000000	32.000000
1.509595	1.666329	58.000000	1.000000
1.515490	1.776715	63.000000	32.000000
1.521295	1.788325	67.000000	50.000000
1.527282	1.637576	74.000000	32.000000
1.643313	1.834878	72.000000	1.000000
1.879322	2.030252	58.000000	89.000000
1.884674	2.041409	63.000000	50.000000
1.889753	2.058098	67.000000	32.000000
1.897508	2.036828	74.000000	32.000000
2.992452	3.282701	60.000000	32.000000
3.005649	3.284288	65.000000	32.000000
3.012180	3.290819	69.000000	50.000000
3.017758	3.128053	75.000000	1.000000
3.133790	3.331159	74.000000	1.000000
3.387644	3.538574	60.000000	1.000000
3.394288	3.551023	65.000000	32.000000
3.397191	3.641000	69.000000	50.000000
3.404447	3.572792	75.000000	32.000000
3.638325	3.812474	74.000000	32.000000
3.642157	3.804697	69.000000	32.000000
5.013155	5.703948	58.000000	74.000000
5.025604	5.176533	62.000000	32.000000
5.029957	5.134447	65.000000	32.000000
5.039164	5.178483	72.000000	32.000000
5.138710	5.388325	65.000000	32.000000
5.181522	5.483381	62.000000	32.000000
5.182769	5.368529	72.000000	1.000000
5.399459	5.538778	72.000000	1.000000
5.416805	5.527100	65.000000	32.000000
5.511137	5.609821	62.000000	32.000000
5.528483	5.644583	65.000000	1.000000
5.540887	5.633767	72.000000	1.000000
5.612656	5.717146	62.000000	32.000000
5.637327	5.736012	72.000000	1.000000
5.645966	5.733041	65.000000	32.000000
5.722883	5.821567	62.000000	32.000000
5.738053	5.923812	65.000000	32.000000
5.741023	5.938393	72.000000	1.000000
5.823676	5.945581	62.000000	1.000000
6.786261	6.942996	58.000000	82.000000
6.799504	6.950434	63.000000	64.000000
6.803132	6.971477	67.000000	50.000000
6.809118	7.023903	74.000000	32.000000
7.272134	7.661068	50.000000	32.000000
7.282542	7.630842	67.000000	50.000000
7.289073	7.608347	70.000000	32.000000
7.299005	7.595059	77.000000	1.000000
8.550706	8.724855	57.000000	95.000000
8.556465	8.701590	63.000000	50.000000
8.562270	8.719005	66.000000	50.000000
8.569300	8.714424	72.000000	32.000000
8.812497	8.980842	57.000000	74.000000
8.818030	8.968960	63.000000	32.000000
8.822384	8.973313	66.000000	32.000000
8.830116	8.986851	72.000000	32.000000
9.053790	9.210524	57.000000	89.000000
9.064629	9.209753	63.000000	50.000000
9.069708	9.214833	66.000000	32.000000
9.077463	9.234198	72.000000	32.000000
9.307599	9.499164	57.000000	95.000000
9.316080	9.496034	63.000000	64.000000
9.318982	9.527962	66.000000	50.000000
9.326397	9.529572	72.000000	32.000000
10.341930	10.533495	60.000000	32.000000
10.354719	10.540479	66.000000	50.000000
10.357622	10.543381	69.000000	50.000000
10.362701	10.560071	75.000000	32.000000
10.849368	11.046737	57.000000	95.000000
10.859640	11.080229	63.000000	50.000000
10.863994	11.055558	66.000000	32.000000
10.871250	11.057010	72.000000	32.000000
11.340547	11.665626	54.000000	74.000000
11.352610	11.671885	60.000000	32.000000
11.356964	11.664629	63.000000	50.000000
11.362769	11.641409	69.000000	50.000000
12.829459	13.340298	55.000000	95.000000
12.839345	13.007690	62.000000	32.000000
12.845150	12.972860	67.000000	32.000000
12.851295	12.967395	70.000000	1.000000
12.973517	13.066397	67.000000	32.000000
13.008688	13.101567	70.000000	1.000000
13.011953	13.267372	62.000000	32.000000
13.072134	13.315944	67.000000	32.000000
13.102225	13.206715	70.000000	1.000000
13.229141	13.327826	70.000000	1.000000
13.307486	13.504855	62.000000	32.000000
13.326034	13.418914	67.000000	32.000000
13.331363	13.418438	70.000000	1.000000
13.423200	13.533495	67.000000	32.000000
13.459708	13.558393	70.000000	1.000000
13.535581	13.634266	67.000000	32.000000
13.559776	13.699096	70.000000	1.000000
13.635626	13.711091	67.000000	32.000000
13.700479	13.804969	70.000000	1.000000
13.713926	13.801000	67.000000	32.000000
13.781726	13.874606	62.000000	32.000000
13.802384	14.057803	67.000000	50.000000
13.809957	14.030547	70.000000	1.000000
13.879617	14.129232	62.000000	32.000000
15.632316	15.841295	55.000000	100.000000
15.636783	15.909617	62.000000	32.000000
15.641137	15.879141	65.000000	32.000000
15.646828	15.913858	71.000000	32.000000
17.127418	17.498937	63.000000	50.000000
17.139028	17.260932	67.000000	50.000000
17.146465	17.285785	72.000000	32.000000
17.261590	17.505400	67.000000	32.000000
17.287871	17.363336	72.000000	1.000000
17.366896	17.477191	72.000000	1.000000
17.501068	17.605558	72.000000	1.000000
17.502565	17.595445	63.000000	32.000000
17.510547	17.626647	67.000000	1.000000
17.598461	18.051250	58.000000	50.000000
17.615694	17.801454	63.000000	32.000000
17.628756	17.768075	67.000000	32.000000
17.638121	17.760025	72.000000	1.000000
17.796239	17.900728	74.000000	1.000000
17.802837	17.913132	63.000000	32.000000
17.810819	17.892089	67.000000	32.000000
17.894901	18.086465	67.000000	50.000000
17.902112	18.105286	74.000000	32.000000
17.936284	18.063994	63.000000	32.000000
19.135830	19.600229	65.000000	32.000000
19.145989	19.285309	69.000000	50.000000
19.152678	19.262973	75.000000	32.000000
19.285966	19.367236	69.000000	32.000000
19.287576	19.386261	75.000000	1.000000
19.370071	19.521000	69.000000	32.000000
19.389821	19.471091	75.000000	1.000000
19.502951	19.636465	75.000000	1.000000
19.523087	19.615966	69.000000	1.000000
19.602792	19.858211	65.000000	32.000000
19.619527	19.753041	69.000000	32.000000
19.637123	19.718393	75.000000	1.000000
19.754583	19.870683	75.000000	1.000000
19.755127	19.882837	69.000000	32.000000
19.867644	20.065014	65.000000	32.000000
19.883495	20.080864	69.000000	32.000000
19.891658	20.077418	74.000000	1.000000
21.180161	21.673585	70.000000	32.000000
21.191726	21.313631	77.000000	1.000000
21.316465	21.432565	77.000000	1.000000
21.438302	21.664697	77.000000	1.000000
21.663948	21.849708	67.000000	32.000000
21.674107	21.912112	70.000000	32.000000
21.681295	21.878665	77.000000	1.000000
21.914901	22.152905	67.000000	1.000000
21.917803	22.132588	70.000000	32.000000
21.923767	22.103722	75.000000	1.000000
22.960796	23.146556	70.000000	32.000000
22.971613	23.157372	77.000000	1.000000
23.456102	23.659277	70.000000	32.000000
23.465717	23.645672	75.000000	32.000000
23.930502	24.168506	70.000000	32.000000
23.941885	24.197304	77.000000	1.000000
25.204901	25.379050	63.000000	64.000000
25.217236	25.373971	66.000000	32.000000
25.218143	25.398098	72.000000	32.000000
25.731998	25.935173	66.000000	50.000000
25.742883	25.917032	69.000000	50.000000
25.746511	25.943880	75.000000	32.000000
26.231499	26.423064	63.000000	50.000000
26.240932	26.420887	66.000000	32.000000
26.246511	26.414855	72.000000	1.000000
26.708551	26.934946	60.000000	32.000000
26.719436	26.957440	63.000000	50.000000
26.723971	26.927146	69.000000	32.000000
27.215445	27.424424	63.000000	64.000000
27.226329	27.481749	66.000000	32.000000
27.232134	27.441114	72.000000	1.000000
27.702656	27.934855	66.000000	50.000000
27.712815	27.927599	69.000000	50.000000
27.718075	27.950275	75.000000	1.000000
30.505740	30.714719	65.000000	50.000000
30.515173	30.706737	70.000000	32.000000
30.520524	30.706284	74.000000	32.000000
30.982792	31.290456	65.000000	50.000000
30.992225	31.392769	70.000000	32.000000
30.999254	31.289504	74.000000	1.000000
