# onset,offset,note,velocity
0.002900	0.211879	66.000000	1.000000
0.003898	0.201267	57.000000	75.000000
0.005077	0.214056	62.000000	1.000000
0.009430	0.195190	47.000000	58.000000
0.297163	0.529362	47.000000	58.000000
0.300020	0.532220	57.000000	58.000000
0.311834	0.544034	62.000000	29.000000
0.315462	0.536052	66.000000	1.000000
0.622242	0.842832	47.000000	58.000000
0.635258	0.838433	57.000000	46.000000
0.642990	0.851970	62.000000	1.000000
0.647344	0.873739	66.000000	1.000000
0.922197	1.102151	47.000000	29.000000
0.939839	1.113988	57.000000	75.000000
0.946369	1.137934	62.000000	1.000000
0.951426	1.137185	66.000000	29.000000
1.157049	1.255734	66.000000	1.000000
1.160655	1.247730	61.000000	1.000000
1.247798	1.474192	52.000000	29.000000
1.252741	1.479136	62.000000	1.000000
1.253353	1.468138	56.000000	46.000000
1.259272	1.479861	66.000000	1.000000
1.596573	1.828773	52.000000	68.000000
1.597254	1.823648	56.000000	46.000000
1.604714	1.831108	62.000000	1.000000
1.606392	1.838591	66.000000	1.000000
1.916052	2.130836	52.000000	46.000000
1.924510	2.121879	56.000000	29.000000
1.933943	2.137117	62.000000	1.000000
1.935825	2.144805	66.000000	1.000000
2.237322	2.382446	52.000000	58.000000
2.242582	2.364487	56.000000	46.000000
2.251290	2.384805	62.000000	1.000000
2.256573	2.448138	66.000000	1.000000
2.455848	2.566142	60.000000	1.000000
2.559204	2.750768	55.000000	29.000000
2.570428	2.761993	61.000000	1.000000
2.882650	3.068410	45.000000	87.000000
2.891834	3.083399	55.000000	58.000000
2.901675	3.093240	61.000000	1.000000
2.905303	3.108478	64.000000	1.000000
3.193761	3.385326	45.000000	75.000000
3.211108	3.274963	55.000000	46.000000
3.220995	3.429975	61.000000	1.000000
3.222197	3.425371	64.000000	29.000000
3.520088	3.665213	45.000000	92.000000
3.527503	3.684238	55.000000	58.000000
3.542741	3.693671	61.000000	1.000000
3.545349	3.696278	64.000000	29.000000
3.697208	3.848138	61.000000	1.000000
3.736845	3.858750	64.000000	1.000000
3.842197	4.039566	50.000000	1.000000
3.849204	4.023353	54.000000	29.000000
3.852401	4.072990	61.000000	1.000000
3.860859	4.075644	64.000000	1.000000
4.171426	4.386210	50.000000	58.000000
4.177707	4.380882	54.000000	58.000000
4.185893	4.418093	64.000000	1.000000
4.187344	4.402129	61.000000	1.000000
4.493172	4.690541	50.000000	29.000000
4.498433	4.684192	54.000000	29.000000
4.509771	4.695530	61.000000	1.000000
4.513149	4.710519	64.000000	1.000000
4.802786	4.965326	50.000000	46.000000
4.810269	4.943784	54.000000	46.000000
4.819430	4.941335	61.000000	1.000000
4.822083	4.973013	64.000000	1.000000
5.014147	5.217322	59.000000	1.000000
5.017435	5.145145	55.000000	58.000000
5.114578	5.265507	44.000000	29.000000
5.312015	5.491970	54.000000	82.000000
5.318297	5.457616	59.000000	1.000000
5.323081	5.526256	62.000000	1.000000
5.745938	5.949113	44.000000	100.000000
5.761902	5.947662	54.000000	75.000000
5.765281	5.939430	59.000000	1.000000
5.769340	5.937684	62.000000	1.000000
6.072718	6.258478	54.000000	68.000000
6.082378	6.210088	62.000000	1.000000
6.082628	6.256777	59.000000	1.000000
6.286936	6.391426	59.000000	1.000000
6.297662	6.384737	59.000000	1.000000
6.378932	6.483421	53.000000	1.000000
6.380201	6.583376	49.000000	29.000000
6.395553	6.639362	59.000000	1.000000
6.402242	6.599612	62.000000	1.000000
6.720723	6.918093	49.000000	58.000000
6.724102	6.927276	53.000000	46.000000
6.729680	6.938659	59.000000	1.000000
6.736936	6.957526	62.000000	1.000000
7.046528	7.232288	49.000000	46.000000
7.053535	7.256709	53.000000	46.000000
7.057662	7.260836	59.000000	1.000000
7.065848	7.263217	62.000000	1.000000
7.350655	7.669929	40.000000	1.000000
7.357911	7.503036	49.000000	29.000000
7.363421	7.502741	53.000000	46.000000
7.372605	7.552560	59.000000	1.000000
7.379136	7.506845	62.000000	1.000000
7.566278	7.705598	59.000000	1.000000
7.569907	7.686006	55.000000	1.000000
7.680292	7.790587	42.000000	1.000000
7.871449	8.010768	52.000000	68.000000
7.875576	8.038115	57.000000	46.000000
7.879408	8.047752	61.000000	1.000000
8.179385	8.283875	57.000000	29.000000
8.201380	8.300065	52.000000	29.000000
8.288297	8.491471	42.000000	29.000000
8.302900	8.506074	52.000000	1.000000
8.310655	8.525439	57.000000	46.000000
8.323512	8.515077	61.000000	1.000000
8.591222	8.776981	42.000000	1.000000
8.622809	8.791154	52.000000	75.000000
8.627594	8.801743	57.000000	75.000000
8.632424	8.800768	61.000000	1.000000
8.845666	8.950156	51.000000	1.000000
8.934555	9.201585	42.000000	1.000000
8.955167	9.135122	52.000000	29.000000
9.138659	9.318614	52.000000	82.000000
9.140950	9.344124	58.000000	46.000000
9.147480	9.356460	62.000000	1.000000
9.446120	9.666709	62.000000	1.000000
9.457548	9.573648	57.000000	29.000000
9.469158	9.585258	52.000000	29.000000
9.564192	9.639657	42.000000	29.000000
9.588070	9.692560	52.000000	1.000000
9.601857	9.810836	58.000000	29.000000
9.642492	9.839861	42.000000	29.000000
9.860247	10.092446	42.000000	1.000000
9.911789	10.056913	58.000000	1.000000
9.911789	10.143988	52.000000	82.000000
9.918070	10.132854	62.000000	29.000000
10.151222	10.261517	66.000000	1.000000
10.182854	10.455689	47.000000	1.000000
10.250383	10.447752	62.000000	1.000000
10.266528	10.446483	66.000000	1.000000
10.573761	10.771131	57.000000	29.000000
10.579839	10.777208	62.000000	1.000000
10.585349	10.771108	66.000000	1.000000
10.890859	11.088229	57.000000	29.000000
10.903716	11.095281	62.000000	1.000000
10.905644	11.103013	66.000000	29.000000
11.200836	11.386596	47.000000	58.000000
11.217435	11.397390	57.000000	58.000000
11.219884	11.365009	62.000000	29.000000
11.229000	11.420564	66.000000	1.000000
11.365757	11.476052	61.000000	1.000000
11.429929	11.528614	66.000000	1.000000
11.511176	11.737571	52.000000	29.000000
11.521698	11.736483	62.000000	1.000000
11.522537	11.737322	56.000000	58.000000
11.529272	11.744056	66.000000	1.000000
11.852696	12.073285	52.000000	46.000000
11.867367	12.053127	56.000000	46.000000
11.871517	12.074691	62.000000	29.000000
11.873671	12.088455	66.000000	1.000000
12.168342	12.377322	52.000000	29.000000
12.184306	12.370065	56.000000	75.000000
12.191040	12.382605	62.000000	1.000000
12.194941	12.392310	66.000000	1.000000
12.488569	12.656913	52.000000	46.000000
12.501176	12.628886	56.000000	68.000000
12.508433	12.659362	62.000000	29.000000
12.512492	12.657616	66.000000	1.000000
12.803557	12.954487	50.000000	1.000000
12.813784	12.889249	61.000000	1.000000
12.913852	13.140247	61.000000	1.000000
13.122628	13.290972	45.000000	92.000000
13.135870	13.327435	55.000000	46.000000
13.148206	13.345576	61.000000	1.000000
13.152310	13.355485	64.000000	29.000000
13.295439	13.655349	45.000000	82.000000
13.469657	13.678637	55.000000	46.000000
13.480814	13.701403	61.000000	1.000000
13.482265	13.714464	64.000000	1.000000
13.782015	13.932945	45.000000	46.000000
13.787775	13.956120	55.000000	75.000000
13.797934	13.948863	61.000000	1.000000
13.803943	13.960678	64.000000	1.000000
13.992537	14.068002	59.000000	1.000000
14.307117	14.458047	50.000000	46.000000
14.308319	14.459249	57.000000	29.000000
14.317254	14.462378	61.000000	1.000000
14.321607	14.478342	66.000000	1.000000
14.617299	14.936573	50.000000	46.000000
14.622129	14.935598	57.000000	68.000000
14.629816	14.943285	66.000000	1.000000
14.973127	15.054396	66.000000	1.000000
14.974691	15.050156	61.000000	1.000000
15.041108	15.180428	50.000000	29.000000
15.045938	15.196868	57.000000	58.000000
15.052990	15.198115	61.000000	1.000000
15.058682	15.221222	66.000000	29.000000
15.259453	15.445213	59.000000	1.000000
15.328523	15.543308	44.000000	46.000000
15.360587	15.557956	54.000000	46.000000
15.683308	15.892288	44.000000	87.000000
15.698727	15.878682	54.000000	68.000000
15.703557	15.900927	62.000000	1.000000
15.703807	15.906981	59.000000	1.000000
16.016369	16.236959	44.000000	58.000000
16.023557	16.249952	54.000000	29.000000
16.037344	16.252129	62.000000	1.000000
16.039294	16.230859	59.000000	29.000000
16.347435	16.533195	54.000000	29.000000
16.358093	16.549657	59.000000	29.000000
16.358569	16.497888	62.000000	1.000000
16.424782	16.540882	42.000000	1.000000
16.560927	16.671222	59.000000	1.000000
16.576301	16.663376	59.000000	1.000000
16.664850	16.862220	54.000000	46.000000
16.668387	16.871562	59.000000	1.000000
16.671879	16.863444	62.000000	1.000000
16.999068	17.190632	54.000000	29.000000
17.007526	17.222310	59.000000	1.000000
17.014260	17.211630	62.000000	1.000000
17.317616	17.503376	54.000000	1.000000
17.333376	17.542356	59.000000	1.000000
17.333580	17.525145	62.000000	1.000000
17.628002	17.773127	54.000000	29.000000
17.642514	17.776029	59.000000	29.000000
17.647072	17.780587	62.000000	1.000000
17.838954	17.937639	59.000000	1.000000
17.845598	17.926868	55.000000	46.000000
17.961834	18.298523	42.000000	1.000000
17.984124	18.053784	57.000000	1.000000
18.157730	18.297049	51.000000	46.000000
18.162560	18.377344	57.000000	58.000000
18.167412	18.347367	61.000000	1.000000
18.488909	18.680473	57.000000	29.000000
18.496845	18.560700	50.000000	29.000000
18.590768	18.944873	42.000000	1.000000
18.794396	18.910496	51.000000	58.000000
18.798115	18.978070	57.000000	58.000000
18.799997	18.979952	61.000000	1.000000
19.080496	19.173376	56.000000	29.000000
19.102990	19.166845	50.000000	29.000000
19.199453	19.565167	42.000000	1.000000
19.418954	19.540859	51.000000	58.000000
19.423671	19.621040	57.000000	75.000000
19.428229	19.613988	61.000000	29.000000
19.695371	19.759226	56.000000	29.000000
19.727412	19.843512	50.000000	46.000000
19.837548	20.532000	42.000000	29.000000
19.849249	20.532000	51.000000	68.000000
19.854215	20.532000	57.000000	46.000000
19.857322	20.532000	61.000000	29.000000
