# onset,offset,note,velocity
0.009043	0.096118	56.000000	46.000000
0.009837	0.224621	61.000000	1.000000
0.042172	1.406345	46.000000	58.000000
0.063692	0.742875	65.000000	29.000000
0.744621	0.808476	56.000000	29.000000
0.753442	1.072717	61.000000	1.000000
0.758567	1.077841	65.000000	1.000000
1.087932	1.192422	56.000000	29.000000
1.094054	1.419134	61.000000	1.000000
1.101991	1.409655	65.000000	1.000000
1.407796	2.359814	46.000000	29.000000
1.422286	1.741560	56.000000	46.000000
1.429565	1.539859	61.000000	1.000000
1.435007	2.119995	65.000000	1.000000
2.122286	2.395120	56.000000	92.000000
2.128975	2.413420	61.000000	29.000000
2.130517	2.414961	65.000000	29.000000
2.857297	3.014032	51.000000	1.000000
3.188816	3.310721	51.000000	1.000000
3.530426	3.867116	51.000000	58.000000
3.534871	3.645166	55.000000	92.000000
3.540086	3.870971	61.000000	29.000000
3.544440	3.881129	63.000000	29.000000
3.549655	3.880540	64.000000	1.000000
3.872286	4.574689	51.000000	58.000000
3.874667	3.984961	55.000000	68.000000
3.881923	4.921016	61.000000	1.000000
3.884190	4.934893	63.000000	29.000000
3.889837	4.110426	64.000000	1.000000
4.577841	4.902921	51.000000	1.000000
4.924599	5.156798	51.000000	58.000000
4.931220	5.180834	55.000000	87.000000
4.934190	5.172195	61.000000	29.000000
4.937184	5.169383	63.000000	29.000000
5.161265	5.277365	45.000000	1.000000
5.644531	6.341129	44.000000	92.000000
5.646050	6.354259	51.000000	29.000000
6.368567	6.809746	44.000000	29.000000
6.374553	7.100177	51.000000	58.000000
6.376889	6.522014	56.000000	58.000000
6.384213	7.777410	60.000000	1.000000
6.387841	7.775234	63.000000	1.000000
6.395891	7.783283	68.000000	1.000000
7.101084	7.321673	44.000000	29.000000
7.104213	7.400268	51.000000	29.000000
7.418907	7.529202	44.000000	46.000000
7.430744	7.564259	51.000000	1.000000
7.778227	8.056866	44.000000	46.000000
7.782671	8.096141	51.000000	58.000000
7.784122	7.981492	56.000000	87.000000
7.787819	8.101288	60.000000	46.000000
7.791537	8.087592	63.000000	46.000000
7.795891	8.126776	68.000000	1.000000
8.496571	9.193170	49.000000	1.000000
8.504848	8.609338	56.000000	46.000000
8.512240	8.773465	61.000000	1.000000
8.530381	9.209565	65.000000	1.000000
9.213578	9.521243	49.000000	46.000000
9.220925	9.534395	56.000000	68.000000
9.225347	9.544621	61.000000	1.000000
9.228340	9.553420	65.000000	1.000000
9.538590	10.194553	49.000000	46.000000
9.540766	10.190925	56.000000	68.000000
9.549224	10.553488	61.000000	1.000000
9.553737	10.563805	65.000000	1.000000
10.196957	10.551061	49.000000	1.000000
10.214644	10.545528	56.000000	29.000000
10.565007	10.837841	49.000000	29.000000
10.568703	10.818317	56.000000	100.000000
10.571673	10.803873	61.000000	1.000000
10.573941	10.800336	65.000000	46.000000
11.293057	11.414961	55.000000	29.000000
11.302490	11.639179	61.000000	1.000000
11.666322	11.811447	55.000000	1.000000
12.020086	13.001129	55.000000	82.000000
12.023306	12.389020	61.000000	1.000000
12.030562	13.388930	65.000000	1.000000
12.035642	13.405619	70.000000	1.000000
12.391061	13.018000	61.000000	1.000000
13.025098	13.170222	55.000000	1.000000
13.039927	13.150222	61.000000	1.000000
13.397342	13.612127	55.000000	97.000000
13.401061	13.679701	61.000000	29.000000
13.404757	13.683397	65.000000	29.000000
13.408476	13.721946	70.000000	1.000000
13.629383	13.757093	45.000000	1.000000
14.118748	14.443828	48.000000	1.000000
14.120925	14.184780	58.000000	1.000000
14.453896	14.796390	48.000000	1.000000
14.461379	14.798068	58.000000	46.000000
14.468771	14.811265	64.000000	1.000000
14.472558	14.803442	68.000000	1.000000
14.799247	15.130132	48.000000	1.000000
14.809814	15.123283	58.000000	68.000000
14.812218	15.143102	64.000000	29.000000
14.819474	15.144553	68.000000	1.000000
15.130426	15.844440	48.000000	1.000000
15.143692	16.240834	64.000000	46.000000
15.143692	16.229224	58.000000	82.000000
15.148045	16.239383	68.000000	1.000000
15.868295	15.966980	48.000000	1.000000
16.230494	16.497524	48.000000	46.000000
16.242921	16.527365	58.000000	87.000000
16.245891	16.524531	64.000000	46.000000
16.249610	16.516639	68.000000	1.000000
16.957615	17.654213	53.000000	46.000000
16.972512	17.657501	63.000000	1.000000
16.977683	17.656866	68.000000	1.000000
17.656209	18.242512	53.000000	68.000000
17.661356	18.230245	56.000000	92.000000
17.664349	18.204213	63.000000	46.000000
17.666526	18.194780	68.000000	1.000000
18.196798	18.684417	68.000000	1.000000
18.204825	18.692444	63.000000	1.000000
18.231197	18.376322	56.000000	29.000000
18.242898	18.347388	53.000000	29.000000
18.350925	18.530880	53.000000	1.000000
18.687841	19.024531	53.000000	58.000000
18.691469	19.004939	56.000000	100.000000
18.692989	19.029678	63.000000	58.000000
18.695166	19.008635	68.000000	1.000000
19.739224	20.070109	53.000000	46.000000
19.744463	20.092762	57.000000	58.000000
19.749769	20.092263	63.000000	1.000000
19.756299	20.458703	65.000000	29.000000
20.091039	20.375483	53.000000	1.000000
20.098363	20.220268	57.000000	1.000000
20.116571	20.360381	63.000000	1.000000
20.454644	20.797138	53.000000	58.000000
20.459882	20.796571	57.000000	82.000000
20.466481	20.803170	63.000000	29.000000
20.470902	20.819202	65.000000	29.000000
20.799973	21.148272	53.000000	46.000000
20.801220	21.161129	57.000000	46.000000
20.807841	21.150336	63.000000	1.000000
20.820290	21.174395	65.000000	1.000000
21.159837	21.484916	53.000000	68.000000
21.162082	21.481356	57.000000	58.000000
21.167320	21.492399	63.000000	1.000000
21.175143	21.854327	65.000000	29.000000
21.485937	21.631061	53.000000	29.000000
21.486753	21.597048	57.000000	29.000000
21.510200	21.765619	63.000000	1.000000
21.870902	22.143737	53.000000	46.000000
21.872354	22.145188	57.000000	87.000000
21.877501	22.144531	63.000000	58.000000
21.878295	22.110494	65.000000	29.000000
22.190086	22.468726	59.000000	1.000000
22.548136	23.279565	46.000000	58.000000
23.279610	23.982014	46.000000	46.000000
23.292898	23.914032	56.000000	97.000000
23.295937	23.899655	61.000000	29.000000
23.300358	23.880857	65.000000	29.000000
23.883578	24.719497	65.000000	1.000000
23.900834	24.725143	61.000000	1.000000
23.916503	24.038408	56.000000	46.000000
23.984757	24.089247	46.000000	1.000000
24.327501	24.507456	46.000000	1.000000
24.715687	25.011741	46.000000	29.000000
24.722354	24.977773	56.000000	97.000000
24.725347	25.044621	61.000000	29.000000
24.728295	25.076594	65.000000	1.000000
24.979383	25.159338	50.000000	1.000000
25.038567	25.102422	45.000000	58.000000
25.286526	25.402626	50.000000	1.000000
25.301537	25.382807	45.000000	46.000000
25.437887	26.122875	51.000000	29.000000
25.442467	25.599202	55.000000	1.000000
25.454848	25.582558	61.000000	1.000000
25.465007	26.115166	65.000000	1.000000
26.123079	26.575868	51.000000	46.000000
26.124531	26.548295	55.000000	87.000000
26.128227	26.511356	61.000000	29.000000
26.129746	26.553510	65.000000	29.000000
26.579224	26.788204	51.000000	29.000000
26.690154	26.835279	67.000000	1.000000
26.706209	26.810698	61.000000	1.000000
26.717955	26.828249	55.000000	58.000000
26.816662	26.932762	51.000000	1.000000
26.828771	27.130630	61.000000	1.000000
26.829633	26.910902	55.000000	29.000000
26.835937	27.143601	67.000000	1.000000
27.146503	27.523828	51.000000	1.000000
27.146571	27.506481	55.000000	87.000000
27.151741	27.529066	61.000000	1.000000
27.153397	27.530721	67.000000	1.000000
27.526685	27.747274	51.000000	29.000000
27.528204	27.777819	55.000000	82.000000
27.529655	27.825710	61.000000	1.000000
27.534236	27.801265	67.000000	1.000000
27.751810	27.920154	45.000000	1.000000
27.866050	28.057615	50.000000	1.000000
27.871651	28.028385	55.000000	58.000000
27.884077	28.023397	59.000000	1.000000
28.029134	28.209088	59.000000	1.000000
28.055166	28.188680	55.000000	1.000000
28.071333	28.158408	50.000000	1.000000
28.087819	28.198113	45.000000	46.000000
28.099587	28.221492	40.000000	1.000000
28.225052	28.915846	44.000000	82.000000
28.941265	29.051560	44.000000	29.000000
28.948091	29.232535	55.000000	92.000000
28.952512	29.202127	60.000000	29.000000
28.955506	29.181900	63.000000	1.000000
29.531152	29.600812	41.000000	1.000000
29.641379	29.966458	44.000000	58.000000
29.649973	29.713828	51.000000	1.000000
29.992875	30.329565	44.000000	46.000000
29.996662	30.356571	51.000000	46.000000
30.004213	30.195778	56.000000	46.000000
30.008408	30.316073	60.000000	1.000000
30.359542	30.591741	51.000000	29.000000
30.362762	30.641401	56.000000	82.000000
30.366526	30.627751	60.000000	29.000000
30.369429	30.648068	63.000000	29.000000
30.372921	30.698000	68.000000	1.000000
30.618884	30.723374	45.000000	46.000000
30.630789	30.839769	55.000000	29.000000
30.917773	30.999043	45.000000	29.000000
31.057025	31.387909	49.000000	29.000000
31.060018	31.390902	56.000000	46.000000
31.070336	31.401220	61.000000	1.000000
31.079927	31.410812	65.000000	1.000000
31.403964	31.758068	49.000000	29.000000
31.411447	31.527546	56.000000	46.000000
31.420245	31.762739	61.000000	1.000000
31.428113	31.770608	65.000000	1.000000
31.762739	32.099429	49.000000	46.000000
31.767977	32.104667	56.000000	92.000000
31.773125	32.115619	61.000000	29.000000
31.778272	32.120766	65.000000	1.000000
32.103510	32.451810	49.000000	29.000000
32.111424	32.442308	56.000000	58.000000
32.118091	32.466390	61.000000	1.000000
32.124689	32.461379	65.000000	1.000000
32.453918	32.802218	49.000000	46.000000
32.463714	32.794599	56.000000	46.000000
32.471039	32.807728	61.000000	1.000000
32.481129	33.177728	65.000000	1.000000
32.805029	33.170744	49.000000	29.000000
32.817365	33.154054	56.000000	46.000000
32.822444	33.182354	61.000000	1.000000
33.174621	33.389406	49.000000	46.000000
33.180426	33.401016	56.000000	92.000000
33.184871	33.393850	61.000000	29.000000
33.188567	33.391741	65.000000	29.000000
33.925982	34.541311	43.000000	58.000000
34.541515	35.243918	43.000000	75.000000
34.559066	35.186005	53.000000	58.000000
34.564372	35.173896	58.000000	29.000000
34.569383	35.144077	61.000000	1.000000
35.162739	35.603918	61.000000	1.000000
35.178227	35.393011	58.000000	29.000000
35.190630	35.283510	53.000000	29.000000
35.248454	35.370358	43.000000	29.000000
35.284893	35.534508	53.000000	1.000000
35.584032	35.984576	43.000000	1.000000
35.590132	35.967456	53.000000	1.000000
35.598998	35.941492	58.000000	29.000000
35.608975	36.015324	61.000000	1.000000
36.007637	36.292082	43.000000	29.000000
36.015687	36.305937	53.000000	68.000000
36.017955	36.308204	58.000000	82.000000
36.020132	36.281356	61.000000	29.000000
36.330449	36.411719	45.000000	29.000000
36.731560	36.807025	48.000000	1.000000
37.050540	37.131810	48.000000	1.000000
37.054848	37.199973	52.000000	1.000000
37.067909	37.178204	58.000000	1.000000
37.403283	37.745778	48.000000	46.000000
37.406254	37.748748	52.000000	68.000000
37.414961	37.740041	58.000000	46.000000
37.419406	37.767705	60.000000	1.000000
37.749406	38.103510	48.000000	46.000000
37.751220	37.884735	52.000000	29.000000
37.759270	37.881175	58.000000	29.000000
37.769429	38.111923	60.000000	1.000000
38.103510	38.446005	48.000000	29.000000
38.113533	38.444417	52.000000	29.000000
38.119565	38.456254	58.000000	1.000000
38.132535	38.829134	60.000000	1.000000
38.448544	38.796844	48.000000	29.000000
38.456413	38.798907	52.000000	29.000000
38.468181	38.822286	58.000000	58.000000
38.818726	39.079950	48.000000	58.000000
38.824531	39.085755	52.000000	58.000000
38.826776	39.076390	58.000000	82.000000
38.829678	39.050268	60.000000	46.000000
39.167410	39.295120	59.000000	1.000000
39.207320	39.491764	50.000000	1.000000
39.224372	39.456571	45.000000	1.000000
39.530585	39.820834	41.000000	1.000000
39.840630	40.229565	41.000000	1.000000
39.845143	40.239882	48.000000	29.000000
39.846889	40.224213	53.000000	1.000000
40.239247	40.564327	41.000000	1.000000
40.240063	40.576753	48.000000	46.000000
40.246254	40.559723	53.000000	29.000000
40.570063	40.912558	41.000000	1.000000
40.576821	40.919315	48.000000	29.000000
40.579315	40.643170	53.000000	1.000000
40.913261	41.261560	41.000000	1.000000
40.922694	41.241968	48.000000	29.000000
40.931605	41.065120	53.000000	1.000000
41.263488	41.617592	41.000000	29.000000
41.266186	41.411311	48.000000	29.000000
41.285868	41.634168	53.000000	29.000000
41.632717	41.940381	41.000000	1.000000
41.641492	41.949156	48.000000	46.000000
41.645914	41.924553	53.000000	46.000000
41.663397	41.965256	60.000000	1.000000
41.942331	42.331265	41.000000	1.000000
41.949202	42.355551	48.000000	46.000000
41.951333	42.346073	53.000000	1.000000
41.986594	42.300063	60.000000	1.000000
42.348227	43.764644	41.000000	29.000000
42.359837	43.758839	48.000000	29.000000
42.362966	43.715528	53.000000	29.000000
42.378204	43.783011	60.000000	1.000000
42.380154	42.821333	65.000000	1.000000
43.765075	45.173200	41.000000	1.000000
43.770200	45.173200	48.000000	46.000000
43.777524	44.073578	53.000000	58.000000
43.784054	45.173200	60.000000	1.000000
43.793374	45.173200	65.000000	1.000000
